G04 #@! TF.GenerationSoftware,KiCad,Pcbnew,8.0.7-8.0.7-0~ubuntu24.04.1*
G04 #@! TF.CreationDate,2025-01-27T17:00:14+01:00*
G04 #@! TF.ProjectId,KICad_Files,4b494361-645f-4466-996c-65732e6b6963,1*
G04 #@! TF.SameCoordinates,Original*
G04 #@! TF.FileFunction,Legend,Top*
G04 #@! TF.FilePolarity,Positive*
%FSLAX46Y46*%
G04 Gerber Fmt 4.6, Leading zero omitted, Abs format (unit mm)*
G04 Created by KiCad (PCBNEW 8.0.7-8.0.7-0~ubuntu24.04.1) date 2025-01-27 17:00:14*
%MOMM*%
%LPD*%
G01*
G04 APERTURE LIST*
G04 Aperture macros list*
%AMRoundRect*
0 Rectangle with rounded corners*
0 $1 Rounding radius*
0 $2 $3 $4 $5 $6 $7 $8 $9 X,Y pos of 4 corners*
0 Add a 4 corners polygon primitive as box body*
4,1,4,$2,$3,$4,$5,$6,$7,$8,$9,$2,$3,0*
0 Add four circle primitives for the rounded corners*
1,1,$1+$1,$2,$3*
1,1,$1+$1,$4,$5*
1,1,$1+$1,$6,$7*
1,1,$1+$1,$8,$9*
0 Add four rect primitives between the rounded corners*
20,1,$1+$1,$2,$3,$4,$5,0*
20,1,$1+$1,$4,$5,$6,$7,0*
20,1,$1+$1,$6,$7,$8,$9,0*
20,1,$1+$1,$8,$9,$2,$3,0*%
%AMRotRect*
0 Rectangle, with rotation*
0 The origin of the aperture is its center*
0 $1 length*
0 $2 width*
0 $3 Rotation angle, in degrees counterclockwise*
0 Add horizontal line*
21,1,$1,$2,0,0,$3*%
G04 Aperture macros list end*
%ADD10C,0.100000*%
%ADD11C,0.125000*%
%ADD12C,0.150000*%
%ADD13C,0.120000*%
%ADD14RoundRect,0.237500X-0.237500X0.250000X-0.237500X-0.250000X0.237500X-0.250000X0.237500X0.250000X0*%
%ADD15RoundRect,0.237500X-0.300000X-0.237500X0.300000X-0.237500X0.300000X0.237500X-0.300000X0.237500X0*%
%ADD16R,1.350000X1.350000*%
%ADD17O,1.350000X1.350000*%
%ADD18RoundRect,0.237500X0.300000X0.237500X-0.300000X0.237500X-0.300000X-0.237500X0.300000X-0.237500X0*%
%ADD19RoundRect,0.237500X-0.250000X-0.237500X0.250000X-0.237500X0.250000X0.237500X-0.250000X0.237500X0*%
%ADD20RoundRect,0.237500X-0.044194X-0.380070X0.380070X0.044194X0.044194X0.380070X-0.380070X-0.044194X0*%
%ADD21RoundRect,0.237500X0.237500X-0.300000X0.237500X0.300000X-0.237500X0.300000X-0.237500X-0.300000X0*%
%ADD22RoundRect,0.200000X0.450000X-0.200000X0.450000X0.200000X-0.450000X0.200000X-0.450000X-0.200000X0*%
%ADD23O,1.300000X0.800000*%
%ADD24RoundRect,0.237500X0.237500X-0.250000X0.237500X0.250000X-0.237500X0.250000X-0.237500X-0.250000X0*%
%ADD25C,0.600000*%
%ADD26R,0.600000X1.160000*%
%ADD27R,0.300000X1.160000*%
%ADD28O,0.900000X2.000000*%
%ADD29O,0.900000X1.700000*%
%ADD30RoundRect,0.250001X0.849999X-0.462499X0.849999X0.462499X-0.849999X0.462499X-0.849999X-0.462499X0*%
%ADD31RoundRect,0.150000X-0.150000X0.512500X-0.150000X-0.512500X0.150000X-0.512500X0.150000X0.512500X0*%
%ADD32RoundRect,0.250000X0.350000X0.850000X-0.350000X0.850000X-0.350000X-0.850000X0.350000X-0.850000X0*%
%ADD33RoundRect,0.237500X0.250000X0.237500X-0.250000X0.237500X-0.250000X-0.237500X0.250000X-0.237500X0*%
%ADD34RoundRect,0.200000X0.550000X-0.200000X0.550000X0.200000X-0.550000X0.200000X-0.550000X-0.200000X0*%
%ADD35RoundRect,0.200000X0.525000X-0.200000X0.525000X0.200000X-0.525000X0.200000X-0.525000X-0.200000X0*%
%ADD36RoundRect,0.218750X0.256250X-0.218750X0.256250X0.218750X-0.256250X0.218750X-0.256250X-0.218750X0*%
%ADD37RoundRect,0.250000X0.450000X-0.325000X0.450000X0.325000X-0.450000X0.325000X-0.450000X-0.325000X0*%
%ADD38RoundRect,0.237500X-0.344715X0.008839X0.008839X-0.344715X0.344715X-0.008839X-0.008839X0.344715X0*%
%ADD39RoundRect,0.237500X-0.380070X0.044194X0.044194X-0.380070X0.380070X-0.044194X-0.044194X0.380070X0*%
%ADD40RoundRect,0.062500X-0.282843X0.194454X0.194454X-0.282843X0.282843X-0.194454X-0.194454X0.282843X0*%
%ADD41RoundRect,0.062500X-0.282843X-0.194454X-0.194454X-0.282843X0.282843X0.194454X0.194454X0.282843X0*%
%ADD42RotRect,3.700000X3.700000X315.000000*%
%ADD43RoundRect,0.237500X-0.237500X0.300000X-0.237500X-0.300000X0.237500X-0.300000X0.237500X0.300000X0*%
G04 APERTURE END LIST*
D10*
X114700001Y-106900001D02*
X114800001Y-107000001D01*
X114700001Y-106900001D02*
X114800001Y-106800001D01*
X114800001Y-106800001D02*
X114700001Y-106900001D01*
X114700001Y-106900001D02*
X115100001Y-106900001D01*
D11*
X104890476Y-84867024D02*
X105271429Y-84867024D01*
X104814286Y-85095596D02*
X105080953Y-84295596D01*
X105080953Y-84295596D02*
X105347619Y-85095596D01*
X105614286Y-84562262D02*
X105614286Y-85095596D01*
X105614286Y-84638453D02*
X105652381Y-84600358D01*
X105652381Y-84600358D02*
X105728571Y-84562262D01*
X105728571Y-84562262D02*
X105842857Y-84562262D01*
X105842857Y-84562262D02*
X105919048Y-84600358D01*
X105919048Y-84600358D02*
X105957143Y-84676548D01*
X105957143Y-84676548D02*
X105957143Y-85095596D01*
X106223810Y-84562262D02*
X106528572Y-84562262D01*
X106338096Y-84295596D02*
X106338096Y-84981310D01*
X106338096Y-84981310D02*
X106376191Y-85057501D01*
X106376191Y-85057501D02*
X106452381Y-85095596D01*
X106452381Y-85095596D02*
X106528572Y-85095596D01*
X107100001Y-85057501D02*
X107023810Y-85095596D01*
X107023810Y-85095596D02*
X106871429Y-85095596D01*
X106871429Y-85095596D02*
X106795239Y-85057501D01*
X106795239Y-85057501D02*
X106757143Y-84981310D01*
X106757143Y-84981310D02*
X106757143Y-84676548D01*
X106757143Y-84676548D02*
X106795239Y-84600358D01*
X106795239Y-84600358D02*
X106871429Y-84562262D01*
X106871429Y-84562262D02*
X107023810Y-84562262D01*
X107023810Y-84562262D02*
X107100001Y-84600358D01*
X107100001Y-84600358D02*
X107138096Y-84676548D01*
X107138096Y-84676548D02*
X107138096Y-84752739D01*
X107138096Y-84752739D02*
X106757143Y-84828929D01*
X107480953Y-84562262D02*
X107480953Y-85095596D01*
X107480953Y-84638453D02*
X107519048Y-84600358D01*
X107519048Y-84600358D02*
X107595238Y-84562262D01*
X107595238Y-84562262D02*
X107709524Y-84562262D01*
X107709524Y-84562262D02*
X107785715Y-84600358D01*
X107785715Y-84600358D02*
X107823810Y-84676548D01*
X107823810Y-84676548D02*
X107823810Y-85095596D01*
X108204763Y-84562262D02*
X108204763Y-85095596D01*
X108204763Y-84638453D02*
X108242858Y-84600358D01*
X108242858Y-84600358D02*
X108319048Y-84562262D01*
X108319048Y-84562262D02*
X108433334Y-84562262D01*
X108433334Y-84562262D02*
X108509525Y-84600358D01*
X108509525Y-84600358D02*
X108547620Y-84676548D01*
X108547620Y-84676548D02*
X108547620Y-85095596D01*
X109271430Y-85095596D02*
X109271430Y-84676548D01*
X109271430Y-84676548D02*
X109233335Y-84600358D01*
X109233335Y-84600358D02*
X109157144Y-84562262D01*
X109157144Y-84562262D02*
X109004763Y-84562262D01*
X109004763Y-84562262D02*
X108928573Y-84600358D01*
X109271430Y-85057501D02*
X109195239Y-85095596D01*
X109195239Y-85095596D02*
X109004763Y-85095596D01*
X109004763Y-85095596D02*
X108928573Y-85057501D01*
X108928573Y-85057501D02*
X108890477Y-84981310D01*
X108890477Y-84981310D02*
X108890477Y-84905120D01*
X108890477Y-84905120D02*
X108928573Y-84828929D01*
X108928573Y-84828929D02*
X109004763Y-84790834D01*
X109004763Y-84790834D02*
X109195239Y-84790834D01*
X109195239Y-84790834D02*
X109271430Y-84752739D01*
D12*
X92871010Y-112579888D02*
X92918629Y-112437031D01*
X92918629Y-112437031D02*
X92966248Y-112389412D01*
X92966248Y-112389412D02*
X93061486Y-112341793D01*
X93061486Y-112341793D02*
X93204343Y-112341793D01*
X93204343Y-112341793D02*
X93299581Y-112389412D01*
X93299581Y-112389412D02*
X93347201Y-112437031D01*
X93347201Y-112437031D02*
X93394820Y-112532269D01*
X93394820Y-112532269D02*
X93394820Y-112913221D01*
X93394820Y-112913221D02*
X92394820Y-112913221D01*
X92394820Y-112913221D02*
X92394820Y-112579888D01*
X92394820Y-112579888D02*
X92442439Y-112484650D01*
X92442439Y-112484650D02*
X92490058Y-112437031D01*
X92490058Y-112437031D02*
X92585296Y-112389412D01*
X92585296Y-112389412D02*
X92680534Y-112389412D01*
X92680534Y-112389412D02*
X92775772Y-112437031D01*
X92775772Y-112437031D02*
X92823391Y-112484650D01*
X92823391Y-112484650D02*
X92871010Y-112579888D01*
X92871010Y-112579888D02*
X92871010Y-112913221D01*
X93394820Y-111770364D02*
X93347201Y-111865602D01*
X93347201Y-111865602D02*
X93299581Y-111913221D01*
X93299581Y-111913221D02*
X93204343Y-111960840D01*
X93204343Y-111960840D02*
X92918629Y-111960840D01*
X92918629Y-111960840D02*
X92823391Y-111913221D01*
X92823391Y-111913221D02*
X92775772Y-111865602D01*
X92775772Y-111865602D02*
X92728153Y-111770364D01*
X92728153Y-111770364D02*
X92728153Y-111627507D01*
X92728153Y-111627507D02*
X92775772Y-111532269D01*
X92775772Y-111532269D02*
X92823391Y-111484650D01*
X92823391Y-111484650D02*
X92918629Y-111437031D01*
X92918629Y-111437031D02*
X93204343Y-111437031D01*
X93204343Y-111437031D02*
X93299581Y-111484650D01*
X93299581Y-111484650D02*
X93347201Y-111532269D01*
X93347201Y-111532269D02*
X93394820Y-111627507D01*
X93394820Y-111627507D02*
X93394820Y-111770364D01*
X93394820Y-110865602D02*
X93347201Y-110960840D01*
X93347201Y-110960840D02*
X93299581Y-111008459D01*
X93299581Y-111008459D02*
X93204343Y-111056078D01*
X93204343Y-111056078D02*
X92918629Y-111056078D01*
X92918629Y-111056078D02*
X92823391Y-111008459D01*
X92823391Y-111008459D02*
X92775772Y-110960840D01*
X92775772Y-110960840D02*
X92728153Y-110865602D01*
X92728153Y-110865602D02*
X92728153Y-110722745D01*
X92728153Y-110722745D02*
X92775772Y-110627507D01*
X92775772Y-110627507D02*
X92823391Y-110579888D01*
X92823391Y-110579888D02*
X92918629Y-110532269D01*
X92918629Y-110532269D02*
X93204343Y-110532269D01*
X93204343Y-110532269D02*
X93299581Y-110579888D01*
X93299581Y-110579888D02*
X93347201Y-110627507D01*
X93347201Y-110627507D02*
X93394820Y-110722745D01*
X93394820Y-110722745D02*
X93394820Y-110865602D01*
X92728153Y-110246554D02*
X92728153Y-109865602D01*
X92394820Y-110103697D02*
X93251962Y-110103697D01*
X93251962Y-110103697D02*
X93347201Y-110056078D01*
X93347201Y-110056078D02*
X93394820Y-109960840D01*
X93394820Y-109960840D02*
X93394820Y-109865602D01*
X113394820Y-112966793D02*
X112918629Y-113300126D01*
X113394820Y-113538221D02*
X112394820Y-113538221D01*
X112394820Y-113538221D02*
X112394820Y-113157269D01*
X112394820Y-113157269D02*
X112442439Y-113062031D01*
X112442439Y-113062031D02*
X112490058Y-113014412D01*
X112490058Y-113014412D02*
X112585296Y-112966793D01*
X112585296Y-112966793D02*
X112728153Y-112966793D01*
X112728153Y-112966793D02*
X112823391Y-113014412D01*
X112823391Y-113014412D02*
X112871010Y-113062031D01*
X112871010Y-113062031D02*
X112918629Y-113157269D01*
X112918629Y-113157269D02*
X112918629Y-113538221D01*
X113347201Y-112157269D02*
X113394820Y-112252507D01*
X113394820Y-112252507D02*
X113394820Y-112442983D01*
X113394820Y-112442983D02*
X113347201Y-112538221D01*
X113347201Y-112538221D02*
X113251962Y-112585840D01*
X113251962Y-112585840D02*
X112871010Y-112585840D01*
X112871010Y-112585840D02*
X112775772Y-112538221D01*
X112775772Y-112538221D02*
X112728153Y-112442983D01*
X112728153Y-112442983D02*
X112728153Y-112252507D01*
X112728153Y-112252507D02*
X112775772Y-112157269D01*
X112775772Y-112157269D02*
X112871010Y-112109650D01*
X112871010Y-112109650D02*
X112966248Y-112109650D01*
X112966248Y-112109650D02*
X113061486Y-112585840D01*
X113347201Y-111728697D02*
X113394820Y-111633459D01*
X113394820Y-111633459D02*
X113394820Y-111442983D01*
X113394820Y-111442983D02*
X113347201Y-111347745D01*
X113347201Y-111347745D02*
X113251962Y-111300126D01*
X113251962Y-111300126D02*
X113204343Y-111300126D01*
X113204343Y-111300126D02*
X113109105Y-111347745D01*
X113109105Y-111347745D02*
X113061486Y-111442983D01*
X113061486Y-111442983D02*
X113061486Y-111585840D01*
X113061486Y-111585840D02*
X113013867Y-111681078D01*
X113013867Y-111681078D02*
X112918629Y-111728697D01*
X112918629Y-111728697D02*
X112871010Y-111728697D01*
X112871010Y-111728697D02*
X112775772Y-111681078D01*
X112775772Y-111681078D02*
X112728153Y-111585840D01*
X112728153Y-111585840D02*
X112728153Y-111442983D01*
X112728153Y-111442983D02*
X112775772Y-111347745D01*
X113347201Y-110490602D02*
X113394820Y-110585840D01*
X113394820Y-110585840D02*
X113394820Y-110776316D01*
X113394820Y-110776316D02*
X113347201Y-110871554D01*
X113347201Y-110871554D02*
X113251962Y-110919173D01*
X113251962Y-110919173D02*
X112871010Y-110919173D01*
X112871010Y-110919173D02*
X112775772Y-110871554D01*
X112775772Y-110871554D02*
X112728153Y-110776316D01*
X112728153Y-110776316D02*
X112728153Y-110585840D01*
X112728153Y-110585840D02*
X112775772Y-110490602D01*
X112775772Y-110490602D02*
X112871010Y-110442983D01*
X112871010Y-110442983D02*
X112966248Y-110442983D01*
X112966248Y-110442983D02*
X113061486Y-110919173D01*
X112728153Y-110157268D02*
X112728153Y-109776316D01*
X112394820Y-110014411D02*
X113251962Y-110014411D01*
X113251962Y-110014411D02*
X113347201Y-109966792D01*
X113347201Y-109966792D02*
X113394820Y-109871554D01*
X113394820Y-109871554D02*
X113394820Y-109776316D01*
X93554820Y-106642858D02*
X93078629Y-106976191D01*
X93554820Y-107214286D02*
X92554820Y-107214286D01*
X92554820Y-107214286D02*
X92554820Y-106833334D01*
X92554820Y-106833334D02*
X92602439Y-106738096D01*
X92602439Y-106738096D02*
X92650058Y-106690477D01*
X92650058Y-106690477D02*
X92745296Y-106642858D01*
X92745296Y-106642858D02*
X92888153Y-106642858D01*
X92888153Y-106642858D02*
X92983391Y-106690477D01*
X92983391Y-106690477D02*
X93031010Y-106738096D01*
X93031010Y-106738096D02*
X93078629Y-106833334D01*
X93078629Y-106833334D02*
X93078629Y-107214286D01*
X93554820Y-105690477D02*
X93554820Y-106261905D01*
X93554820Y-105976191D02*
X92554820Y-105976191D01*
X92554820Y-105976191D02*
X92697677Y-106071429D01*
X92697677Y-106071429D02*
X92792915Y-106166667D01*
X92792915Y-106166667D02*
X92840534Y-106261905D01*
X93554820Y-104738096D02*
X93554820Y-105309524D01*
X93554820Y-105023810D02*
X92554820Y-105023810D01*
X92554820Y-105023810D02*
X92697677Y-105119048D01*
X92697677Y-105119048D02*
X92792915Y-105214286D01*
X92792915Y-105214286D02*
X92840534Y-105309524D01*
X118957143Y-108659581D02*
X118909524Y-108707201D01*
X118909524Y-108707201D02*
X118766667Y-108754820D01*
X118766667Y-108754820D02*
X118671429Y-108754820D01*
X118671429Y-108754820D02*
X118528572Y-108707201D01*
X118528572Y-108707201D02*
X118433334Y-108611962D01*
X118433334Y-108611962D02*
X118385715Y-108516724D01*
X118385715Y-108516724D02*
X118338096Y-108326248D01*
X118338096Y-108326248D02*
X118338096Y-108183391D01*
X118338096Y-108183391D02*
X118385715Y-107992915D01*
X118385715Y-107992915D02*
X118433334Y-107897677D01*
X118433334Y-107897677D02*
X118528572Y-107802439D01*
X118528572Y-107802439D02*
X118671429Y-107754820D01*
X118671429Y-107754820D02*
X118766667Y-107754820D01*
X118766667Y-107754820D02*
X118909524Y-107802439D01*
X118909524Y-107802439D02*
X118957143Y-107850058D01*
X119909524Y-108754820D02*
X119338096Y-108754820D01*
X119623810Y-108754820D02*
X119623810Y-107754820D01*
X119623810Y-107754820D02*
X119528572Y-107897677D01*
X119528572Y-107897677D02*
X119433334Y-107992915D01*
X119433334Y-107992915D02*
X119338096Y-108040534D01*
X120290477Y-107850058D02*
X120338096Y-107802439D01*
X120338096Y-107802439D02*
X120433334Y-107754820D01*
X120433334Y-107754820D02*
X120671429Y-107754820D01*
X120671429Y-107754820D02*
X120766667Y-107802439D01*
X120766667Y-107802439D02*
X120814286Y-107850058D01*
X120814286Y-107850058D02*
X120861905Y-107945296D01*
X120861905Y-107945296D02*
X120861905Y-108040534D01*
X120861905Y-108040534D02*
X120814286Y-108183391D01*
X120814286Y-108183391D02*
X120242858Y-108754820D01*
X120242858Y-108754820D02*
X120861905Y-108754820D01*
X117954820Y-99833334D02*
X118669105Y-99833334D01*
X118669105Y-99833334D02*
X118811962Y-99880953D01*
X118811962Y-99880953D02*
X118907201Y-99976191D01*
X118907201Y-99976191D02*
X118954820Y-100119048D01*
X118954820Y-100119048D02*
X118954820Y-100214286D01*
X117954820Y-98928572D02*
X117954820Y-99119048D01*
X117954820Y-99119048D02*
X118002439Y-99214286D01*
X118002439Y-99214286D02*
X118050058Y-99261905D01*
X118050058Y-99261905D02*
X118192915Y-99357143D01*
X118192915Y-99357143D02*
X118383391Y-99404762D01*
X118383391Y-99404762D02*
X118764343Y-99404762D01*
X118764343Y-99404762D02*
X118859581Y-99357143D01*
X118859581Y-99357143D02*
X118907201Y-99309524D01*
X118907201Y-99309524D02*
X118954820Y-99214286D01*
X118954820Y-99214286D02*
X118954820Y-99023810D01*
X118954820Y-99023810D02*
X118907201Y-98928572D01*
X118907201Y-98928572D02*
X118859581Y-98880953D01*
X118859581Y-98880953D02*
X118764343Y-98833334D01*
X118764343Y-98833334D02*
X118526248Y-98833334D01*
X118526248Y-98833334D02*
X118431010Y-98880953D01*
X118431010Y-98880953D02*
X118383391Y-98928572D01*
X118383391Y-98928572D02*
X118335772Y-99023810D01*
X118335772Y-99023810D02*
X118335772Y-99214286D01*
X118335772Y-99214286D02*
X118383391Y-99309524D01*
X118383391Y-99309524D02*
X118431010Y-99357143D01*
X118431010Y-99357143D02*
X118526248Y-99404762D01*
X102759581Y-86266667D02*
X102807201Y-86314286D01*
X102807201Y-86314286D02*
X102854820Y-86457143D01*
X102854820Y-86457143D02*
X102854820Y-86552381D01*
X102854820Y-86552381D02*
X102807201Y-86695238D01*
X102807201Y-86695238D02*
X102711962Y-86790476D01*
X102711962Y-86790476D02*
X102616724Y-86838095D01*
X102616724Y-86838095D02*
X102426248Y-86885714D01*
X102426248Y-86885714D02*
X102283391Y-86885714D01*
X102283391Y-86885714D02*
X102092915Y-86838095D01*
X102092915Y-86838095D02*
X101997677Y-86790476D01*
X101997677Y-86790476D02*
X101902439Y-86695238D01*
X101902439Y-86695238D02*
X101854820Y-86552381D01*
X101854820Y-86552381D02*
X101854820Y-86457143D01*
X101854820Y-86457143D02*
X101902439Y-86314286D01*
X101902439Y-86314286D02*
X101950058Y-86266667D01*
X101854820Y-85933333D02*
X101854820Y-85266667D01*
X101854820Y-85266667D02*
X102854820Y-85695238D01*
X102633334Y-99654820D02*
X102300001Y-99178629D01*
X102061906Y-99654820D02*
X102061906Y-98654820D01*
X102061906Y-98654820D02*
X102442858Y-98654820D01*
X102442858Y-98654820D02*
X102538096Y-98702439D01*
X102538096Y-98702439D02*
X102585715Y-98750058D01*
X102585715Y-98750058D02*
X102633334Y-98845296D01*
X102633334Y-98845296D02*
X102633334Y-98988153D01*
X102633334Y-98988153D02*
X102585715Y-99083391D01*
X102585715Y-99083391D02*
X102538096Y-99131010D01*
X102538096Y-99131010D02*
X102442858Y-99178629D01*
X102442858Y-99178629D02*
X102061906Y-99178629D01*
X103538096Y-98654820D02*
X103061906Y-98654820D01*
X103061906Y-98654820D02*
X103014287Y-99131010D01*
X103014287Y-99131010D02*
X103061906Y-99083391D01*
X103061906Y-99083391D02*
X103157144Y-99035772D01*
X103157144Y-99035772D02*
X103395239Y-99035772D01*
X103395239Y-99035772D02*
X103490477Y-99083391D01*
X103490477Y-99083391D02*
X103538096Y-99131010D01*
X103538096Y-99131010D02*
X103585715Y-99226248D01*
X103585715Y-99226248D02*
X103585715Y-99464343D01*
X103585715Y-99464343D02*
X103538096Y-99559581D01*
X103538096Y-99559581D02*
X103490477Y-99607201D01*
X103490477Y-99607201D02*
X103395239Y-99654820D01*
X103395239Y-99654820D02*
X103157144Y-99654820D01*
X103157144Y-99654820D02*
X103061906Y-99607201D01*
X103061906Y-99607201D02*
X103014287Y-99559581D01*
X97857143Y-109059581D02*
X97809524Y-109107201D01*
X97809524Y-109107201D02*
X97666667Y-109154820D01*
X97666667Y-109154820D02*
X97571429Y-109154820D01*
X97571429Y-109154820D02*
X97428572Y-109107201D01*
X97428572Y-109107201D02*
X97333334Y-109011962D01*
X97333334Y-109011962D02*
X97285715Y-108916724D01*
X97285715Y-108916724D02*
X97238096Y-108726248D01*
X97238096Y-108726248D02*
X97238096Y-108583391D01*
X97238096Y-108583391D02*
X97285715Y-108392915D01*
X97285715Y-108392915D02*
X97333334Y-108297677D01*
X97333334Y-108297677D02*
X97428572Y-108202439D01*
X97428572Y-108202439D02*
X97571429Y-108154820D01*
X97571429Y-108154820D02*
X97666667Y-108154820D01*
X97666667Y-108154820D02*
X97809524Y-108202439D01*
X97809524Y-108202439D02*
X97857143Y-108250058D01*
X98809524Y-109154820D02*
X98238096Y-109154820D01*
X98523810Y-109154820D02*
X98523810Y-108154820D01*
X98523810Y-108154820D02*
X98428572Y-108297677D01*
X98428572Y-108297677D02*
X98333334Y-108392915D01*
X98333334Y-108392915D02*
X98238096Y-108440534D01*
X99142858Y-108154820D02*
X99761905Y-108154820D01*
X99761905Y-108154820D02*
X99428572Y-108535772D01*
X99428572Y-108535772D02*
X99571429Y-108535772D01*
X99571429Y-108535772D02*
X99666667Y-108583391D01*
X99666667Y-108583391D02*
X99714286Y-108631010D01*
X99714286Y-108631010D02*
X99761905Y-108726248D01*
X99761905Y-108726248D02*
X99761905Y-108964343D01*
X99761905Y-108964343D02*
X99714286Y-109059581D01*
X99714286Y-109059581D02*
X99666667Y-109107201D01*
X99666667Y-109107201D02*
X99571429Y-109154820D01*
X99571429Y-109154820D02*
X99285715Y-109154820D01*
X99285715Y-109154820D02*
X99190477Y-109107201D01*
X99190477Y-109107201D02*
X99142858Y-109059581D01*
X110499694Y-88608831D02*
X110499694Y-88676175D01*
X110499694Y-88676175D02*
X110432350Y-88810862D01*
X110432350Y-88810862D02*
X110365007Y-88878205D01*
X110365007Y-88878205D02*
X110230320Y-88945549D01*
X110230320Y-88945549D02*
X110095633Y-88945549D01*
X110095633Y-88945549D02*
X109994618Y-88911877D01*
X109994618Y-88911877D02*
X109826259Y-88810862D01*
X109826259Y-88810862D02*
X109725244Y-88709847D01*
X109725244Y-88709847D02*
X109624228Y-88541488D01*
X109624228Y-88541488D02*
X109590557Y-88440473D01*
X109590557Y-88440473D02*
X109590557Y-88305786D01*
X109590557Y-88305786D02*
X109657900Y-88171099D01*
X109657900Y-88171099D02*
X109725244Y-88103755D01*
X109725244Y-88103755D02*
X109859931Y-88036412D01*
X109859931Y-88036412D02*
X109927274Y-88036412D01*
X111240472Y-88002740D02*
X110836411Y-88406801D01*
X111038442Y-88204770D02*
X110331335Y-87497664D01*
X110331335Y-87497664D02*
X110365007Y-87666022D01*
X110365007Y-87666022D02*
X110365007Y-87800709D01*
X110365007Y-87800709D02*
X110331335Y-87901725D01*
X110971099Y-86857900D02*
X111038442Y-86790557D01*
X111038442Y-86790557D02*
X111139457Y-86756885D01*
X111139457Y-86756885D02*
X111206801Y-86756885D01*
X111206801Y-86756885D02*
X111307816Y-86790557D01*
X111307816Y-86790557D02*
X111476175Y-86891572D01*
X111476175Y-86891572D02*
X111644534Y-87059931D01*
X111644534Y-87059931D02*
X111745549Y-87228289D01*
X111745549Y-87228289D02*
X111779221Y-87329305D01*
X111779221Y-87329305D02*
X111779221Y-87396648D01*
X111779221Y-87396648D02*
X111745549Y-87497663D01*
X111745549Y-87497663D02*
X111678205Y-87565007D01*
X111678205Y-87565007D02*
X111577190Y-87598679D01*
X111577190Y-87598679D02*
X111509847Y-87598679D01*
X111509847Y-87598679D02*
X111408831Y-87565007D01*
X111408831Y-87565007D02*
X111240473Y-87463992D01*
X111240473Y-87463992D02*
X111072114Y-87295633D01*
X111072114Y-87295633D02*
X110971099Y-87127274D01*
X110971099Y-87127274D02*
X110937427Y-87026259D01*
X110937427Y-87026259D02*
X110937427Y-86958915D01*
X110937427Y-86958915D02*
X110971099Y-86857900D01*
X115459581Y-94766667D02*
X115507201Y-94814286D01*
X115507201Y-94814286D02*
X115554820Y-94957143D01*
X115554820Y-94957143D02*
X115554820Y-95052381D01*
X115554820Y-95052381D02*
X115507201Y-95195238D01*
X115507201Y-95195238D02*
X115411962Y-95290476D01*
X115411962Y-95290476D02*
X115316724Y-95338095D01*
X115316724Y-95338095D02*
X115126248Y-95385714D01*
X115126248Y-95385714D02*
X114983391Y-95385714D01*
X114983391Y-95385714D02*
X114792915Y-95338095D01*
X114792915Y-95338095D02*
X114697677Y-95290476D01*
X114697677Y-95290476D02*
X114602439Y-95195238D01*
X114602439Y-95195238D02*
X114554820Y-95052381D01*
X114554820Y-95052381D02*
X114554820Y-94957143D01*
X114554820Y-94957143D02*
X114602439Y-94814286D01*
X114602439Y-94814286D02*
X114650058Y-94766667D01*
X115554820Y-93814286D02*
X115554820Y-94385714D01*
X115554820Y-94100000D02*
X114554820Y-94100000D01*
X114554820Y-94100000D02*
X114697677Y-94195238D01*
X114697677Y-94195238D02*
X114792915Y-94290476D01*
X114792915Y-94290476D02*
X114840534Y-94385714D01*
X99454820Y-104733334D02*
X100169105Y-104733334D01*
X100169105Y-104733334D02*
X100311962Y-104780953D01*
X100311962Y-104780953D02*
X100407201Y-104876191D01*
X100407201Y-104876191D02*
X100454820Y-105019048D01*
X100454820Y-105019048D02*
X100454820Y-105114286D01*
X99454820Y-104352381D02*
X99454820Y-103733334D01*
X99454820Y-103733334D02*
X99835772Y-104066667D01*
X99835772Y-104066667D02*
X99835772Y-103923810D01*
X99835772Y-103923810D02*
X99883391Y-103828572D01*
X99883391Y-103828572D02*
X99931010Y-103780953D01*
X99931010Y-103780953D02*
X100026248Y-103733334D01*
X100026248Y-103733334D02*
X100264343Y-103733334D01*
X100264343Y-103733334D02*
X100359581Y-103780953D01*
X100359581Y-103780953D02*
X100407201Y-103828572D01*
X100407201Y-103828572D02*
X100454820Y-103923810D01*
X100454820Y-103923810D02*
X100454820Y-104209524D01*
X100454820Y-104209524D02*
X100407201Y-104304762D01*
X100407201Y-104304762D02*
X100359581Y-104352381D01*
X92454820Y-86333334D02*
X93169105Y-86333334D01*
X93169105Y-86333334D02*
X93311962Y-86380953D01*
X93311962Y-86380953D02*
X93407201Y-86476191D01*
X93407201Y-86476191D02*
X93454820Y-86619048D01*
X93454820Y-86619048D02*
X93454820Y-86714286D01*
X92883391Y-85714286D02*
X92835772Y-85809524D01*
X92835772Y-85809524D02*
X92788153Y-85857143D01*
X92788153Y-85857143D02*
X92692915Y-85904762D01*
X92692915Y-85904762D02*
X92645296Y-85904762D01*
X92645296Y-85904762D02*
X92550058Y-85857143D01*
X92550058Y-85857143D02*
X92502439Y-85809524D01*
X92502439Y-85809524D02*
X92454820Y-85714286D01*
X92454820Y-85714286D02*
X92454820Y-85523810D01*
X92454820Y-85523810D02*
X92502439Y-85428572D01*
X92502439Y-85428572D02*
X92550058Y-85380953D01*
X92550058Y-85380953D02*
X92645296Y-85333334D01*
X92645296Y-85333334D02*
X92692915Y-85333334D01*
X92692915Y-85333334D02*
X92788153Y-85380953D01*
X92788153Y-85380953D02*
X92835772Y-85428572D01*
X92835772Y-85428572D02*
X92883391Y-85523810D01*
X92883391Y-85523810D02*
X92883391Y-85714286D01*
X92883391Y-85714286D02*
X92931010Y-85809524D01*
X92931010Y-85809524D02*
X92978629Y-85857143D01*
X92978629Y-85857143D02*
X93073867Y-85904762D01*
X93073867Y-85904762D02*
X93264343Y-85904762D01*
X93264343Y-85904762D02*
X93359581Y-85857143D01*
X93359581Y-85857143D02*
X93407201Y-85809524D01*
X93407201Y-85809524D02*
X93454820Y-85714286D01*
X93454820Y-85714286D02*
X93454820Y-85523810D01*
X93454820Y-85523810D02*
X93407201Y-85428572D01*
X93407201Y-85428572D02*
X93359581Y-85380953D01*
X93359581Y-85380953D02*
X93264343Y-85333334D01*
X93264343Y-85333334D02*
X93073867Y-85333334D01*
X93073867Y-85333334D02*
X92978629Y-85380953D01*
X92978629Y-85380953D02*
X92931010Y-85428572D01*
X92931010Y-85428572D02*
X92883391Y-85523810D01*
X115957143Y-107354820D02*
X115623810Y-106878629D01*
X115385715Y-107354820D02*
X115385715Y-106354820D01*
X115385715Y-106354820D02*
X115766667Y-106354820D01*
X115766667Y-106354820D02*
X115861905Y-106402439D01*
X115861905Y-106402439D02*
X115909524Y-106450058D01*
X115909524Y-106450058D02*
X115957143Y-106545296D01*
X115957143Y-106545296D02*
X115957143Y-106688153D01*
X115957143Y-106688153D02*
X115909524Y-106783391D01*
X115909524Y-106783391D02*
X115861905Y-106831010D01*
X115861905Y-106831010D02*
X115766667Y-106878629D01*
X115766667Y-106878629D02*
X115385715Y-106878629D01*
X116909524Y-107354820D02*
X116338096Y-107354820D01*
X116623810Y-107354820D02*
X116623810Y-106354820D01*
X116623810Y-106354820D02*
X116528572Y-106497677D01*
X116528572Y-106497677D02*
X116433334Y-106592915D01*
X116433334Y-106592915D02*
X116338096Y-106640534D01*
X117528572Y-106354820D02*
X117623810Y-106354820D01*
X117623810Y-106354820D02*
X117719048Y-106402439D01*
X117719048Y-106402439D02*
X117766667Y-106450058D01*
X117766667Y-106450058D02*
X117814286Y-106545296D01*
X117814286Y-106545296D02*
X117861905Y-106735772D01*
X117861905Y-106735772D02*
X117861905Y-106973867D01*
X117861905Y-106973867D02*
X117814286Y-107164343D01*
X117814286Y-107164343D02*
X117766667Y-107259581D01*
X117766667Y-107259581D02*
X117719048Y-107307201D01*
X117719048Y-107307201D02*
X117623810Y-107354820D01*
X117623810Y-107354820D02*
X117528572Y-107354820D01*
X117528572Y-107354820D02*
X117433334Y-107307201D01*
X117433334Y-107307201D02*
X117385715Y-107259581D01*
X117385715Y-107259581D02*
X117338096Y-107164343D01*
X117338096Y-107164343D02*
X117290477Y-106973867D01*
X117290477Y-106973867D02*
X117290477Y-106735772D01*
X117290477Y-106735772D02*
X117338096Y-106545296D01*
X117338096Y-106545296D02*
X117385715Y-106450058D01*
X117385715Y-106450058D02*
X117433334Y-106402439D01*
X117433334Y-106402439D02*
X117528572Y-106354820D01*
X106666667Y-110154820D02*
X106666667Y-110869105D01*
X106666667Y-110869105D02*
X106619048Y-111011962D01*
X106619048Y-111011962D02*
X106523810Y-111107201D01*
X106523810Y-111107201D02*
X106380953Y-111154820D01*
X106380953Y-111154820D02*
X106285715Y-111154820D01*
X107571429Y-110488153D02*
X107571429Y-111154820D01*
X107333334Y-110107201D02*
X107095239Y-110821486D01*
X107095239Y-110821486D02*
X107714286Y-110821486D01*
X120054820Y-86333334D02*
X120769105Y-86333334D01*
X120769105Y-86333334D02*
X120911962Y-86380953D01*
X120911962Y-86380953D02*
X121007201Y-86476191D01*
X121007201Y-86476191D02*
X121054820Y-86619048D01*
X121054820Y-86619048D02*
X121054820Y-86714286D01*
X120054820Y-85952381D02*
X120054820Y-85285715D01*
X120054820Y-85285715D02*
X121054820Y-85714286D01*
X99454820Y-99433334D02*
X100169105Y-99433334D01*
X100169105Y-99433334D02*
X100311962Y-99480953D01*
X100311962Y-99480953D02*
X100407201Y-99576191D01*
X100407201Y-99576191D02*
X100454820Y-99719048D01*
X100454820Y-99719048D02*
X100454820Y-99814286D01*
X100454820Y-98433334D02*
X100454820Y-99004762D01*
X100454820Y-98719048D02*
X99454820Y-98719048D01*
X99454820Y-98719048D02*
X99597677Y-98814286D01*
X99597677Y-98814286D02*
X99692915Y-98909524D01*
X99692915Y-98909524D02*
X99740534Y-99004762D01*
X119433334Y-106554820D02*
X118957144Y-106554820D01*
X118957144Y-106554820D02*
X118957144Y-105554820D01*
X120290477Y-106554820D02*
X119719049Y-106554820D01*
X120004763Y-106554820D02*
X120004763Y-105554820D01*
X120004763Y-105554820D02*
X119909525Y-105697677D01*
X119909525Y-105697677D02*
X119814287Y-105792915D01*
X119814287Y-105792915D02*
X119719049Y-105840534D01*
X118754820Y-97166667D02*
X118278629Y-97500000D01*
X118754820Y-97738095D02*
X117754820Y-97738095D01*
X117754820Y-97738095D02*
X117754820Y-97357143D01*
X117754820Y-97357143D02*
X117802439Y-97261905D01*
X117802439Y-97261905D02*
X117850058Y-97214286D01*
X117850058Y-97214286D02*
X117945296Y-97166667D01*
X117945296Y-97166667D02*
X118088153Y-97166667D01*
X118088153Y-97166667D02*
X118183391Y-97214286D01*
X118183391Y-97214286D02*
X118231010Y-97261905D01*
X118231010Y-97261905D02*
X118278629Y-97357143D01*
X118278629Y-97357143D02*
X118278629Y-97738095D01*
X118754820Y-96214286D02*
X118754820Y-96785714D01*
X118754820Y-96500000D02*
X117754820Y-96500000D01*
X117754820Y-96500000D02*
X117897677Y-96595238D01*
X117897677Y-96595238D02*
X117992915Y-96690476D01*
X117992915Y-96690476D02*
X118040534Y-96785714D01*
X112754820Y-98961905D02*
X113564343Y-98961905D01*
X113564343Y-98961905D02*
X113659581Y-98914286D01*
X113659581Y-98914286D02*
X113707201Y-98866667D01*
X113707201Y-98866667D02*
X113754820Y-98771429D01*
X113754820Y-98771429D02*
X113754820Y-98580953D01*
X113754820Y-98580953D02*
X113707201Y-98485715D01*
X113707201Y-98485715D02*
X113659581Y-98438096D01*
X113659581Y-98438096D02*
X113564343Y-98390477D01*
X113564343Y-98390477D02*
X112754820Y-98390477D01*
X113754820Y-97390477D02*
X113754820Y-97961905D01*
X113754820Y-97676191D02*
X112754820Y-97676191D01*
X112754820Y-97676191D02*
X112897677Y-97771429D01*
X112897677Y-97771429D02*
X112992915Y-97866667D01*
X112992915Y-97866667D02*
X113040534Y-97961905D01*
X100454820Y-92266667D02*
X99978629Y-92600000D01*
X100454820Y-92838095D02*
X99454820Y-92838095D01*
X99454820Y-92838095D02*
X99454820Y-92457143D01*
X99454820Y-92457143D02*
X99502439Y-92361905D01*
X99502439Y-92361905D02*
X99550058Y-92314286D01*
X99550058Y-92314286D02*
X99645296Y-92266667D01*
X99645296Y-92266667D02*
X99788153Y-92266667D01*
X99788153Y-92266667D02*
X99883391Y-92314286D01*
X99883391Y-92314286D02*
X99931010Y-92361905D01*
X99931010Y-92361905D02*
X99978629Y-92457143D01*
X99978629Y-92457143D02*
X99978629Y-92838095D01*
X99883391Y-91695238D02*
X99835772Y-91790476D01*
X99835772Y-91790476D02*
X99788153Y-91838095D01*
X99788153Y-91838095D02*
X99692915Y-91885714D01*
X99692915Y-91885714D02*
X99645296Y-91885714D01*
X99645296Y-91885714D02*
X99550058Y-91838095D01*
X99550058Y-91838095D02*
X99502439Y-91790476D01*
X99502439Y-91790476D02*
X99454820Y-91695238D01*
X99454820Y-91695238D02*
X99454820Y-91504762D01*
X99454820Y-91504762D02*
X99502439Y-91409524D01*
X99502439Y-91409524D02*
X99550058Y-91361905D01*
X99550058Y-91361905D02*
X99645296Y-91314286D01*
X99645296Y-91314286D02*
X99692915Y-91314286D01*
X99692915Y-91314286D02*
X99788153Y-91361905D01*
X99788153Y-91361905D02*
X99835772Y-91409524D01*
X99835772Y-91409524D02*
X99883391Y-91504762D01*
X99883391Y-91504762D02*
X99883391Y-91695238D01*
X99883391Y-91695238D02*
X99931010Y-91790476D01*
X99931010Y-91790476D02*
X99978629Y-91838095D01*
X99978629Y-91838095D02*
X100073867Y-91885714D01*
X100073867Y-91885714D02*
X100264343Y-91885714D01*
X100264343Y-91885714D02*
X100359581Y-91838095D01*
X100359581Y-91838095D02*
X100407201Y-91790476D01*
X100407201Y-91790476D02*
X100454820Y-91695238D01*
X100454820Y-91695238D02*
X100454820Y-91504762D01*
X100454820Y-91504762D02*
X100407201Y-91409524D01*
X100407201Y-91409524D02*
X100359581Y-91361905D01*
X100359581Y-91361905D02*
X100264343Y-91314286D01*
X100264343Y-91314286D02*
X100073867Y-91314286D01*
X100073867Y-91314286D02*
X99978629Y-91361905D01*
X99978629Y-91361905D02*
X99931010Y-91409524D01*
X99931010Y-91409524D02*
X99883391Y-91504762D01*
X113133334Y-93554820D02*
X112800001Y-93078629D01*
X112561906Y-93554820D02*
X112561906Y-92554820D01*
X112561906Y-92554820D02*
X112942858Y-92554820D01*
X112942858Y-92554820D02*
X113038096Y-92602439D01*
X113038096Y-92602439D02*
X113085715Y-92650058D01*
X113085715Y-92650058D02*
X113133334Y-92745296D01*
X113133334Y-92745296D02*
X113133334Y-92888153D01*
X113133334Y-92888153D02*
X113085715Y-92983391D01*
X113085715Y-92983391D02*
X113038096Y-93031010D01*
X113038096Y-93031010D02*
X112942858Y-93078629D01*
X112942858Y-93078629D02*
X112561906Y-93078629D01*
X113514287Y-92650058D02*
X113561906Y-92602439D01*
X113561906Y-92602439D02*
X113657144Y-92554820D01*
X113657144Y-92554820D02*
X113895239Y-92554820D01*
X113895239Y-92554820D02*
X113990477Y-92602439D01*
X113990477Y-92602439D02*
X114038096Y-92650058D01*
X114038096Y-92650058D02*
X114085715Y-92745296D01*
X114085715Y-92745296D02*
X114085715Y-92840534D01*
X114085715Y-92840534D02*
X114038096Y-92983391D01*
X114038096Y-92983391D02*
X113466668Y-93554820D01*
X113466668Y-93554820D02*
X114085715Y-93554820D01*
X103754820Y-88166667D02*
X103754820Y-88642857D01*
X103754820Y-88642857D02*
X102754820Y-88642857D01*
X102850058Y-87880952D02*
X102802439Y-87833333D01*
X102802439Y-87833333D02*
X102754820Y-87738095D01*
X102754820Y-87738095D02*
X102754820Y-87500000D01*
X102754820Y-87500000D02*
X102802439Y-87404762D01*
X102802439Y-87404762D02*
X102850058Y-87357143D01*
X102850058Y-87357143D02*
X102945296Y-87309524D01*
X102945296Y-87309524D02*
X103040534Y-87309524D01*
X103040534Y-87309524D02*
X103183391Y-87357143D01*
X103183391Y-87357143D02*
X103754820Y-87928571D01*
X103754820Y-87928571D02*
X103754820Y-87309524D01*
X113833334Y-88954820D02*
X113500001Y-88478629D01*
X113261906Y-88954820D02*
X113261906Y-87954820D01*
X113261906Y-87954820D02*
X113642858Y-87954820D01*
X113642858Y-87954820D02*
X113738096Y-88002439D01*
X113738096Y-88002439D02*
X113785715Y-88050058D01*
X113785715Y-88050058D02*
X113833334Y-88145296D01*
X113833334Y-88145296D02*
X113833334Y-88288153D01*
X113833334Y-88288153D02*
X113785715Y-88383391D01*
X113785715Y-88383391D02*
X113738096Y-88431010D01*
X113738096Y-88431010D02*
X113642858Y-88478629D01*
X113642858Y-88478629D02*
X113261906Y-88478629D01*
X114166668Y-87954820D02*
X114785715Y-87954820D01*
X114785715Y-87954820D02*
X114452382Y-88335772D01*
X114452382Y-88335772D02*
X114595239Y-88335772D01*
X114595239Y-88335772D02*
X114690477Y-88383391D01*
X114690477Y-88383391D02*
X114738096Y-88431010D01*
X114738096Y-88431010D02*
X114785715Y-88526248D01*
X114785715Y-88526248D02*
X114785715Y-88764343D01*
X114785715Y-88764343D02*
X114738096Y-88859581D01*
X114738096Y-88859581D02*
X114690477Y-88907201D01*
X114690477Y-88907201D02*
X114595239Y-88954820D01*
X114595239Y-88954820D02*
X114309525Y-88954820D01*
X114309525Y-88954820D02*
X114214287Y-88907201D01*
X114214287Y-88907201D02*
X114166668Y-88859581D01*
X101804820Y-104163095D02*
X100804820Y-104163095D01*
X100804820Y-104163095D02*
X100804820Y-103925000D01*
X100804820Y-103925000D02*
X100852439Y-103782143D01*
X100852439Y-103782143D02*
X100947677Y-103686905D01*
X100947677Y-103686905D02*
X101042915Y-103639286D01*
X101042915Y-103639286D02*
X101233391Y-103591667D01*
X101233391Y-103591667D02*
X101376248Y-103591667D01*
X101376248Y-103591667D02*
X101566724Y-103639286D01*
X101566724Y-103639286D02*
X101661962Y-103686905D01*
X101661962Y-103686905D02*
X101757201Y-103782143D01*
X101757201Y-103782143D02*
X101804820Y-103925000D01*
X101804820Y-103925000D02*
X101804820Y-104163095D01*
X100900058Y-103210714D02*
X100852439Y-103163095D01*
X100852439Y-103163095D02*
X100804820Y-103067857D01*
X100804820Y-103067857D02*
X100804820Y-102829762D01*
X100804820Y-102829762D02*
X100852439Y-102734524D01*
X100852439Y-102734524D02*
X100900058Y-102686905D01*
X100900058Y-102686905D02*
X100995296Y-102639286D01*
X100995296Y-102639286D02*
X101090534Y-102639286D01*
X101090534Y-102639286D02*
X101233391Y-102686905D01*
X101233391Y-102686905D02*
X101804820Y-103258333D01*
X101804820Y-103258333D02*
X101804820Y-102639286D01*
X105938096Y-99554820D02*
X105938096Y-100364343D01*
X105938096Y-100364343D02*
X105985715Y-100459581D01*
X105985715Y-100459581D02*
X106033334Y-100507201D01*
X106033334Y-100507201D02*
X106128572Y-100554820D01*
X106128572Y-100554820D02*
X106319048Y-100554820D01*
X106319048Y-100554820D02*
X106414286Y-100507201D01*
X106414286Y-100507201D02*
X106461905Y-100459581D01*
X106461905Y-100459581D02*
X106509524Y-100364343D01*
X106509524Y-100364343D02*
X106509524Y-99554820D01*
X106938096Y-99650058D02*
X106985715Y-99602439D01*
X106985715Y-99602439D02*
X107080953Y-99554820D01*
X107080953Y-99554820D02*
X107319048Y-99554820D01*
X107319048Y-99554820D02*
X107414286Y-99602439D01*
X107414286Y-99602439D02*
X107461905Y-99650058D01*
X107461905Y-99650058D02*
X107509524Y-99745296D01*
X107509524Y-99745296D02*
X107509524Y-99840534D01*
X107509524Y-99840534D02*
X107461905Y-99983391D01*
X107461905Y-99983391D02*
X106890477Y-100554820D01*
X106890477Y-100554820D02*
X107509524Y-100554820D01*
X99754820Y-94633334D02*
X100469105Y-94633334D01*
X100469105Y-94633334D02*
X100611962Y-94680953D01*
X100611962Y-94680953D02*
X100707201Y-94776191D01*
X100707201Y-94776191D02*
X100754820Y-94919048D01*
X100754820Y-94919048D02*
X100754820Y-95014286D01*
X99850058Y-94204762D02*
X99802439Y-94157143D01*
X99802439Y-94157143D02*
X99754820Y-94061905D01*
X99754820Y-94061905D02*
X99754820Y-93823810D01*
X99754820Y-93823810D02*
X99802439Y-93728572D01*
X99802439Y-93728572D02*
X99850058Y-93680953D01*
X99850058Y-93680953D02*
X99945296Y-93633334D01*
X99945296Y-93633334D02*
X100040534Y-93633334D01*
X100040534Y-93633334D02*
X100183391Y-93680953D01*
X100183391Y-93680953D02*
X100754820Y-94252381D01*
X100754820Y-94252381D02*
X100754820Y-93633334D01*
X111536412Y-99772114D02*
X111536412Y-99839458D01*
X111536412Y-99839458D02*
X111469068Y-99974145D01*
X111469068Y-99974145D02*
X111401725Y-100041488D01*
X111401725Y-100041488D02*
X111267038Y-100108832D01*
X111267038Y-100108832D02*
X111132351Y-100108832D01*
X111132351Y-100108832D02*
X111031336Y-100075160D01*
X111031336Y-100075160D02*
X110862977Y-99974145D01*
X110862977Y-99974145D02*
X110761962Y-99873130D01*
X110761962Y-99873130D02*
X110660946Y-99704771D01*
X110660946Y-99704771D02*
X110627275Y-99603756D01*
X110627275Y-99603756D02*
X110627275Y-99469069D01*
X110627275Y-99469069D02*
X110694618Y-99334382D01*
X110694618Y-99334382D02*
X110761962Y-99267038D01*
X110761962Y-99267038D02*
X110896649Y-99199695D01*
X110896649Y-99199695D02*
X110963992Y-99199695D01*
X111603755Y-99031336D02*
X111502740Y-99065008D01*
X111502740Y-99065008D02*
X111435397Y-99065008D01*
X111435397Y-99065008D02*
X111334381Y-99031336D01*
X111334381Y-99031336D02*
X111300710Y-98997664D01*
X111300710Y-98997664D02*
X111267038Y-98896649D01*
X111267038Y-98896649D02*
X111267038Y-98829305D01*
X111267038Y-98829305D02*
X111300710Y-98728290D01*
X111300710Y-98728290D02*
X111435397Y-98593603D01*
X111435397Y-98593603D02*
X111536412Y-98559931D01*
X111536412Y-98559931D02*
X111603755Y-98559931D01*
X111603755Y-98559931D02*
X111704771Y-98593603D01*
X111704771Y-98593603D02*
X111738442Y-98627275D01*
X111738442Y-98627275D02*
X111772114Y-98728290D01*
X111772114Y-98728290D02*
X111772114Y-98795634D01*
X111772114Y-98795634D02*
X111738442Y-98896649D01*
X111738442Y-98896649D02*
X111603755Y-99031336D01*
X111603755Y-99031336D02*
X111570084Y-99132351D01*
X111570084Y-99132351D02*
X111570084Y-99199695D01*
X111570084Y-99199695D02*
X111603755Y-99300710D01*
X111603755Y-99300710D02*
X111738442Y-99435397D01*
X111738442Y-99435397D02*
X111839458Y-99469069D01*
X111839458Y-99469069D02*
X111906801Y-99469069D01*
X111906801Y-99469069D02*
X112007816Y-99435397D01*
X112007816Y-99435397D02*
X112142503Y-99300710D01*
X112142503Y-99300710D02*
X112176175Y-99199695D01*
X112176175Y-99199695D02*
X112176175Y-99132351D01*
X112176175Y-99132351D02*
X112142503Y-99031336D01*
X112142503Y-99031336D02*
X112007816Y-98896649D01*
X112007816Y-98896649D02*
X111906801Y-98862977D01*
X111906801Y-98862977D02*
X111839458Y-98862977D01*
X111839458Y-98862977D02*
X111738442Y-98896649D01*
X105458334Y-90909581D02*
X105410715Y-90957201D01*
X105410715Y-90957201D02*
X105267858Y-91004820D01*
X105267858Y-91004820D02*
X105172620Y-91004820D01*
X105172620Y-91004820D02*
X105029763Y-90957201D01*
X105029763Y-90957201D02*
X104934525Y-90861962D01*
X104934525Y-90861962D02*
X104886906Y-90766724D01*
X104886906Y-90766724D02*
X104839287Y-90576248D01*
X104839287Y-90576248D02*
X104839287Y-90433391D01*
X104839287Y-90433391D02*
X104886906Y-90242915D01*
X104886906Y-90242915D02*
X104934525Y-90147677D01*
X104934525Y-90147677D02*
X105029763Y-90052439D01*
X105029763Y-90052439D02*
X105172620Y-90004820D01*
X105172620Y-90004820D02*
X105267858Y-90004820D01*
X105267858Y-90004820D02*
X105410715Y-90052439D01*
X105410715Y-90052439D02*
X105458334Y-90100058D01*
X105934525Y-91004820D02*
X106125001Y-91004820D01*
X106125001Y-91004820D02*
X106220239Y-90957201D01*
X106220239Y-90957201D02*
X106267858Y-90909581D01*
X106267858Y-90909581D02*
X106363096Y-90766724D01*
X106363096Y-90766724D02*
X106410715Y-90576248D01*
X106410715Y-90576248D02*
X106410715Y-90195296D01*
X106410715Y-90195296D02*
X106363096Y-90100058D01*
X106363096Y-90100058D02*
X106315477Y-90052439D01*
X106315477Y-90052439D02*
X106220239Y-90004820D01*
X106220239Y-90004820D02*
X106029763Y-90004820D01*
X106029763Y-90004820D02*
X105934525Y-90052439D01*
X105934525Y-90052439D02*
X105886906Y-90100058D01*
X105886906Y-90100058D02*
X105839287Y-90195296D01*
X105839287Y-90195296D02*
X105839287Y-90433391D01*
X105839287Y-90433391D02*
X105886906Y-90528629D01*
X105886906Y-90528629D02*
X105934525Y-90576248D01*
X105934525Y-90576248D02*
X106029763Y-90623867D01*
X106029763Y-90623867D02*
X106220239Y-90623867D01*
X106220239Y-90623867D02*
X106315477Y-90576248D01*
X106315477Y-90576248D02*
X106363096Y-90528629D01*
X106363096Y-90528629D02*
X106410715Y-90433391D01*
X109461906Y-101354820D02*
X109461906Y-100354820D01*
X109461906Y-100354820D02*
X109700001Y-100354820D01*
X109700001Y-100354820D02*
X109842858Y-100402439D01*
X109842858Y-100402439D02*
X109938096Y-100497677D01*
X109938096Y-100497677D02*
X109985715Y-100592915D01*
X109985715Y-100592915D02*
X110033334Y-100783391D01*
X110033334Y-100783391D02*
X110033334Y-100926248D01*
X110033334Y-100926248D02*
X109985715Y-101116724D01*
X109985715Y-101116724D02*
X109938096Y-101211962D01*
X109938096Y-101211962D02*
X109842858Y-101307201D01*
X109842858Y-101307201D02*
X109700001Y-101354820D01*
X109700001Y-101354820D02*
X109461906Y-101354820D01*
X110985715Y-101354820D02*
X110414287Y-101354820D01*
X110700001Y-101354820D02*
X110700001Y-100354820D01*
X110700001Y-100354820D02*
X110604763Y-100497677D01*
X110604763Y-100497677D02*
X110509525Y-100592915D01*
X110509525Y-100592915D02*
X110414287Y-100640534D01*
X100560544Y-98203756D02*
X100661559Y-97631337D01*
X100156483Y-97799695D02*
X100863590Y-97092589D01*
X100863590Y-97092589D02*
X101132964Y-97361963D01*
X101132964Y-97361963D02*
X101166636Y-97462978D01*
X101166636Y-97462978D02*
X101166636Y-97530321D01*
X101166636Y-97530321D02*
X101132964Y-97631337D01*
X101132964Y-97631337D02*
X101031949Y-97732352D01*
X101031949Y-97732352D02*
X100930933Y-97766024D01*
X100930933Y-97766024D02*
X100863590Y-97766024D01*
X100863590Y-97766024D02*
X100762575Y-97732352D01*
X100762575Y-97732352D02*
X100493201Y-97462978D01*
X100897262Y-98540474D02*
X101031949Y-98675161D01*
X101031949Y-98675161D02*
X101132964Y-98708833D01*
X101132964Y-98708833D02*
X101200307Y-98708833D01*
X101200307Y-98708833D02*
X101368666Y-98675161D01*
X101368666Y-98675161D02*
X101537025Y-98574146D01*
X101537025Y-98574146D02*
X101806399Y-98304772D01*
X101806399Y-98304772D02*
X101840071Y-98203756D01*
X101840071Y-98203756D02*
X101840071Y-98136413D01*
X101840071Y-98136413D02*
X101806399Y-98035398D01*
X101806399Y-98035398D02*
X101671712Y-97900711D01*
X101671712Y-97900711D02*
X101570697Y-97867039D01*
X101570697Y-97867039D02*
X101503353Y-97867039D01*
X101503353Y-97867039D02*
X101402338Y-97900711D01*
X101402338Y-97900711D02*
X101233979Y-98069069D01*
X101233979Y-98069069D02*
X101200307Y-98170085D01*
X101200307Y-98170085D02*
X101200307Y-98237428D01*
X101200307Y-98237428D02*
X101233979Y-98338443D01*
X101233979Y-98338443D02*
X101368666Y-98473130D01*
X101368666Y-98473130D02*
X101469681Y-98506802D01*
X101469681Y-98506802D02*
X101537025Y-98506802D01*
X101537025Y-98506802D02*
X101638040Y-98473130D01*
X109391170Y-90499693D02*
X109323826Y-90499693D01*
X109323826Y-90499693D02*
X109189139Y-90432349D01*
X109189139Y-90432349D02*
X109121796Y-90365006D01*
X109121796Y-90365006D02*
X109054452Y-90230319D01*
X109054452Y-90230319D02*
X109054452Y-90095632D01*
X109054452Y-90095632D02*
X109088124Y-89994617D01*
X109088124Y-89994617D02*
X109189139Y-89826258D01*
X109189139Y-89826258D02*
X109290154Y-89725243D01*
X109290154Y-89725243D02*
X109458513Y-89624227D01*
X109458513Y-89624227D02*
X109559528Y-89590556D01*
X109559528Y-89590556D02*
X109694215Y-89590556D01*
X109694215Y-89590556D02*
X109828902Y-89657899D01*
X109828902Y-89657899D02*
X109896246Y-89725243D01*
X109896246Y-89725243D02*
X109963589Y-89859930D01*
X109963589Y-89859930D02*
X109963589Y-89927273D01*
X109997261Y-91240471D02*
X109593200Y-90836410D01*
X109795231Y-91038441D02*
X110502337Y-90331334D01*
X110502337Y-90331334D02*
X110333979Y-90365006D01*
X110333979Y-90365006D02*
X110199292Y-90365006D01*
X110199292Y-90365006D02*
X110098276Y-90331334D01*
X110670696Y-91913907D02*
X110266635Y-91509846D01*
X110468666Y-91711876D02*
X111175773Y-91004769D01*
X111175773Y-91004769D02*
X111007414Y-91038441D01*
X111007414Y-91038441D02*
X110872727Y-91038441D01*
X110872727Y-91038441D02*
X110771712Y-91004769D01*
X114054820Y-104366667D02*
X113578629Y-104700000D01*
X114054820Y-104938095D02*
X113054820Y-104938095D01*
X113054820Y-104938095D02*
X113054820Y-104557143D01*
X113054820Y-104557143D02*
X113102439Y-104461905D01*
X113102439Y-104461905D02*
X113150058Y-104414286D01*
X113150058Y-104414286D02*
X113245296Y-104366667D01*
X113245296Y-104366667D02*
X113388153Y-104366667D01*
X113388153Y-104366667D02*
X113483391Y-104414286D01*
X113483391Y-104414286D02*
X113531010Y-104461905D01*
X113531010Y-104461905D02*
X113578629Y-104557143D01*
X113578629Y-104557143D02*
X113578629Y-104938095D01*
X113388153Y-103509524D02*
X114054820Y-103509524D01*
X113007201Y-103747619D02*
X113721486Y-103985714D01*
X113721486Y-103985714D02*
X113721486Y-103366667D01*
X107733334Y-87859581D02*
X107685715Y-87907201D01*
X107685715Y-87907201D02*
X107542858Y-87954820D01*
X107542858Y-87954820D02*
X107447620Y-87954820D01*
X107447620Y-87954820D02*
X107304763Y-87907201D01*
X107304763Y-87907201D02*
X107209525Y-87811962D01*
X107209525Y-87811962D02*
X107161906Y-87716724D01*
X107161906Y-87716724D02*
X107114287Y-87526248D01*
X107114287Y-87526248D02*
X107114287Y-87383391D01*
X107114287Y-87383391D02*
X107161906Y-87192915D01*
X107161906Y-87192915D02*
X107209525Y-87097677D01*
X107209525Y-87097677D02*
X107304763Y-87002439D01*
X107304763Y-87002439D02*
X107447620Y-86954820D01*
X107447620Y-86954820D02*
X107542858Y-86954820D01*
X107542858Y-86954820D02*
X107685715Y-87002439D01*
X107685715Y-87002439D02*
X107733334Y-87050058D01*
X108590477Y-86954820D02*
X108400001Y-86954820D01*
X108400001Y-86954820D02*
X108304763Y-87002439D01*
X108304763Y-87002439D02*
X108257144Y-87050058D01*
X108257144Y-87050058D02*
X108161906Y-87192915D01*
X108161906Y-87192915D02*
X108114287Y-87383391D01*
X108114287Y-87383391D02*
X108114287Y-87764343D01*
X108114287Y-87764343D02*
X108161906Y-87859581D01*
X108161906Y-87859581D02*
X108209525Y-87907201D01*
X108209525Y-87907201D02*
X108304763Y-87954820D01*
X108304763Y-87954820D02*
X108495239Y-87954820D01*
X108495239Y-87954820D02*
X108590477Y-87907201D01*
X108590477Y-87907201D02*
X108638096Y-87859581D01*
X108638096Y-87859581D02*
X108685715Y-87764343D01*
X108685715Y-87764343D02*
X108685715Y-87526248D01*
X108685715Y-87526248D02*
X108638096Y-87431010D01*
X108638096Y-87431010D02*
X108590477Y-87383391D01*
X108590477Y-87383391D02*
X108495239Y-87335772D01*
X108495239Y-87335772D02*
X108304763Y-87335772D01*
X108304763Y-87335772D02*
X108209525Y-87383391D01*
X108209525Y-87383391D02*
X108161906Y-87431010D01*
X108161906Y-87431010D02*
X108114287Y-87526248D01*
X110738096Y-93954819D02*
X110738096Y-94764342D01*
X110738096Y-94764342D02*
X110785715Y-94859580D01*
X110785715Y-94859580D02*
X110833334Y-94907200D01*
X110833334Y-94907200D02*
X110928572Y-94954819D01*
X110928572Y-94954819D02*
X111119048Y-94954819D01*
X111119048Y-94954819D02*
X111214286Y-94907200D01*
X111214286Y-94907200D02*
X111261905Y-94859580D01*
X111261905Y-94859580D02*
X111309524Y-94764342D01*
X111309524Y-94764342D02*
X111309524Y-93954819D01*
X111690477Y-93954819D02*
X112309524Y-93954819D01*
X112309524Y-93954819D02*
X111976191Y-94335771D01*
X111976191Y-94335771D02*
X112119048Y-94335771D01*
X112119048Y-94335771D02*
X112214286Y-94383390D01*
X112214286Y-94383390D02*
X112261905Y-94431009D01*
X112261905Y-94431009D02*
X112309524Y-94526247D01*
X112309524Y-94526247D02*
X112309524Y-94764342D01*
X112309524Y-94764342D02*
X112261905Y-94859580D01*
X112261905Y-94859580D02*
X112214286Y-94907200D01*
X112214286Y-94907200D02*
X112119048Y-94954819D01*
X112119048Y-94954819D02*
X111833334Y-94954819D01*
X111833334Y-94954819D02*
X111738096Y-94907200D01*
X111738096Y-94907200D02*
X111690477Y-94859580D01*
X116859581Y-88166667D02*
X116907201Y-88214286D01*
X116907201Y-88214286D02*
X116954820Y-88357143D01*
X116954820Y-88357143D02*
X116954820Y-88452381D01*
X116954820Y-88452381D02*
X116907201Y-88595238D01*
X116907201Y-88595238D02*
X116811962Y-88690476D01*
X116811962Y-88690476D02*
X116716724Y-88738095D01*
X116716724Y-88738095D02*
X116526248Y-88785714D01*
X116526248Y-88785714D02*
X116383391Y-88785714D01*
X116383391Y-88785714D02*
X116192915Y-88738095D01*
X116192915Y-88738095D02*
X116097677Y-88690476D01*
X116097677Y-88690476D02*
X116002439Y-88595238D01*
X116002439Y-88595238D02*
X115954820Y-88452381D01*
X115954820Y-88452381D02*
X115954820Y-88357143D01*
X115954820Y-88357143D02*
X116002439Y-88214286D01*
X116002439Y-88214286D02*
X116050058Y-88166667D01*
X115954820Y-87261905D02*
X115954820Y-87738095D01*
X115954820Y-87738095D02*
X116431010Y-87785714D01*
X116431010Y-87785714D02*
X116383391Y-87738095D01*
X116383391Y-87738095D02*
X116335772Y-87642857D01*
X116335772Y-87642857D02*
X116335772Y-87404762D01*
X116335772Y-87404762D02*
X116383391Y-87309524D01*
X116383391Y-87309524D02*
X116431010Y-87261905D01*
X116431010Y-87261905D02*
X116526248Y-87214286D01*
X116526248Y-87214286D02*
X116764343Y-87214286D01*
X116764343Y-87214286D02*
X116859581Y-87261905D01*
X116859581Y-87261905D02*
X116907201Y-87309524D01*
X116907201Y-87309524D02*
X116954820Y-87404762D01*
X116954820Y-87404762D02*
X116954820Y-87642857D01*
X116954820Y-87642857D02*
X116907201Y-87738095D01*
X116907201Y-87738095D02*
X116859581Y-87785714D01*
X114259581Y-101766667D02*
X114307201Y-101814286D01*
X114307201Y-101814286D02*
X114354820Y-101957143D01*
X114354820Y-101957143D02*
X114354820Y-102052381D01*
X114354820Y-102052381D02*
X114307201Y-102195238D01*
X114307201Y-102195238D02*
X114211962Y-102290476D01*
X114211962Y-102290476D02*
X114116724Y-102338095D01*
X114116724Y-102338095D02*
X113926248Y-102385714D01*
X113926248Y-102385714D02*
X113783391Y-102385714D01*
X113783391Y-102385714D02*
X113592915Y-102338095D01*
X113592915Y-102338095D02*
X113497677Y-102290476D01*
X113497677Y-102290476D02*
X113402439Y-102195238D01*
X113402439Y-102195238D02*
X113354820Y-102052381D01*
X113354820Y-102052381D02*
X113354820Y-101957143D01*
X113354820Y-101957143D02*
X113402439Y-101814286D01*
X113402439Y-101814286D02*
X113450058Y-101766667D01*
X113450058Y-101385714D02*
X113402439Y-101338095D01*
X113402439Y-101338095D02*
X113354820Y-101242857D01*
X113354820Y-101242857D02*
X113354820Y-101004762D01*
X113354820Y-101004762D02*
X113402439Y-100909524D01*
X113402439Y-100909524D02*
X113450058Y-100861905D01*
X113450058Y-100861905D02*
X113545296Y-100814286D01*
X113545296Y-100814286D02*
X113640534Y-100814286D01*
X113640534Y-100814286D02*
X113783391Y-100861905D01*
X113783391Y-100861905D02*
X114354820Y-101433333D01*
X114354820Y-101433333D02*
X114354820Y-100814286D01*
X116433334Y-105359581D02*
X116385715Y-105407201D01*
X116385715Y-105407201D02*
X116242858Y-105454820D01*
X116242858Y-105454820D02*
X116147620Y-105454820D01*
X116147620Y-105454820D02*
X116004763Y-105407201D01*
X116004763Y-105407201D02*
X115909525Y-105311962D01*
X115909525Y-105311962D02*
X115861906Y-105216724D01*
X115861906Y-105216724D02*
X115814287Y-105026248D01*
X115814287Y-105026248D02*
X115814287Y-104883391D01*
X115814287Y-104883391D02*
X115861906Y-104692915D01*
X115861906Y-104692915D02*
X115909525Y-104597677D01*
X115909525Y-104597677D02*
X116004763Y-104502439D01*
X116004763Y-104502439D02*
X116147620Y-104454820D01*
X116147620Y-104454820D02*
X116242858Y-104454820D01*
X116242858Y-104454820D02*
X116385715Y-104502439D01*
X116385715Y-104502439D02*
X116433334Y-104550058D01*
X116766668Y-104454820D02*
X117385715Y-104454820D01*
X117385715Y-104454820D02*
X117052382Y-104835772D01*
X117052382Y-104835772D02*
X117195239Y-104835772D01*
X117195239Y-104835772D02*
X117290477Y-104883391D01*
X117290477Y-104883391D02*
X117338096Y-104931010D01*
X117338096Y-104931010D02*
X117385715Y-105026248D01*
X117385715Y-105026248D02*
X117385715Y-105264343D01*
X117385715Y-105264343D02*
X117338096Y-105359581D01*
X117338096Y-105359581D02*
X117290477Y-105407201D01*
X117290477Y-105407201D02*
X117195239Y-105454820D01*
X117195239Y-105454820D02*
X116909525Y-105454820D01*
X116909525Y-105454820D02*
X116814287Y-105407201D01*
X116814287Y-105407201D02*
X116766668Y-105359581D01*
X118559581Y-88166667D02*
X118607201Y-88214286D01*
X118607201Y-88214286D02*
X118654820Y-88357143D01*
X118654820Y-88357143D02*
X118654820Y-88452381D01*
X118654820Y-88452381D02*
X118607201Y-88595238D01*
X118607201Y-88595238D02*
X118511962Y-88690476D01*
X118511962Y-88690476D02*
X118416724Y-88738095D01*
X118416724Y-88738095D02*
X118226248Y-88785714D01*
X118226248Y-88785714D02*
X118083391Y-88785714D01*
X118083391Y-88785714D02*
X117892915Y-88738095D01*
X117892915Y-88738095D02*
X117797677Y-88690476D01*
X117797677Y-88690476D02*
X117702439Y-88595238D01*
X117702439Y-88595238D02*
X117654820Y-88452381D01*
X117654820Y-88452381D02*
X117654820Y-88357143D01*
X117654820Y-88357143D02*
X117702439Y-88214286D01*
X117702439Y-88214286D02*
X117750058Y-88166667D01*
X117988153Y-87309524D02*
X118654820Y-87309524D01*
X117607201Y-87547619D02*
X118321486Y-87785714D01*
X118321486Y-87785714D02*
X118321486Y-87166667D01*
D13*
X93977501Y-105795277D02*
X93977501Y-106304725D01*
X95022501Y-105795277D02*
X95022501Y-106304725D01*
X116153734Y-107790001D02*
X116446268Y-107790001D01*
X116153734Y-108810001D02*
X116446268Y-108810001D01*
X119240001Y-87840001D02*
X120300001Y-87840001D01*
X119240001Y-88900001D02*
X119240001Y-87840001D01*
X119240001Y-89900001D02*
X119240001Y-99960001D01*
X119240001Y-89900001D02*
X121360001Y-89900001D01*
X119240001Y-99960001D02*
X121360001Y-99960001D01*
X121360001Y-89900001D02*
X121360001Y-99960001D01*
X104683768Y-85190001D02*
X104391234Y-85190001D01*
X104683768Y-86210001D02*
X104391234Y-86210001D01*
X102270277Y-100002501D02*
X102779725Y-100002501D01*
X102270277Y-101047501D02*
X102779725Y-101047501D01*
X95228734Y-108115001D02*
X95521268Y-108115001D01*
X95228734Y-109135001D02*
X95521268Y-109135001D01*
X111110950Y-88567803D02*
X111317803Y-88360950D01*
X111832199Y-89289052D02*
X112039052Y-89082199D01*
X116015001Y-94671268D02*
X116015001Y-94378734D01*
X117035001Y-94671268D02*
X117035001Y-94378734D01*
X95790001Y-101640001D02*
X95790001Y-107360001D01*
X95790001Y-107360001D02*
X99210001Y-107360001D01*
X96300001Y-102150001D02*
X96300001Y-104500001D01*
X96300001Y-106850001D02*
X96300001Y-104500001D01*
X97150001Y-101950001D02*
X97150001Y-102150001D01*
X97150001Y-102150001D02*
X96300001Y-102150001D01*
X97150001Y-106850001D02*
X96300001Y-106850001D01*
X97150001Y-107050001D02*
X97150001Y-106850001D01*
X97950001Y-101950001D02*
X97150001Y-101950001D01*
X97950001Y-102150001D02*
X97950001Y-101950001D01*
X97950001Y-106850001D02*
X97950001Y-107050001D01*
X97950001Y-107050001D02*
X97150001Y-107050001D01*
X98700001Y-102150001D02*
X97950001Y-102150001D01*
X98700001Y-104500001D02*
X98700001Y-102150001D01*
X98700001Y-104500001D02*
X98700001Y-106850001D01*
X98700001Y-106850001D02*
X97950001Y-106850001D01*
X99210001Y-101640001D02*
X95790001Y-101640001D01*
X99210001Y-107360001D02*
X99210001Y-101640001D01*
X99500001Y-107650001D02*
X98500001Y-107650001D01*
X99500001Y-107650001D02*
X99500001Y-106650001D01*
X94240001Y-86960001D02*
X94240001Y-85900001D01*
X95300001Y-86960001D02*
X94240001Y-86960001D01*
X96300001Y-84840001D02*
X100360001Y-84840001D01*
X96300001Y-86960001D02*
X96300001Y-84840001D01*
X96300001Y-86960001D02*
X100360001Y-86960001D01*
X100360001Y-86960001D02*
X100360001Y-84840001D01*
X113177501Y-108054725D02*
X113177501Y-107545277D01*
X114222501Y-108054725D02*
X114222501Y-107545277D01*
X102330001Y-109430001D02*
X102330001Y-111230001D01*
X102330001Y-114940001D02*
X102330001Y-113480001D01*
X111270001Y-109430001D02*
X111270001Y-111230001D01*
X111270001Y-114940001D02*
X102330001Y-114940001D01*
X111270001Y-114940001D02*
X111270001Y-113480001D01*
X113240001Y-84840001D02*
X113240001Y-86960001D01*
X117300001Y-84840001D02*
X113240001Y-84840001D01*
X117300001Y-84840001D02*
X117300001Y-86960001D01*
X117300001Y-86960001D02*
X113240001Y-86960001D01*
X118300001Y-84840001D02*
X119360001Y-84840001D01*
X119360001Y-84840001D02*
X119360001Y-85900001D01*
X95790001Y-95140001D02*
X95790001Y-100860001D01*
X95790001Y-100860001D02*
X99210001Y-100860001D01*
X96300001Y-95650001D02*
X96300001Y-98000001D01*
X96300001Y-100350001D02*
X96300001Y-98000001D01*
X97150001Y-95450001D02*
X97150001Y-95650001D01*
X97150001Y-95650001D02*
X96300001Y-95650001D01*
X97150001Y-100350001D02*
X96300001Y-100350001D01*
X97150001Y-100550001D02*
X97150001Y-100350001D01*
X97950001Y-95450001D02*
X97150001Y-95450001D01*
X97950001Y-95650001D02*
X97950001Y-95450001D01*
X97950001Y-100350001D02*
X97950001Y-100550001D01*
X97950001Y-100550001D02*
X97150001Y-100550001D01*
X98700001Y-95650001D02*
X97950001Y-95650001D01*
X98700001Y-98000001D02*
X98700001Y-95650001D01*
X98700001Y-98000001D02*
X98700001Y-100350001D01*
X98700001Y-100350001D02*
X97950001Y-100350001D01*
X99210001Y-95140001D02*
X95790001Y-95140001D01*
X99210001Y-100860001D02*
X99210001Y-95140001D01*
X99500001Y-101150001D02*
X98500001Y-101150001D01*
X99500001Y-101150001D02*
X99500001Y-100150001D01*
X118390001Y-103761253D02*
X118390001Y-103238749D01*
X120610001Y-103761253D02*
X120610001Y-103238749D01*
X117477501Y-94270277D02*
X117477501Y-94779725D01*
X118522501Y-94270277D02*
X118522501Y-94779725D01*
X113990001Y-98437501D02*
X113990001Y-97637501D01*
X113990001Y-98437501D02*
X113990001Y-99237501D01*
X117110001Y-98437501D02*
X117110001Y-97637501D01*
X117110001Y-98437501D02*
X117110001Y-99237501D01*
X117390001Y-97377501D02*
X117060001Y-97137501D01*
X117390001Y-96897501D01*
X117390001Y-97377501D01*
G36*
X117390001Y-97377501D02*
G01*
X117060001Y-97137501D01*
X117390001Y-96897501D01*
X117390001Y-97377501D01*
G37*
X103800001Y-84060001D02*
X110510001Y-84060001D01*
X110510001Y-81340001D02*
X103800001Y-81340001D01*
X110510001Y-84060001D02*
X110510001Y-81340001D01*
X92240001Y-87840001D02*
X93300001Y-87840001D01*
X92240001Y-88900001D02*
X92240001Y-87840001D01*
X92240001Y-89900001D02*
X92240001Y-99960001D01*
X92240001Y-89900001D02*
X94360001Y-89900001D01*
X92240001Y-99960001D02*
X94360001Y-99960001D01*
X94360001Y-89900001D02*
X94360001Y-99960001D01*
X101795277Y-91902501D02*
X102304725Y-91902501D01*
X101795277Y-92947501D02*
X102304725Y-92947501D01*
X114304725Y-91152501D02*
X113795277Y-91152501D01*
X114304725Y-92197501D02*
X113795277Y-92197501D01*
D10*
X114550001Y-111350001D02*
X114550001Y-112050001D01*
X114700001Y-109950001D02*
X118900001Y-109950001D01*
X118900001Y-113450001D02*
X114700001Y-113450001D01*
X119050001Y-111350001D02*
X119050001Y-112050001D01*
X117651470Y-111700001D02*
G75*
G02*
X115948532Y-111700001I-851469J0D01*
G01*
X115948532Y-111700001D02*
G75*
G02*
X117651470Y-111700001I851469J0D01*
G01*
D13*
X104990001Y-88162780D02*
X104990001Y-87837222D01*
X106010001Y-88162780D02*
X106010001Y-87837222D01*
X114304725Y-89352501D02*
X113795277Y-89352501D01*
X114304725Y-90397501D02*
X113795277Y-90397501D01*
X102290001Y-102350001D02*
X102290001Y-105210001D01*
X102290001Y-105210001D02*
X104210001Y-105210001D01*
X104210001Y-105210001D02*
X104210001Y-102350001D01*
X105240001Y-103200001D02*
X105240001Y-102400001D01*
X105240001Y-103200001D02*
X105240001Y-104000001D01*
X108360001Y-103200001D02*
X108360001Y-102400001D01*
X108360001Y-103200001D02*
X108360001Y-104000001D01*
X108640001Y-102140001D02*
X108310001Y-101900001D01*
X108640001Y-101660001D01*
X108640001Y-102140001D01*
G36*
X108640001Y-102140001D02*
G01*
X108310001Y-101900001D01*
X108640001Y-101660001D01*
X108640001Y-102140001D01*
G37*
X95790001Y-88640001D02*
X95790001Y-94360001D01*
X95790001Y-94360001D02*
X99210001Y-94360001D01*
X96300001Y-89150001D02*
X96300001Y-91500001D01*
X96300001Y-93850001D02*
X96300001Y-91500001D01*
X97150001Y-88950001D02*
X97150001Y-89150001D01*
X97150001Y-89150001D02*
X96300001Y-89150001D01*
X97150001Y-93850001D02*
X96300001Y-93850001D01*
X97150001Y-94050001D02*
X97150001Y-93850001D01*
X97950001Y-88950001D02*
X97150001Y-88950001D01*
X97950001Y-89150001D02*
X97950001Y-88950001D01*
X97950001Y-93850001D02*
X97950001Y-94050001D01*
X97950001Y-94050001D02*
X97150001Y-94050001D01*
X98700001Y-89150001D02*
X97950001Y-89150001D01*
X98700001Y-91500001D02*
X98700001Y-89150001D01*
X98700001Y-91500001D02*
X98700001Y-93850001D01*
X98700001Y-93850001D02*
X97950001Y-93850001D01*
X99210001Y-88640001D02*
X95790001Y-88640001D01*
X99210001Y-94360001D02*
X99210001Y-88640001D01*
X99500001Y-94650001D02*
X98500001Y-94650001D01*
X99500001Y-94650001D02*
X99500001Y-93650001D01*
X109910950Y-98092803D02*
X110117803Y-97885950D01*
X110632199Y-98814052D02*
X110839052Y-98607199D01*
X102396268Y-90140001D02*
X102103734Y-90140001D01*
X102396268Y-91160001D02*
X102103734Y-91160001D01*
X109240001Y-102375001D02*
X109240001Y-105235001D01*
X109240001Y-105235001D02*
X111160001Y-105235001D01*
X111160001Y-105235001D02*
X111160001Y-102375001D01*
X101475421Y-97214347D02*
X101835655Y-97574581D01*
X102214347Y-96475421D02*
X102574581Y-96835655D01*
X108685950Y-91932199D02*
X108892803Y-92139052D01*
X109407199Y-91210950D02*
X109614052Y-91417803D01*
X111677501Y-103345277D02*
X111677501Y-103854725D01*
X112722501Y-103345277D02*
X112722501Y-103854725D01*
X107753734Y-88290001D02*
X108046268Y-88290001D01*
X107753734Y-89310001D02*
X108046268Y-89310001D01*
X103030195Y-94821292D02*
X103366070Y-94485416D01*
X103366070Y-95157168D02*
X103030195Y-94821292D01*
X106385416Y-91466070D02*
X106551586Y-91299900D01*
X106385416Y-98176514D02*
X106721292Y-98512389D01*
X106721292Y-98512389D02*
X107057168Y-98176514D01*
X107057168Y-91466070D02*
X106933424Y-91342327D01*
X110076514Y-94485416D02*
X110412389Y-94821292D01*
X110412389Y-94821292D02*
X110076514Y-95157168D01*
X107124343Y-91066555D02*
X106721292Y-91130195D01*
X106784932Y-90727144D01*
X107124343Y-91066555D01*
G36*
X107124343Y-91066555D02*
G01*
X106721292Y-91130195D01*
X106784932Y-90727144D01*
X107124343Y-91066555D01*
G37*
X115940001Y-90503734D02*
X115940001Y-90796268D01*
X116960001Y-90503734D02*
X116960001Y-90796268D01*
X116321268Y-101640001D02*
X116028734Y-101640001D01*
X116321268Y-102660001D02*
X116028734Y-102660001D01*
X116321268Y-103115001D02*
X116028734Y-103115001D01*
X116321268Y-104135001D02*
X116028734Y-104135001D01*
X117540001Y-90503734D02*
X117540001Y-90796268D01*
X118560001Y-90503734D02*
X118560001Y-90796268D01*
D10*
X94550001Y-111175001D02*
X94550001Y-111875001D01*
X94700001Y-109775001D02*
X98900001Y-109775001D01*
X98900001Y-113275001D02*
X94700001Y-113275001D01*
X99050001Y-111175001D02*
X99050001Y-111875001D01*
X97651470Y-111525001D02*
G75*
G02*
X95948532Y-111525001I-851469J0D01*
G01*
X95948532Y-111525001D02*
G75*
G02*
X97651470Y-111525001I851469J0D01*
G01*
%LPC*%
D14*
X94500001Y-105137501D03*
X94500001Y-106962501D03*
D15*
X115437501Y-108300001D03*
X117162501Y-108300001D03*
D16*
X120300001Y-88900001D03*
D17*
X120300001Y-90900001D03*
X120300001Y-92900001D03*
X120300001Y-94900001D03*
X120300001Y-96900001D03*
X120300001Y-98900001D03*
D18*
X105400001Y-85700001D03*
X103675001Y-85700001D03*
D19*
X101612501Y-100525001D03*
X103437501Y-100525001D03*
D15*
X94512501Y-108625001D03*
X96237501Y-108625001D03*
D20*
X110965121Y-89434881D03*
X112184881Y-88215121D03*
D21*
X116525001Y-95387501D03*
X116525001Y-93662501D03*
D22*
X97950001Y-105750001D03*
D23*
X97950001Y-104500001D03*
X97950001Y-103250001D03*
D16*
X95300001Y-85900001D03*
D17*
X97300001Y-85900001D03*
X99300001Y-85900001D03*
D24*
X113700001Y-108712501D03*
X113700001Y-106887501D03*
D25*
X103910001Y-108650001D03*
X109690001Y-108650001D03*
D26*
X103600001Y-107590001D03*
X104400001Y-107590001D03*
D27*
X105550001Y-107590001D03*
X106550001Y-107590001D03*
X107050001Y-107590001D03*
X108050001Y-107590001D03*
D26*
X109200001Y-107590001D03*
X110000001Y-107590001D03*
X110000001Y-107590001D03*
X109200001Y-107590001D03*
D27*
X108550001Y-107590001D03*
X107550001Y-107590001D03*
X106050001Y-107590001D03*
X105050001Y-107590001D03*
D26*
X104400001Y-107590001D03*
X103600001Y-107590001D03*
D28*
X102480001Y-108170001D03*
D29*
X102480001Y-112340001D03*
D28*
X111120001Y-108170001D03*
D29*
X111120001Y-112340001D03*
D16*
X118300001Y-85900001D03*
D17*
X116300001Y-85900001D03*
X114300001Y-85900001D03*
D22*
X97950001Y-99250001D03*
D23*
X97950001Y-98000001D03*
X97950001Y-96750001D03*
D30*
X119500001Y-104662501D03*
X119500001Y-102337501D03*
D14*
X118000001Y-93612501D03*
X118000001Y-95437501D03*
D31*
X116500001Y-97300001D03*
X115550001Y-97300001D03*
X114600001Y-97300001D03*
X114600001Y-99575001D03*
X115550001Y-99575001D03*
X116500001Y-99575001D03*
D32*
X109650001Y-82700001D03*
X103950001Y-82700001D03*
D16*
X93300001Y-88900001D03*
D17*
X93300001Y-90900001D03*
X93300001Y-92900001D03*
X93300001Y-94900001D03*
X93300001Y-96900001D03*
X93300001Y-98900001D03*
D19*
X101137501Y-92425001D03*
X102962501Y-92425001D03*
D33*
X114962501Y-91675001D03*
X113137501Y-91675001D03*
D34*
X114500001Y-112750001D03*
X119100001Y-112750001D03*
D35*
X114525001Y-110650001D03*
X119050001Y-110650001D03*
D36*
X105500001Y-88787501D03*
X105500001Y-87212501D03*
D33*
X114962501Y-89875001D03*
X113137501Y-89875001D03*
D37*
X103250001Y-104375001D03*
X103250001Y-102325001D03*
D31*
X107750001Y-102062501D03*
X106800001Y-102062501D03*
X105850001Y-102062501D03*
X105850001Y-104337501D03*
X106800001Y-104337501D03*
X107750001Y-104337501D03*
D22*
X97950001Y-92750001D03*
D23*
X97950001Y-91500001D03*
X97950001Y-90250001D03*
D20*
X109765121Y-98959881D03*
X110984881Y-97740121D03*
D18*
X103112502Y-90650001D03*
X101387500Y-90650001D03*
D37*
X110200001Y-104400001D03*
X110200001Y-102350001D03*
D38*
X101379766Y-96379766D03*
X102670236Y-97670236D03*
D39*
X108540121Y-91065121D03*
X109759881Y-92284881D03*
D14*
X112200001Y-102687501D03*
X112200001Y-104512501D03*
D15*
X107037501Y-88800001D03*
X108762501Y-88800001D03*
D40*
X106226317Y-91851444D03*
X105872764Y-92204997D03*
X105519210Y-92558550D03*
X105165657Y-92912104D03*
X104812104Y-93265657D03*
X104458550Y-93619210D03*
X104104997Y-93972764D03*
X103751444Y-94326317D03*
D41*
X103751444Y-95316267D03*
X104104997Y-95669820D03*
X104458550Y-96023374D03*
X104812104Y-96376927D03*
X105165657Y-96730480D03*
X105519210Y-97084034D03*
X105872764Y-97437587D03*
X106226317Y-97791140D03*
D40*
X107216267Y-97791140D03*
X107569820Y-97437587D03*
X107923374Y-97084034D03*
X108276927Y-96730480D03*
X108630480Y-96376927D03*
X108984034Y-96023374D03*
X109337587Y-95669820D03*
X109691140Y-95316267D03*
D41*
X109691140Y-94326317D03*
X109337587Y-93972764D03*
X108984034Y-93619210D03*
X108630480Y-93265657D03*
X108276927Y-92912104D03*
X107923374Y-92558550D03*
X107569820Y-92204997D03*
X107216267Y-91851444D03*
D42*
X106721292Y-94821292D03*
D43*
X116450001Y-89787501D03*
X116450001Y-91512501D03*
D18*
X117037501Y-102150001D03*
X115312501Y-102150001D03*
X117037501Y-103625001D03*
X115312501Y-103625001D03*
D43*
X118050001Y-89787501D03*
X118050001Y-91512501D03*
D34*
X94500001Y-112575001D03*
X99100001Y-112575001D03*
D35*
X94525001Y-110475001D03*
X99050001Y-110475001D03*
%LPD*%
M02*
