M48
; DRILL file {KiCad 8.0.7-8.0.7-0~ubuntu24.04.1} date 2025-01-27T17:00:25+0100
; FORMAT={-:-/ absolute / metric / decimal}
; #@! TF.CreationDate,2025-01-27T17:00:25+01:00
; #@! TF.GenerationSoftware,Kicad,Pcbnew,8.0.7-8.0.7-0~ubuntu24.04.1
; #@! TF.FileFunction,Plated,1,2,PTH
FMAT,2
METRIC
; #@! TA.AperFunction,Plated,PTH,ViaDrill
T1C0.300
; #@! TA.AperFunction,Plated,PTH,ComponentDrill
T2C0.500
; #@! TA.AperFunction,Plated,PTH,ComponentDrill
T3C0.600
; #@! TA.AperFunction,Plated,PTH,ComponentDrill
T4C0.800
%
G90
G05
T1
X92.6Y-87.2
X92.7Y-100.5
X93.4Y-107.7
X93.8Y-85.3
X93.8Y-87.2
X94.5Y-104.0
X94.875Y-91.024
X95.5Y-107.7
X95.6Y-100.7
X95.6Y-103.0
X95.8Y-98.1
X95.814Y-90.266
X96.172Y-94.88
X96.174Y-96.574
X96.612Y-90.2
X96.8Y-88.3
X96.901Y-90.946
X97.2Y-101.3
X98.4Y-101.3
X99.8Y-90.4
X99.8Y-92.5
X99.935Y-96.29
X100.0Y-106.0
X100.0Y-107.7
X100.1Y-100.7
X100.1Y-102.2
X100.4Y-88.3
X100.8Y-85.6
X101.2Y-106.0
X101.2Y-107.7
X101.3Y-93.563
X101.38Y-98.65
X101.4Y-85.1
X102.4Y-85.2
X102.4Y-86.3
X102.575Y-94.163
X102.903Y-93.433
X103.0Y-84.6
X103.1Y-86.9
X103.25Y-96.1
X103.75Y-97.399
X104.1Y-87.0
X104.1Y-88.9
X104.273Y-90.619
X104.3Y-106.0
X104.387Y-91.411
X104.4Y-88.0
X104.461Y-92.334
X104.5Y-89.8
X104.54Y-97.526
X104.8Y-101.9
X105.0Y-108.67
X105.075Y-109.925
X105.3Y-94.5
X105.326Y-98.626
X105.4Y-90.2
X105.575Y-106.55
X105.85Y-101.0
X105.95Y-108.75
X106.2Y-98.6
X106.339Y-94.439
X106.7Y-87.1
X106.775Y-92.846
X106.775Y-103.025
X106.8Y-105.525
X106.825Y-101.025
X107.15Y-108.9
X107.282Y-96.325
X107.775Y-101.025
X107.8Y-87.1
X108.2Y-90.0
X108.324Y-97.951
X108.55Y-106.55
X108.775Y-102.35
X108.9Y-87.1
X109.075Y-109.825
X109.165Y-97.944
X109.6Y-87.7
X109.688Y-96.738
X109.688Y-105.474
X109.844Y-97.522
X109.9Y-86.7
X109.949Y-103.425
X110.0Y-100.3
X110.071Y-90.008
X110.1Y-88.4
X110.6Y-86.0
X110.787Y-91.775
X111.0Y-85.0
X111.322Y-92.55
X111.4Y-105.8
X111.5Y-101.7
X111.545Y-95.916
X111.9Y-85.0
X112.0Y-90.9
X112.0Y-97.0
X112.0Y-98.5
X112.0Y-100.0
X112.105Y-92.24
X112.115Y-89.435
X112.15Y-106.425
X112.175Y-95.35
X112.425Y-108.45
X112.7Y-85.3
X112.841Y-95.794
X112.899Y-100.851
X113.4Y-87.4
X113.6Y-99.7
X113.825Y-104.047
X113.95Y-111.675
X114.0Y-96.1
X114.5Y-93.5
X115.075Y-104.725
X115.3Y-93.5
X115.4Y-96.0
X115.4Y-105.8
X115.669Y-90.569
X116.0Y-101.0
X117.0Y-101.0
X117.3Y-90.5
X118.2Y-88.2
X119.275Y-103.45
X119.3Y-87.3
X119.8Y-100.3
X120.9Y-100.3
X120.9Y-105.7
X121.0Y-87.5
T2
X97.95Y-90.25
X97.95Y-91.5
X97.95Y-92.75
X97.95Y-96.75
X97.95Y-98.0
X97.95Y-99.25
X97.95Y-103.25
X97.95Y-104.5
X97.95Y-105.75
T4
X93.3Y-88.9
X93.3Y-90.9
X93.3Y-92.9
X93.3Y-94.9
X93.3Y-96.9
X93.3Y-98.9
X95.3Y-85.9
X97.3Y-85.9
X99.3Y-85.9
X114.3Y-85.9
X116.3Y-85.9
X118.3Y-85.9
X120.3Y-88.9
X120.3Y-90.9
X120.3Y-92.9
X120.3Y-94.9
X120.3Y-96.9
X120.3Y-98.9
T3
X102.48Y-108.72G85X102.48Y-107.62
G05
X102.48Y-112.74G85X102.48Y-111.94
G05
X111.12Y-108.72G85X111.12Y-107.62
G05
X111.12Y-112.74G85X111.12Y-111.94
G05
M30
