G04 #@! TF.GenerationSoftware,KiCad,Pcbnew,8.0.7-8.0.7-0~ubuntu24.04.1*
G04 #@! TF.CreationDate,2025-01-27T17:00:14+01:00*
G04 #@! TF.ProjectId,KICad_Files,4b494361-645f-4466-996c-65732e6b6963,1*
G04 #@! TF.SameCoordinates,Original*
G04 #@! TF.FileFunction,Soldermask,Top*
G04 #@! TF.FilePolarity,Negative*
%FSLAX46Y46*%
G04 Gerber Fmt 4.6, Leading zero omitted, Abs format (unit mm)*
G04 Created by KiCad (PCBNEW 8.0.7-8.0.7-0~ubuntu24.04.1) date 2025-01-27 17:00:14*
%MOMM*%
%LPD*%
G01*
G04 APERTURE LIST*
G04 Aperture macros list*
%AMRoundRect*
0 Rectangle with rounded corners*
0 $1 Rounding radius*
0 $2 $3 $4 $5 $6 $7 $8 $9 X,Y pos of 4 corners*
0 Add a 4 corners polygon primitive as box body*
4,1,4,$2,$3,$4,$5,$6,$7,$8,$9,$2,$3,0*
0 Add four circle primitives for the rounded corners*
1,1,$1+$1,$2,$3*
1,1,$1+$1,$4,$5*
1,1,$1+$1,$6,$7*
1,1,$1+$1,$8,$9*
0 Add four rect primitives between the rounded corners*
20,1,$1+$1,$2,$3,$4,$5,0*
20,1,$1+$1,$4,$5,$6,$7,0*
20,1,$1+$1,$6,$7,$8,$9,0*
20,1,$1+$1,$8,$9,$2,$3,0*%
%AMRotRect*
0 Rectangle, with rotation*
0 The origin of the aperture is its center*
0 $1 length*
0 $2 width*
0 $3 Rotation angle, in degrees counterclockwise*
0 Add horizontal line*
21,1,$1,$2,0,0,$3*%
G04 Aperture macros list end*
%ADD10RoundRect,0.237500X-0.237500X0.250000X-0.237500X-0.250000X0.237500X-0.250000X0.237500X0.250000X0*%
%ADD11RoundRect,0.237500X-0.300000X-0.237500X0.300000X-0.237500X0.300000X0.237500X-0.300000X0.237500X0*%
%ADD12R,1.350000X1.350000*%
%ADD13O,1.350000X1.350000*%
%ADD14RoundRect,0.237500X0.300000X0.237500X-0.300000X0.237500X-0.300000X-0.237500X0.300000X-0.237500X0*%
%ADD15RoundRect,0.237500X-0.250000X-0.237500X0.250000X-0.237500X0.250000X0.237500X-0.250000X0.237500X0*%
%ADD16RoundRect,0.237500X-0.044194X-0.380070X0.380070X0.044194X0.044194X0.380070X-0.380070X-0.044194X0*%
%ADD17RoundRect,0.237500X0.237500X-0.300000X0.237500X0.300000X-0.237500X0.300000X-0.237500X-0.300000X0*%
%ADD18RoundRect,0.200000X0.450000X-0.200000X0.450000X0.200000X-0.450000X0.200000X-0.450000X-0.200000X0*%
%ADD19O,1.300000X0.800000*%
%ADD20RoundRect,0.237500X0.237500X-0.250000X0.237500X0.250000X-0.237500X0.250000X-0.237500X-0.250000X0*%
%ADD21C,0.600000*%
%ADD22R,0.600000X1.160000*%
%ADD23R,0.300000X1.160000*%
%ADD24O,0.900000X2.000000*%
%ADD25O,0.900000X1.700000*%
%ADD26RoundRect,0.250001X0.849999X-0.462499X0.849999X0.462499X-0.849999X0.462499X-0.849999X-0.462499X0*%
%ADD27RoundRect,0.150000X-0.150000X0.512500X-0.150000X-0.512500X0.150000X-0.512500X0.150000X0.512500X0*%
%ADD28RoundRect,0.250000X0.350000X0.850000X-0.350000X0.850000X-0.350000X-0.850000X0.350000X-0.850000X0*%
%ADD29RoundRect,0.237500X0.250000X0.237500X-0.250000X0.237500X-0.250000X-0.237500X0.250000X-0.237500X0*%
%ADD30RoundRect,0.200000X0.550000X-0.200000X0.550000X0.200000X-0.550000X0.200000X-0.550000X-0.200000X0*%
%ADD31RoundRect,0.200000X0.525000X-0.200000X0.525000X0.200000X-0.525000X0.200000X-0.525000X-0.200000X0*%
%ADD32RoundRect,0.218750X0.256250X-0.218750X0.256250X0.218750X-0.256250X0.218750X-0.256250X-0.218750X0*%
%ADD33RoundRect,0.250000X0.450000X-0.325000X0.450000X0.325000X-0.450000X0.325000X-0.450000X-0.325000X0*%
%ADD34RoundRect,0.237500X-0.344715X0.008839X0.008839X-0.344715X0.344715X-0.008839X-0.008839X0.344715X0*%
%ADD35RoundRect,0.237500X-0.380070X0.044194X0.044194X-0.380070X0.380070X-0.044194X-0.044194X0.380070X0*%
%ADD36RoundRect,0.062500X-0.282843X0.194454X0.194454X-0.282843X0.282843X-0.194454X-0.194454X0.282843X0*%
%ADD37RoundRect,0.062500X-0.282843X-0.194454X-0.194454X-0.282843X0.282843X0.194454X0.194454X0.282843X0*%
%ADD38RotRect,3.700000X3.700000X315.000000*%
%ADD39RoundRect,0.237500X-0.237500X0.300000X-0.237500X-0.300000X0.237500X-0.300000X0.237500X0.300000X0*%
G04 APERTURE END LIST*
D10*
X94500001Y-105137501D03*
X94500001Y-106962501D03*
D11*
X115437501Y-108300001D03*
X117162501Y-108300001D03*
D12*
X120300001Y-88900001D03*
D13*
X120300001Y-90900001D03*
X120300001Y-92900001D03*
X120300001Y-94900001D03*
X120300001Y-96900001D03*
X120300001Y-98900001D03*
D14*
X105400001Y-85700001D03*
X103675001Y-85700001D03*
D15*
X101612501Y-100525001D03*
X103437501Y-100525001D03*
D11*
X94512501Y-108625001D03*
X96237501Y-108625001D03*
D16*
X110965121Y-89434881D03*
X112184881Y-88215121D03*
D17*
X116525001Y-95387501D03*
X116525001Y-93662501D03*
D18*
X97950001Y-105750001D03*
D19*
X97950001Y-104500001D03*
X97950001Y-103250001D03*
D12*
X95300001Y-85900001D03*
D13*
X97300001Y-85900001D03*
X99300001Y-85900001D03*
D20*
X113700001Y-108712501D03*
X113700001Y-106887501D03*
D21*
X103910001Y-108650001D03*
X109690001Y-108650001D03*
D22*
X103600001Y-107590001D03*
X104400001Y-107590001D03*
D23*
X105550001Y-107590001D03*
X106550001Y-107590001D03*
X107050001Y-107590001D03*
X108050001Y-107590001D03*
D22*
X109200001Y-107590001D03*
X110000001Y-107590001D03*
X110000001Y-107590001D03*
X109200001Y-107590001D03*
D23*
X108550001Y-107590001D03*
X107550001Y-107590001D03*
X106050001Y-107590001D03*
X105050001Y-107590001D03*
D22*
X104400001Y-107590001D03*
X103600001Y-107590001D03*
D24*
X102480001Y-108170001D03*
D25*
X102480001Y-112340001D03*
D24*
X111120001Y-108170001D03*
D25*
X111120001Y-112340001D03*
D12*
X118300001Y-85900001D03*
D13*
X116300001Y-85900001D03*
X114300001Y-85900001D03*
D18*
X97950001Y-99250001D03*
D19*
X97950001Y-98000001D03*
X97950001Y-96750001D03*
D26*
X119500001Y-104662501D03*
X119500001Y-102337501D03*
D10*
X118000001Y-93612501D03*
X118000001Y-95437501D03*
D27*
X116500001Y-97300001D03*
X115550001Y-97300001D03*
X114600001Y-97300001D03*
X114600001Y-99575001D03*
X115550001Y-99575001D03*
X116500001Y-99575001D03*
D28*
X109650001Y-82700001D03*
X103950001Y-82700001D03*
D12*
X93300001Y-88900001D03*
D13*
X93300001Y-90900001D03*
X93300001Y-92900001D03*
X93300001Y-94900001D03*
X93300001Y-96900001D03*
X93300001Y-98900001D03*
D15*
X101137501Y-92425001D03*
X102962501Y-92425001D03*
D29*
X114962501Y-91675001D03*
X113137501Y-91675001D03*
D30*
X114500001Y-112750001D03*
X119100001Y-112750001D03*
D31*
X114525001Y-110650001D03*
X119050001Y-110650001D03*
D32*
X105500001Y-88787501D03*
X105500001Y-87212501D03*
D29*
X114962501Y-89875001D03*
X113137501Y-89875001D03*
D33*
X103250001Y-104375001D03*
X103250001Y-102325001D03*
D27*
X107750001Y-102062501D03*
X106800001Y-102062501D03*
X105850001Y-102062501D03*
X105850001Y-104337501D03*
X106800001Y-104337501D03*
X107750001Y-104337501D03*
D18*
X97950001Y-92750001D03*
D19*
X97950001Y-91500001D03*
X97950001Y-90250001D03*
D16*
X109765121Y-98959881D03*
X110984881Y-97740121D03*
D14*
X103112502Y-90650001D03*
X101387500Y-90650001D03*
D33*
X110200001Y-104400001D03*
X110200001Y-102350001D03*
D34*
X101379766Y-96379766D03*
X102670236Y-97670236D03*
D35*
X108540121Y-91065121D03*
X109759881Y-92284881D03*
D10*
X112200001Y-102687501D03*
X112200001Y-104512501D03*
D11*
X107037501Y-88800001D03*
X108762501Y-88800001D03*
D36*
X106226317Y-91851444D03*
X105872764Y-92204997D03*
X105519210Y-92558550D03*
X105165657Y-92912104D03*
X104812104Y-93265657D03*
X104458550Y-93619210D03*
X104104997Y-93972764D03*
X103751444Y-94326317D03*
D37*
X103751444Y-95316267D03*
X104104997Y-95669820D03*
X104458550Y-96023374D03*
X104812104Y-96376927D03*
X105165657Y-96730480D03*
X105519210Y-97084034D03*
X105872764Y-97437587D03*
X106226317Y-97791140D03*
D36*
X107216267Y-97791140D03*
X107569820Y-97437587D03*
X107923374Y-97084034D03*
X108276927Y-96730480D03*
X108630480Y-96376927D03*
X108984034Y-96023374D03*
X109337587Y-95669820D03*
X109691140Y-95316267D03*
D37*
X109691140Y-94326317D03*
X109337587Y-93972764D03*
X108984034Y-93619210D03*
X108630480Y-93265657D03*
X108276927Y-92912104D03*
X107923374Y-92558550D03*
X107569820Y-92204997D03*
X107216267Y-91851444D03*
D38*
X106721292Y-94821292D03*
D39*
X116450001Y-89787501D03*
X116450001Y-91512501D03*
D14*
X117037501Y-102150001D03*
X115312501Y-102150001D03*
X117037501Y-103625001D03*
X115312501Y-103625001D03*
D39*
X118050001Y-89787501D03*
X118050001Y-91512501D03*
D30*
X94500001Y-112575001D03*
X99100001Y-112575001D03*
D31*
X94525001Y-110475001D03*
X99050001Y-110475001D03*
M02*
