%TF.GenerationSoftware,KiCad,Pcbnew,8.0.8-8.0.8-0~ubuntu24.04.1*%
%TF.CreationDate,2025-01-27T21:39:11+01:00*%
%TF.ProjectId,KICad_Files,4b494361-645f-4466-996c-65732e6b6963,1*%
%TF.SameCoordinates,Original*%
%TF.FileFunction,Drillmap*%
%TF.FilePolarity,Positive*%
%FSLAX45Y45*%
G04 Gerber Fmt 4.5, Leading zero omitted, Abs format (unit mm)*
G04 Created by KiCad (PCBNEW 8.0.8-8.0.8-0~ubuntu24.04.1) date 2025-01-27 21:39:11*
%MOMM*%
%LPD*%
G01*
G04 APERTURE LIST*
%ADD10C,0.050000*%
%ADD11C,0.200000*%
%ADD12C,0.100000*%
G04 APERTURE END LIST*
D10*
X12180000Y-11240000D02*
X12180000Y-8640000D01*
X11280000Y-8438995D02*
G75*
G02*
X11181005Y-8340000I0J98995D01*
G01*
X9380000Y-11440000D02*
X11980000Y-11440000D01*
X9180000Y-8640000D02*
G75*
G02*
X9380000Y-8440000I200000J0D01*
G01*
X9380000Y-11440000D02*
G75*
G02*
X9180000Y-11240000I0J200000D01*
G01*
X11980000Y-8440000D02*
X11280000Y-8438995D01*
X10180000Y-8340000D02*
G75*
G02*
X10080000Y-8440000I-100000J0D01*
G01*
X11080000Y-8040000D02*
G75*
G02*
X11180000Y-8140000I0J-100000D01*
G01*
X11080000Y-8040000D02*
X10280000Y-8040000D01*
X12180000Y-11240000D02*
G75*
G02*
X11980000Y-11440000I-200000J0D01*
G01*
X10080000Y-8440000D02*
X9380000Y-8440000D01*
X10180000Y-8140000D02*
G75*
G02*
X10280000Y-8040000I100000J0D01*
G01*
X9180000Y-8640000D02*
X9180000Y-11240000D01*
X11181005Y-8340000D02*
X11180000Y-8140000D01*
X10180000Y-8140000D02*
X10180000Y-8340000D01*
X11980000Y-8440000D02*
G75*
G02*
X12180000Y-8640000I0J-200000D01*
G01*
D11*
D12*
X9245000Y-8705000D02*
X9275000Y-8735000D01*
X9275000Y-8705000D02*
X9245000Y-8735000D01*
X9255000Y-10035000D02*
X9285000Y-10065000D01*
X9285000Y-10035000D02*
X9255000Y-10065000D01*
X9325000Y-10755000D02*
X9355000Y-10785000D01*
X9355000Y-10755000D02*
X9325000Y-10785000D01*
X9365000Y-8515000D02*
X9395000Y-8545000D01*
X9395000Y-8515000D02*
X9365000Y-8545000D01*
X9365000Y-8705000D02*
X9395000Y-8735000D01*
X9395000Y-8705000D02*
X9365000Y-8735000D01*
X9435000Y-10385000D02*
X9465000Y-10415000D01*
X9465000Y-10385000D02*
X9435000Y-10415000D01*
X9472500Y-9087353D02*
X9502500Y-9117353D01*
X9502500Y-9087353D02*
X9472500Y-9117353D01*
X9535000Y-10755000D02*
X9565000Y-10785000D01*
X9565000Y-10755000D02*
X9535000Y-10785000D01*
X9545000Y-10055000D02*
X9575000Y-10085000D01*
X9575000Y-10055000D02*
X9545000Y-10085000D01*
X9545000Y-10285000D02*
X9575000Y-10315000D01*
X9575000Y-10285000D02*
X9545000Y-10315000D01*
X9565000Y-9795000D02*
X9595000Y-9825000D01*
X9595000Y-9795000D02*
X9565000Y-9825000D01*
X9566449Y-9011596D02*
X9596449Y-9041596D01*
X9596449Y-9011596D02*
X9566449Y-9041596D01*
X9602162Y-9472985D02*
X9632162Y-9502985D01*
X9632162Y-9472985D02*
X9602162Y-9502985D01*
X9602427Y-9642427D02*
X9632427Y-9672427D01*
X9632427Y-9642427D02*
X9602427Y-9672427D01*
X9646177Y-9005003D02*
X9676177Y-9035003D01*
X9676177Y-9005003D02*
X9646177Y-9035003D01*
X9665000Y-8815000D02*
X9695000Y-8845000D01*
X9695000Y-8815000D02*
X9665000Y-8845000D01*
X9675123Y-9079583D02*
X9705123Y-9109583D01*
X9705123Y-9079583D02*
X9675123Y-9109583D01*
X9705000Y-10115000D02*
X9735000Y-10145000D01*
X9735000Y-10115000D02*
X9705000Y-10145000D01*
X9825000Y-10115000D02*
X9855000Y-10145000D01*
X9855000Y-10115000D02*
X9825000Y-10145000D01*
X9965000Y-9025000D02*
X9995000Y-9055000D01*
X9995000Y-9025000D02*
X9965000Y-9055000D01*
X9965000Y-9235000D02*
X9995000Y-9265000D01*
X9995000Y-9235000D02*
X9965000Y-9265000D01*
X9978505Y-9613995D02*
X10008505Y-9643995D01*
X10008505Y-9613995D02*
X9978505Y-9643995D01*
X9985000Y-10585000D02*
X10015000Y-10615000D01*
X10015000Y-10585000D02*
X9985000Y-10615000D01*
X9985000Y-10755000D02*
X10015000Y-10785000D01*
X10015000Y-10755000D02*
X9985000Y-10785000D01*
X9995000Y-10055000D02*
X10025000Y-10085000D01*
X10025000Y-10055000D02*
X9995000Y-10085000D01*
X9995000Y-10205000D02*
X10025000Y-10235000D01*
X10025000Y-10205000D02*
X9995000Y-10235000D01*
X10025000Y-8815000D02*
X10055000Y-8845000D01*
X10055000Y-8815000D02*
X10025000Y-8845000D01*
X10065000Y-8545000D02*
X10095000Y-8575000D01*
X10095000Y-8545000D02*
X10065000Y-8575000D01*
X10105000Y-10585000D02*
X10135000Y-10615000D01*
X10135000Y-10585000D02*
X10105000Y-10615000D01*
X10105000Y-10755000D02*
X10135000Y-10785000D01*
X10135000Y-10755000D02*
X10105000Y-10785000D01*
X10115000Y-9341250D02*
X10145000Y-9371250D01*
X10145000Y-9341250D02*
X10115000Y-9371250D01*
X10122977Y-9850000D02*
X10152977Y-9880000D01*
X10152977Y-9850000D02*
X10122977Y-9880000D01*
X10125000Y-8495000D02*
X10155000Y-8525000D01*
X10155000Y-8495000D02*
X10125000Y-8525000D01*
X10225000Y-8505000D02*
X10255000Y-8535000D01*
X10255000Y-8505000D02*
X10225000Y-8535000D01*
X10225000Y-8615000D02*
X10255000Y-8645000D01*
X10255000Y-8615000D02*
X10225000Y-8645000D01*
X10242500Y-9401250D02*
X10272500Y-9431250D01*
X10272500Y-9401250D02*
X10242500Y-9431250D01*
X10275267Y-9328268D02*
X10305267Y-9358268D01*
X10305267Y-9328268D02*
X10275267Y-9358268D01*
X10285000Y-8445000D02*
X10315000Y-8475000D01*
X10315000Y-8445000D02*
X10285000Y-8475000D01*
X10295000Y-8675000D02*
X10325000Y-8705000D01*
X10325000Y-8675000D02*
X10295000Y-8705000D01*
X10310000Y-9595000D02*
X10340000Y-9625000D01*
X10340000Y-9595000D02*
X10310000Y-9625000D01*
X10359971Y-9724933D02*
X10389971Y-9754933D01*
X10389971Y-9724933D02*
X10359971Y-9754933D01*
X10395000Y-8685000D02*
X10425000Y-8715000D01*
X10425000Y-8685000D02*
X10395000Y-8715000D01*
X10395000Y-8875000D02*
X10425000Y-8905000D01*
X10425000Y-8875000D02*
X10395000Y-8905000D01*
X10412333Y-9046923D02*
X10442333Y-9076923D01*
X10442333Y-9046923D02*
X10412333Y-9076923D01*
X10415000Y-10585000D02*
X10445000Y-10615000D01*
X10445000Y-10585000D02*
X10415000Y-10615000D01*
X10423652Y-9126118D02*
X10453652Y-9156118D01*
X10453652Y-9126118D02*
X10423652Y-9156118D01*
X10425000Y-8785000D02*
X10455000Y-8815000D01*
X10455000Y-8785000D02*
X10425000Y-8815000D01*
X10431051Y-9218370D02*
X10461051Y-9248370D01*
X10461051Y-9218370D02*
X10431051Y-9248370D01*
X10435000Y-8965000D02*
X10465000Y-8995000D01*
X10465000Y-8965000D02*
X10435000Y-8995000D01*
X10438954Y-9737649D02*
X10468954Y-9767649D01*
X10468954Y-9737649D02*
X10438954Y-9767649D01*
X10465000Y-10175000D02*
X10495000Y-10205000D01*
X10495000Y-10175000D02*
X10465000Y-10205000D01*
X10485000Y-10852000D02*
X10515000Y-10882000D01*
X10515000Y-10852000D02*
X10485000Y-10882000D01*
X10492500Y-10977500D02*
X10522500Y-11007500D01*
X10522500Y-10977500D02*
X10492500Y-11007500D01*
X10515000Y-9435000D02*
X10545000Y-9465000D01*
X10545000Y-9435000D02*
X10515000Y-9465000D01*
X10517574Y-9847574D02*
X10547574Y-9877574D01*
X10547574Y-9847574D02*
X10517574Y-9877574D01*
X10525000Y-9005000D02*
X10555000Y-9035000D01*
X10555000Y-9005000D02*
X10525000Y-9035000D01*
X10542500Y-10640000D02*
X10572500Y-10670000D01*
X10572500Y-10640000D02*
X10542500Y-10670000D01*
X10570000Y-10085000D02*
X10600000Y-10115000D01*
X10600000Y-10085000D02*
X10570000Y-10115000D01*
X10580000Y-10860000D02*
X10610000Y-10890000D01*
X10610000Y-10860000D02*
X10580000Y-10890000D01*
X10605000Y-9845000D02*
X10635000Y-9875000D01*
X10635000Y-9845000D02*
X10605000Y-9875000D01*
X10618897Y-9428898D02*
X10648897Y-9458898D01*
X10648897Y-9428898D02*
X10618897Y-9458898D01*
X10655000Y-8695000D02*
X10685000Y-8725000D01*
X10685000Y-8695000D02*
X10655000Y-8725000D01*
X10662460Y-9269600D02*
X10692460Y-9299600D01*
X10692460Y-9269600D02*
X10662460Y-9299600D01*
X10662500Y-10287500D02*
X10692500Y-10317500D01*
X10692500Y-10287500D02*
X10662500Y-10317500D01*
X10665000Y-10537500D02*
X10695000Y-10567500D01*
X10695000Y-10537500D02*
X10665000Y-10567500D01*
X10667500Y-10087500D02*
X10697500Y-10117500D01*
X10697500Y-10087500D02*
X10667500Y-10117500D01*
X10700000Y-10875000D02*
X10730000Y-10905000D01*
X10730000Y-10875000D02*
X10700000Y-10905000D01*
X10713159Y-9617479D02*
X10743159Y-9647479D01*
X10743159Y-9617479D02*
X10713159Y-9647479D01*
X10762500Y-10087500D02*
X10792500Y-10117500D01*
X10792500Y-10087500D02*
X10762500Y-10117500D01*
X10765000Y-8695000D02*
X10795000Y-8725000D01*
X10795000Y-8695000D02*
X10765000Y-8725000D01*
X10805000Y-8985000D02*
X10835000Y-9015000D01*
X10835000Y-8985000D02*
X10805000Y-9015000D01*
X10817365Y-9780135D02*
X10847365Y-9810135D01*
X10847365Y-9780135D02*
X10817365Y-9810135D01*
X10840000Y-10640000D02*
X10870000Y-10670000D01*
X10870000Y-10640000D02*
X10840000Y-10670000D01*
X10862500Y-10220000D02*
X10892500Y-10250000D01*
X10892500Y-10220000D02*
X10862500Y-10250000D01*
X10875000Y-8695000D02*
X10905000Y-8725000D01*
X10905000Y-8695000D02*
X10875000Y-8725000D01*
X10892500Y-10967500D02*
X10922500Y-10997500D01*
X10922500Y-10967500D02*
X10892500Y-10997500D01*
X10901467Y-9779384D02*
X10931467Y-9809384D01*
X10931467Y-9779384D02*
X10901467Y-9809384D01*
X10945000Y-8755000D02*
X10975000Y-8785000D01*
X10975000Y-8755000D02*
X10945000Y-8785000D01*
X10953750Y-9658750D02*
X10983750Y-9688750D01*
X10983750Y-9658750D02*
X10953750Y-9688750D01*
X10953788Y-10532359D02*
X10983788Y-10562359D01*
X10983788Y-10532359D02*
X10953788Y-10562359D01*
X10969440Y-9737197D02*
X10999440Y-9767197D01*
X10999440Y-9737197D02*
X10969440Y-9767197D01*
X10975000Y-8655000D02*
X11005000Y-8685000D01*
X11005000Y-8655000D02*
X10975000Y-8685000D01*
X10979860Y-10327500D02*
X11009860Y-10357500D01*
X11009860Y-10327500D02*
X10979860Y-10357500D01*
X10985000Y-10015000D02*
X11015000Y-10045000D01*
X11015000Y-10015000D02*
X10985000Y-10045000D01*
X10992119Y-8985819D02*
X11022119Y-9015819D01*
X11022119Y-8985819D02*
X10992119Y-9015819D01*
X10995000Y-8825000D02*
X11025000Y-8855000D01*
X11025000Y-8825000D02*
X10995000Y-8855000D01*
X11045000Y-8585000D02*
X11075000Y-8615000D01*
X11075000Y-8585000D02*
X11045000Y-8615000D01*
X11063678Y-9162500D02*
X11093678Y-9192500D01*
X11093678Y-9162500D02*
X11063678Y-9192500D01*
X11085000Y-8485000D02*
X11115000Y-8515000D01*
X11115000Y-8485000D02*
X11085000Y-8515000D01*
X11117220Y-9240000D02*
X11147220Y-9270000D01*
X11147220Y-9240000D02*
X11117220Y-9270000D01*
X11125000Y-10565000D02*
X11155000Y-10595000D01*
X11155000Y-10565000D02*
X11125000Y-10595000D01*
X11135000Y-10155000D02*
X11165000Y-10185000D01*
X11165000Y-10155000D02*
X11135000Y-10185000D01*
X11139500Y-9576627D02*
X11169500Y-9606627D01*
X11169500Y-9576627D02*
X11139500Y-9606627D01*
X11175000Y-8485000D02*
X11205000Y-8515000D01*
X11205000Y-8485000D02*
X11175000Y-8515000D01*
X11185000Y-9075000D02*
X11215000Y-9105000D01*
X11215000Y-9075000D02*
X11185000Y-9105000D01*
X11185000Y-9685000D02*
X11215000Y-9715000D01*
X11215000Y-9685000D02*
X11185000Y-9715000D01*
X11185000Y-9835000D02*
X11215000Y-9865000D01*
X11215000Y-9835000D02*
X11185000Y-9865000D01*
X11185000Y-9985000D02*
X11215000Y-10015000D01*
X11215000Y-9985000D02*
X11185000Y-10015000D01*
X11195545Y-9208965D02*
X11225545Y-9238965D01*
X11225545Y-9208965D02*
X11195545Y-9238965D01*
X11196512Y-8928488D02*
X11226512Y-8958488D01*
X11226512Y-8928488D02*
X11196512Y-8958488D01*
X11200000Y-10627500D02*
X11230000Y-10657500D01*
X11230000Y-10627500D02*
X11200000Y-10657500D01*
X11202500Y-9520000D02*
X11232500Y-9550000D01*
X11232500Y-9520000D02*
X11202500Y-9550000D01*
X11227500Y-10830000D02*
X11257500Y-10860000D01*
X11257500Y-10830000D02*
X11227500Y-10860000D01*
X11255000Y-8515000D02*
X11285000Y-8545000D01*
X11285000Y-8515000D02*
X11255000Y-8545000D01*
X11269064Y-9564376D02*
X11299064Y-9594376D01*
X11299064Y-9564376D02*
X11269064Y-9594376D01*
X11274927Y-10070074D02*
X11304927Y-10100074D01*
X11304927Y-10070074D02*
X11274927Y-10100074D01*
X11325000Y-8725000D02*
X11355000Y-8755000D01*
X11355000Y-8725000D02*
X11325000Y-8755000D01*
X11345000Y-9955000D02*
X11375000Y-9985000D01*
X11375000Y-9955000D02*
X11345000Y-9985000D01*
X11367500Y-10389740D02*
X11397500Y-10419740D01*
X11397500Y-10389740D02*
X11367500Y-10419740D01*
X11380000Y-11152500D02*
X11410000Y-11182500D01*
X11410000Y-11152500D02*
X11380000Y-11182500D01*
X11385000Y-9595000D02*
X11415000Y-9625000D01*
X11415000Y-9595000D02*
X11385000Y-9625000D01*
X11435000Y-9335000D02*
X11465000Y-9365000D01*
X11465000Y-9335000D02*
X11435000Y-9365000D01*
X11492500Y-10457500D02*
X11522500Y-10487500D01*
X11522500Y-10457500D02*
X11492500Y-10487500D01*
X11515000Y-9335000D02*
X11545000Y-9365000D01*
X11545000Y-9335000D02*
X11515000Y-9365000D01*
X11525000Y-9585000D02*
X11555000Y-9615000D01*
X11555000Y-9585000D02*
X11525000Y-9615000D01*
X11525000Y-10565000D02*
X11555000Y-10595000D01*
X11555000Y-10565000D02*
X11525000Y-10595000D01*
X11551875Y-9041875D02*
X11581875Y-9071875D01*
X11581875Y-9041875D02*
X11551875Y-9071875D01*
X11585000Y-10085000D02*
X11615000Y-10115000D01*
X11615000Y-10085000D02*
X11585000Y-10115000D01*
X11685000Y-10085000D02*
X11715000Y-10115000D01*
X11715000Y-10085000D02*
X11685000Y-10115000D01*
X11715000Y-9035000D02*
X11745000Y-9065000D01*
X11745000Y-9035000D02*
X11715000Y-9065000D01*
X11805000Y-8805000D02*
X11835000Y-8835000D01*
X11835000Y-8805000D02*
X11805000Y-8835000D01*
X11912500Y-10330000D02*
X11942500Y-10360000D01*
X11942500Y-10330000D02*
X11912500Y-10360000D01*
X11915000Y-8715000D02*
X11945000Y-8745000D01*
X11945000Y-8715000D02*
X11915000Y-8745000D01*
X11965000Y-10015000D02*
X11995000Y-10045000D01*
X11995000Y-10015000D02*
X11965000Y-10045000D01*
X12075000Y-10015000D02*
X12105000Y-10045000D01*
X12105000Y-10015000D02*
X12075000Y-10045000D01*
X12075000Y-10555000D02*
X12105000Y-10585000D01*
X12105000Y-10555000D02*
X12075000Y-10585000D01*
X12085000Y-8735000D02*
X12115000Y-8765000D01*
X12115000Y-8735000D02*
X12085000Y-8765000D01*
X9820000Y-9025000D02*
G75*
G02*
X9770000Y-9025000I-25000J0D01*
G01*
X9770000Y-9025000D02*
G75*
G02*
X9820000Y-9025000I25000J0D01*
G01*
X9820000Y-9150000D02*
G75*
G02*
X9770000Y-9150000I-25000J0D01*
G01*
X9770000Y-9150000D02*
G75*
G02*
X9820000Y-9150000I25000J0D01*
G01*
X9820000Y-9275000D02*
G75*
G02*
X9770000Y-9275000I-25000J0D01*
G01*
X9770000Y-9275000D02*
G75*
G02*
X9820000Y-9275000I25000J0D01*
G01*
X9820000Y-9675000D02*
G75*
G02*
X9770000Y-9675000I-25000J0D01*
G01*
X9770000Y-9675000D02*
G75*
G02*
X9820000Y-9675000I25000J0D01*
G01*
X9820000Y-9800000D02*
G75*
G02*
X9770000Y-9800000I-25000J0D01*
G01*
X9770000Y-9800000D02*
G75*
G02*
X9820000Y-9800000I25000J0D01*
G01*
X9820000Y-9925000D02*
G75*
G02*
X9770000Y-9925000I-25000J0D01*
G01*
X9770000Y-9925000D02*
G75*
G02*
X9820000Y-9925000I25000J0D01*
G01*
X9820000Y-10325000D02*
G75*
G02*
X9770000Y-10325000I-25000J0D01*
G01*
X9770000Y-10325000D02*
G75*
G02*
X9820000Y-10325000I25000J0D01*
G01*
X9820000Y-10450000D02*
G75*
G02*
X9770000Y-10450000I-25000J0D01*
G01*
X9770000Y-10450000D02*
G75*
G02*
X9820000Y-10450000I25000J0D01*
G01*
X9820000Y-10575000D02*
G75*
G02*
X9770000Y-10575000I-25000J0D01*
G01*
X9770000Y-10575000D02*
G75*
G02*
X9820000Y-10575000I25000J0D01*
G01*
X10248000Y-10787000D02*
X10248000Y-10847000D01*
X10218000Y-10817000D02*
X10278000Y-10817000D01*
X10278000Y-10872000D02*
X10278000Y-10762000D01*
X10218000Y-10762000D02*
G75*
G02*
X10278000Y-10762000I30000J0D01*
G01*
X10218000Y-10762000D02*
X10218000Y-10872000D01*
X10218000Y-10872000D02*
G75*
G03*
X10278000Y-10872000I30000J0D01*
G01*
X10248000Y-11204000D02*
X10248000Y-11264000D01*
X10218000Y-11234000D02*
X10278000Y-11234000D01*
X10278000Y-11274000D02*
X10278000Y-11194000D01*
X10218000Y-11194000D02*
G75*
G02*
X10278000Y-11194000I30000J0D01*
G01*
X10218000Y-11194000D02*
X10218000Y-11274000D01*
X10218000Y-11274000D02*
G75*
G03*
X10278000Y-11274000I30000J0D01*
G01*
X11112000Y-10787000D02*
X11112000Y-10847000D01*
X11082000Y-10817000D02*
X11142000Y-10817000D01*
X11142000Y-10872000D02*
X11142000Y-10762000D01*
X11082000Y-10762000D02*
G75*
G02*
X11142000Y-10762000I30000J0D01*
G01*
X11082000Y-10762000D02*
X11082000Y-10872000D01*
X11082000Y-10872000D02*
G75*
G03*
X11142000Y-10872000I30000J0D01*
G01*
X11112000Y-11204000D02*
X11112000Y-11264000D01*
X11082000Y-11234000D02*
X11142000Y-11234000D01*
X11142000Y-11274000D02*
X11142000Y-11194000D01*
X11082000Y-11194000D02*
G75*
G02*
X11142000Y-11194000I30000J0D01*
G01*
X11082000Y-11194000D02*
X11082000Y-11274000D01*
X11082000Y-11274000D02*
G75*
G03*
X11142000Y-11274000I30000J0D01*
G01*
X9358285Y-8918285D02*
X9358285Y-8861716D01*
X9301716Y-8861716D01*
X9301716Y-8918285D01*
X9358285Y-8918285D01*
X9358285Y-9118285D02*
X9358285Y-9061716D01*
X9301716Y-9061716D01*
X9301716Y-9118285D01*
X9358285Y-9118285D01*
X9358285Y-9318285D02*
X9358285Y-9261716D01*
X9301716Y-9261716D01*
X9301716Y-9318285D01*
X9358285Y-9318285D01*
X9358285Y-9518285D02*
X9358285Y-9461716D01*
X9301716Y-9461716D01*
X9301716Y-9518285D01*
X9358285Y-9518285D01*
X9358285Y-9718285D02*
X9358285Y-9661716D01*
X9301716Y-9661716D01*
X9301716Y-9718285D01*
X9358285Y-9718285D01*
X9358285Y-9918285D02*
X9358285Y-9861716D01*
X9301716Y-9861716D01*
X9301716Y-9918285D01*
X9358285Y-9918285D01*
X9558285Y-8618285D02*
X9558285Y-8561716D01*
X9501716Y-8561716D01*
X9501716Y-8618285D01*
X9558285Y-8618285D01*
X9758285Y-8618285D02*
X9758285Y-8561716D01*
X9701716Y-8561716D01*
X9701716Y-8618285D01*
X9758285Y-8618285D01*
X9958285Y-8618285D02*
X9958285Y-8561716D01*
X9901716Y-8561716D01*
X9901716Y-8618285D01*
X9958285Y-8618285D01*
X11458285Y-8618285D02*
X11458285Y-8561716D01*
X11401716Y-8561716D01*
X11401716Y-8618285D01*
X11458285Y-8618285D01*
X11658285Y-8618285D02*
X11658285Y-8561716D01*
X11601716Y-8561716D01*
X11601716Y-8618285D01*
X11658285Y-8618285D01*
X11858285Y-8618285D02*
X11858285Y-8561716D01*
X11801716Y-8561716D01*
X11801716Y-8618285D01*
X11858285Y-8618285D01*
X12058285Y-8918285D02*
X12058285Y-8861716D01*
X12001716Y-8861716D01*
X12001716Y-8918285D01*
X12058285Y-8918285D01*
X12058285Y-9118285D02*
X12058285Y-9061716D01*
X12001716Y-9061716D01*
X12001716Y-9118285D01*
X12058285Y-9118285D01*
X12058285Y-9318285D02*
X12058285Y-9261716D01*
X12001716Y-9261716D01*
X12001716Y-9318285D01*
X12058285Y-9318285D01*
X12058285Y-9518285D02*
X12058285Y-9461716D01*
X12001716Y-9461716D01*
X12001716Y-9518285D01*
X12058285Y-9518285D01*
X12058285Y-9718285D02*
X12058285Y-9661716D01*
X12001716Y-9661716D01*
X12001716Y-9718285D01*
X12058285Y-9718285D01*
X12058285Y-9918285D02*
X12058285Y-9861716D01*
X12001716Y-9861716D01*
X12001716Y-9918285D01*
X12058285Y-9918285D01*
D11*
X9438277Y-11753984D02*
X9438277Y-11553984D01*
X9438277Y-11553984D02*
X9485896Y-11553984D01*
X9485896Y-11553984D02*
X9514467Y-11563508D01*
X9514467Y-11563508D02*
X9533515Y-11582555D01*
X9533515Y-11582555D02*
X9543039Y-11601603D01*
X9543039Y-11601603D02*
X9552563Y-11639698D01*
X9552563Y-11639698D02*
X9552563Y-11668269D01*
X9552563Y-11668269D02*
X9543039Y-11706365D01*
X9543039Y-11706365D02*
X9533515Y-11725412D01*
X9533515Y-11725412D02*
X9514467Y-11744460D01*
X9514467Y-11744460D02*
X9485896Y-11753984D01*
X9485896Y-11753984D02*
X9438277Y-11753984D01*
X9638277Y-11753984D02*
X9638277Y-11620650D01*
X9638277Y-11658746D02*
X9647801Y-11639698D01*
X9647801Y-11639698D02*
X9657325Y-11630174D01*
X9657325Y-11630174D02*
X9676372Y-11620650D01*
X9676372Y-11620650D02*
X9695420Y-11620650D01*
X9762086Y-11753984D02*
X9762086Y-11620650D01*
X9762086Y-11553984D02*
X9752563Y-11563508D01*
X9752563Y-11563508D02*
X9762086Y-11573031D01*
X9762086Y-11573031D02*
X9771610Y-11563508D01*
X9771610Y-11563508D02*
X9762086Y-11553984D01*
X9762086Y-11553984D02*
X9762086Y-11573031D01*
X9885896Y-11753984D02*
X9866848Y-11744460D01*
X9866848Y-11744460D02*
X9857325Y-11725412D01*
X9857325Y-11725412D02*
X9857325Y-11553984D01*
X9990658Y-11753984D02*
X9971610Y-11744460D01*
X9971610Y-11744460D02*
X9962086Y-11725412D01*
X9962086Y-11725412D02*
X9962086Y-11553984D01*
X10219229Y-11753984D02*
X10219229Y-11553984D01*
X10219229Y-11553984D02*
X10285896Y-11696841D01*
X10285896Y-11696841D02*
X10352563Y-11553984D01*
X10352563Y-11553984D02*
X10352563Y-11753984D01*
X10533515Y-11753984D02*
X10533515Y-11649222D01*
X10533515Y-11649222D02*
X10523991Y-11630174D01*
X10523991Y-11630174D02*
X10504944Y-11620650D01*
X10504944Y-11620650D02*
X10466848Y-11620650D01*
X10466848Y-11620650D02*
X10447801Y-11630174D01*
X10533515Y-11744460D02*
X10514467Y-11753984D01*
X10514467Y-11753984D02*
X10466848Y-11753984D01*
X10466848Y-11753984D02*
X10447801Y-11744460D01*
X10447801Y-11744460D02*
X10438277Y-11725412D01*
X10438277Y-11725412D02*
X10438277Y-11706365D01*
X10438277Y-11706365D02*
X10447801Y-11687317D01*
X10447801Y-11687317D02*
X10466848Y-11677793D01*
X10466848Y-11677793D02*
X10514467Y-11677793D01*
X10514467Y-11677793D02*
X10533515Y-11668269D01*
X10628753Y-11620650D02*
X10628753Y-11820650D01*
X10628753Y-11630174D02*
X10647801Y-11620650D01*
X10647801Y-11620650D02*
X10685896Y-11620650D01*
X10685896Y-11620650D02*
X10704944Y-11630174D01*
X10704944Y-11630174D02*
X10714467Y-11639698D01*
X10714467Y-11639698D02*
X10723991Y-11658746D01*
X10723991Y-11658746D02*
X10723991Y-11715888D01*
X10723991Y-11715888D02*
X10714467Y-11734936D01*
X10714467Y-11734936D02*
X10704944Y-11744460D01*
X10704944Y-11744460D02*
X10685896Y-11753984D01*
X10685896Y-11753984D02*
X10647801Y-11753984D01*
X10647801Y-11753984D02*
X10628753Y-11744460D01*
X10809706Y-11734936D02*
X10819229Y-11744460D01*
X10819229Y-11744460D02*
X10809706Y-11753984D01*
X10809706Y-11753984D02*
X10800182Y-11744460D01*
X10800182Y-11744460D02*
X10809706Y-11734936D01*
X10809706Y-11734936D02*
X10809706Y-11753984D01*
X10809706Y-11630174D02*
X10819229Y-11639698D01*
X10819229Y-11639698D02*
X10809706Y-11649222D01*
X10809706Y-11649222D02*
X10800182Y-11639698D01*
X10800182Y-11639698D02*
X10809706Y-11630174D01*
X10809706Y-11630174D02*
X10809706Y-11649222D01*
D12*
X9147500Y-12067500D02*
X9177500Y-12097500D01*
X9177500Y-12067500D02*
X9147500Y-12097500D01*
D11*
X9476372Y-11973984D02*
X9495420Y-11973984D01*
X9495420Y-11973984D02*
X9514467Y-11983508D01*
X9514467Y-11983508D02*
X9523991Y-11993031D01*
X9523991Y-11993031D02*
X9533515Y-12012079D01*
X9533515Y-12012079D02*
X9543039Y-12050174D01*
X9543039Y-12050174D02*
X9543039Y-12097793D01*
X9543039Y-12097793D02*
X9533515Y-12135888D01*
X9533515Y-12135888D02*
X9523991Y-12154936D01*
X9523991Y-12154936D02*
X9514467Y-12164460D01*
X9514467Y-12164460D02*
X9495420Y-12173984D01*
X9495420Y-12173984D02*
X9476372Y-12173984D01*
X9476372Y-12173984D02*
X9457325Y-12164460D01*
X9457325Y-12164460D02*
X9447801Y-12154936D01*
X9447801Y-12154936D02*
X9438277Y-12135888D01*
X9438277Y-12135888D02*
X9428753Y-12097793D01*
X9428753Y-12097793D02*
X9428753Y-12050174D01*
X9428753Y-12050174D02*
X9438277Y-12012079D01*
X9438277Y-12012079D02*
X9447801Y-11993031D01*
X9447801Y-11993031D02*
X9457325Y-11983508D01*
X9457325Y-11983508D02*
X9476372Y-11973984D01*
X9628753Y-12154936D02*
X9638277Y-12164460D01*
X9638277Y-12164460D02*
X9628753Y-12173984D01*
X9628753Y-12173984D02*
X9619229Y-12164460D01*
X9619229Y-12164460D02*
X9628753Y-12154936D01*
X9628753Y-12154936D02*
X9628753Y-12173984D01*
X9704944Y-11973984D02*
X9828753Y-11973984D01*
X9828753Y-11973984D02*
X9762086Y-12050174D01*
X9762086Y-12050174D02*
X9790658Y-12050174D01*
X9790658Y-12050174D02*
X9809706Y-12059698D01*
X9809706Y-12059698D02*
X9819229Y-12069222D01*
X9819229Y-12069222D02*
X9828753Y-12088269D01*
X9828753Y-12088269D02*
X9828753Y-12135888D01*
X9828753Y-12135888D02*
X9819229Y-12154936D01*
X9819229Y-12154936D02*
X9809706Y-12164460D01*
X9809706Y-12164460D02*
X9790658Y-12173984D01*
X9790658Y-12173984D02*
X9733515Y-12173984D01*
X9733515Y-12173984D02*
X9714467Y-12164460D01*
X9714467Y-12164460D02*
X9704944Y-12154936D01*
X9952563Y-11973984D02*
X9971610Y-11973984D01*
X9971610Y-11973984D02*
X9990658Y-11983508D01*
X9990658Y-11983508D02*
X10000182Y-11993031D01*
X10000182Y-11993031D02*
X10009706Y-12012079D01*
X10009706Y-12012079D02*
X10019229Y-12050174D01*
X10019229Y-12050174D02*
X10019229Y-12097793D01*
X10019229Y-12097793D02*
X10009706Y-12135888D01*
X10009706Y-12135888D02*
X10000182Y-12154936D01*
X10000182Y-12154936D02*
X9990658Y-12164460D01*
X9990658Y-12164460D02*
X9971610Y-12173984D01*
X9971610Y-12173984D02*
X9952563Y-12173984D01*
X9952563Y-12173984D02*
X9933515Y-12164460D01*
X9933515Y-12164460D02*
X9923991Y-12154936D01*
X9923991Y-12154936D02*
X9914467Y-12135888D01*
X9914467Y-12135888D02*
X9904944Y-12097793D01*
X9904944Y-12097793D02*
X9904944Y-12050174D01*
X9904944Y-12050174D02*
X9914467Y-12012079D01*
X9914467Y-12012079D02*
X9923991Y-11993031D01*
X9923991Y-11993031D02*
X9933515Y-11983508D01*
X9933515Y-11983508D02*
X9952563Y-11973984D01*
X10143039Y-11973984D02*
X10162087Y-11973984D01*
X10162087Y-11973984D02*
X10181134Y-11983508D01*
X10181134Y-11983508D02*
X10190658Y-11993031D01*
X10190658Y-11993031D02*
X10200182Y-12012079D01*
X10200182Y-12012079D02*
X10209706Y-12050174D01*
X10209706Y-12050174D02*
X10209706Y-12097793D01*
X10209706Y-12097793D02*
X10200182Y-12135888D01*
X10200182Y-12135888D02*
X10190658Y-12154936D01*
X10190658Y-12154936D02*
X10181134Y-12164460D01*
X10181134Y-12164460D02*
X10162087Y-12173984D01*
X10162087Y-12173984D02*
X10143039Y-12173984D01*
X10143039Y-12173984D02*
X10123991Y-12164460D01*
X10123991Y-12164460D02*
X10114467Y-12154936D01*
X10114467Y-12154936D02*
X10104944Y-12135888D01*
X10104944Y-12135888D02*
X10095420Y-12097793D01*
X10095420Y-12097793D02*
X10095420Y-12050174D01*
X10095420Y-12050174D02*
X10104944Y-12012079D01*
X10104944Y-12012079D02*
X10114467Y-11993031D01*
X10114467Y-11993031D02*
X10123991Y-11983508D01*
X10123991Y-11983508D02*
X10143039Y-11973984D01*
X10295420Y-12173984D02*
X10295420Y-12040650D01*
X10295420Y-12059698D02*
X10304944Y-12050174D01*
X10304944Y-12050174D02*
X10323991Y-12040650D01*
X10323991Y-12040650D02*
X10352563Y-12040650D01*
X10352563Y-12040650D02*
X10371610Y-12050174D01*
X10371610Y-12050174D02*
X10381134Y-12069222D01*
X10381134Y-12069222D02*
X10381134Y-12173984D01*
X10381134Y-12069222D02*
X10390658Y-12050174D01*
X10390658Y-12050174D02*
X10409706Y-12040650D01*
X10409706Y-12040650D02*
X10438277Y-12040650D01*
X10438277Y-12040650D02*
X10457325Y-12050174D01*
X10457325Y-12050174D02*
X10466848Y-12069222D01*
X10466848Y-12069222D02*
X10466848Y-12173984D01*
X10562087Y-12173984D02*
X10562087Y-12040650D01*
X10562087Y-12059698D02*
X10571610Y-12050174D01*
X10571610Y-12050174D02*
X10590658Y-12040650D01*
X10590658Y-12040650D02*
X10619229Y-12040650D01*
X10619229Y-12040650D02*
X10638277Y-12050174D01*
X10638277Y-12050174D02*
X10647801Y-12069222D01*
X10647801Y-12069222D02*
X10647801Y-12173984D01*
X10647801Y-12069222D02*
X10657325Y-12050174D01*
X10657325Y-12050174D02*
X10676372Y-12040650D01*
X10676372Y-12040650D02*
X10704944Y-12040650D01*
X10704944Y-12040650D02*
X10723991Y-12050174D01*
X10723991Y-12050174D02*
X10733515Y-12069222D01*
X10733515Y-12069222D02*
X10733515Y-12173984D01*
X11123991Y-11964460D02*
X10952563Y-12221603D01*
X11381134Y-11973984D02*
X11400182Y-11973984D01*
X11400182Y-11973984D02*
X11419229Y-11983508D01*
X11419229Y-11983508D02*
X11428753Y-11993031D01*
X11428753Y-11993031D02*
X11438277Y-12012079D01*
X11438277Y-12012079D02*
X11447801Y-12050174D01*
X11447801Y-12050174D02*
X11447801Y-12097793D01*
X11447801Y-12097793D02*
X11438277Y-12135888D01*
X11438277Y-12135888D02*
X11428753Y-12154936D01*
X11428753Y-12154936D02*
X11419229Y-12164460D01*
X11419229Y-12164460D02*
X11400182Y-12173984D01*
X11400182Y-12173984D02*
X11381134Y-12173984D01*
X11381134Y-12173984D02*
X11362087Y-12164460D01*
X11362087Y-12164460D02*
X11352563Y-12154936D01*
X11352563Y-12154936D02*
X11343039Y-12135888D01*
X11343039Y-12135888D02*
X11333515Y-12097793D01*
X11333515Y-12097793D02*
X11333515Y-12050174D01*
X11333515Y-12050174D02*
X11343039Y-12012079D01*
X11343039Y-12012079D02*
X11352563Y-11993031D01*
X11352563Y-11993031D02*
X11362087Y-11983508D01*
X11362087Y-11983508D02*
X11381134Y-11973984D01*
X11533515Y-12154936D02*
X11543039Y-12164460D01*
X11543039Y-12164460D02*
X11533515Y-12173984D01*
X11533515Y-12173984D02*
X11523991Y-12164460D01*
X11523991Y-12164460D02*
X11533515Y-12154936D01*
X11533515Y-12154936D02*
X11533515Y-12173984D01*
X11666848Y-11973984D02*
X11685896Y-11973984D01*
X11685896Y-11973984D02*
X11704944Y-11983508D01*
X11704944Y-11983508D02*
X11714468Y-11993031D01*
X11714468Y-11993031D02*
X11723991Y-12012079D01*
X11723991Y-12012079D02*
X11733515Y-12050174D01*
X11733515Y-12050174D02*
X11733515Y-12097793D01*
X11733515Y-12097793D02*
X11723991Y-12135888D01*
X11723991Y-12135888D02*
X11714468Y-12154936D01*
X11714468Y-12154936D02*
X11704944Y-12164460D01*
X11704944Y-12164460D02*
X11685896Y-12173984D01*
X11685896Y-12173984D02*
X11666848Y-12173984D01*
X11666848Y-12173984D02*
X11647801Y-12164460D01*
X11647801Y-12164460D02*
X11638277Y-12154936D01*
X11638277Y-12154936D02*
X11628753Y-12135888D01*
X11628753Y-12135888D02*
X11619229Y-12097793D01*
X11619229Y-12097793D02*
X11619229Y-12050174D01*
X11619229Y-12050174D02*
X11628753Y-12012079D01*
X11628753Y-12012079D02*
X11638277Y-11993031D01*
X11638277Y-11993031D02*
X11647801Y-11983508D01*
X11647801Y-11983508D02*
X11666848Y-11973984D01*
X11923991Y-12173984D02*
X11809706Y-12173984D01*
X11866848Y-12173984D02*
X11866848Y-11973984D01*
X11866848Y-11973984D02*
X11847801Y-12002555D01*
X11847801Y-12002555D02*
X11828753Y-12021603D01*
X11828753Y-12021603D02*
X11809706Y-12031127D01*
X12114468Y-12173984D02*
X12000182Y-12173984D01*
X12057325Y-12173984D02*
X12057325Y-11973984D01*
X12057325Y-11973984D02*
X12038277Y-12002555D01*
X12038277Y-12002555D02*
X12019229Y-12021603D01*
X12019229Y-12021603D02*
X12000182Y-12031127D01*
X12228753Y-12059698D02*
X12209706Y-12050174D01*
X12209706Y-12050174D02*
X12200182Y-12040650D01*
X12200182Y-12040650D02*
X12190658Y-12021603D01*
X12190658Y-12021603D02*
X12190658Y-12012079D01*
X12190658Y-12012079D02*
X12200182Y-11993031D01*
X12200182Y-11993031D02*
X12209706Y-11983508D01*
X12209706Y-11983508D02*
X12228753Y-11973984D01*
X12228753Y-11973984D02*
X12266849Y-11973984D01*
X12266849Y-11973984D02*
X12285896Y-11983508D01*
X12285896Y-11983508D02*
X12295420Y-11993031D01*
X12295420Y-11993031D02*
X12304944Y-12012079D01*
X12304944Y-12012079D02*
X12304944Y-12021603D01*
X12304944Y-12021603D02*
X12295420Y-12040650D01*
X12295420Y-12040650D02*
X12285896Y-12050174D01*
X12285896Y-12050174D02*
X12266849Y-12059698D01*
X12266849Y-12059698D02*
X12228753Y-12059698D01*
X12228753Y-12059698D02*
X12209706Y-12069222D01*
X12209706Y-12069222D02*
X12200182Y-12078746D01*
X12200182Y-12078746D02*
X12190658Y-12097793D01*
X12190658Y-12097793D02*
X12190658Y-12135888D01*
X12190658Y-12135888D02*
X12200182Y-12154936D01*
X12200182Y-12154936D02*
X12209706Y-12164460D01*
X12209706Y-12164460D02*
X12228753Y-12173984D01*
X12228753Y-12173984D02*
X12266849Y-12173984D01*
X12266849Y-12173984D02*
X12285896Y-12164460D01*
X12285896Y-12164460D02*
X12295420Y-12154936D01*
X12295420Y-12154936D02*
X12304944Y-12135888D01*
X12304944Y-12135888D02*
X12304944Y-12097793D01*
X12304944Y-12097793D02*
X12295420Y-12078746D01*
X12295420Y-12078746D02*
X12285896Y-12069222D01*
X12285896Y-12069222D02*
X12266849Y-12059698D01*
X12381134Y-11973984D02*
X12381134Y-12012079D01*
X12457325Y-11973984D02*
X12457325Y-12012079D01*
X12752563Y-12250174D02*
X12743039Y-12240650D01*
X12743039Y-12240650D02*
X12723991Y-12212079D01*
X12723991Y-12212079D02*
X12714468Y-12193031D01*
X12714468Y-12193031D02*
X12704944Y-12164460D01*
X12704944Y-12164460D02*
X12695420Y-12116841D01*
X12695420Y-12116841D02*
X12695420Y-12078746D01*
X12695420Y-12078746D02*
X12704944Y-12031127D01*
X12704944Y-12031127D02*
X12714468Y-12002555D01*
X12714468Y-12002555D02*
X12723991Y-11983508D01*
X12723991Y-11983508D02*
X12743039Y-11954936D01*
X12743039Y-11954936D02*
X12752563Y-11945412D01*
X12933515Y-12173984D02*
X12819230Y-12173984D01*
X12876372Y-12173984D02*
X12876372Y-11973984D01*
X12876372Y-11973984D02*
X12857325Y-12002555D01*
X12857325Y-12002555D02*
X12838277Y-12021603D01*
X12838277Y-12021603D02*
X12819230Y-12031127D01*
X13009706Y-11993031D02*
X13019230Y-11983508D01*
X13019230Y-11983508D02*
X13038277Y-11973984D01*
X13038277Y-11973984D02*
X13085896Y-11973984D01*
X13085896Y-11973984D02*
X13104944Y-11983508D01*
X13104944Y-11983508D02*
X13114468Y-11993031D01*
X13114468Y-11993031D02*
X13123991Y-12012079D01*
X13123991Y-12012079D02*
X13123991Y-12031127D01*
X13123991Y-12031127D02*
X13114468Y-12059698D01*
X13114468Y-12059698D02*
X13000182Y-12173984D01*
X13000182Y-12173984D02*
X13123991Y-12173984D01*
X13190658Y-11973984D02*
X13323991Y-11973984D01*
X13323991Y-11973984D02*
X13238277Y-12173984D01*
X13552563Y-12173984D02*
X13552563Y-11973984D01*
X13638277Y-12173984D02*
X13638277Y-12069222D01*
X13638277Y-12069222D02*
X13628753Y-12050174D01*
X13628753Y-12050174D02*
X13609706Y-12040650D01*
X13609706Y-12040650D02*
X13581134Y-12040650D01*
X13581134Y-12040650D02*
X13562087Y-12050174D01*
X13562087Y-12050174D02*
X13552563Y-12059698D01*
X13762087Y-12173984D02*
X13743039Y-12164460D01*
X13743039Y-12164460D02*
X13733515Y-12154936D01*
X13733515Y-12154936D02*
X13723992Y-12135888D01*
X13723992Y-12135888D02*
X13723992Y-12078746D01*
X13723992Y-12078746D02*
X13733515Y-12059698D01*
X13733515Y-12059698D02*
X13743039Y-12050174D01*
X13743039Y-12050174D02*
X13762087Y-12040650D01*
X13762087Y-12040650D02*
X13790658Y-12040650D01*
X13790658Y-12040650D02*
X13809706Y-12050174D01*
X13809706Y-12050174D02*
X13819230Y-12059698D01*
X13819230Y-12059698D02*
X13828753Y-12078746D01*
X13828753Y-12078746D02*
X13828753Y-12135888D01*
X13828753Y-12135888D02*
X13819230Y-12154936D01*
X13819230Y-12154936D02*
X13809706Y-12164460D01*
X13809706Y-12164460D02*
X13790658Y-12173984D01*
X13790658Y-12173984D02*
X13762087Y-12173984D01*
X13943039Y-12173984D02*
X13923992Y-12164460D01*
X13923992Y-12164460D02*
X13914468Y-12145412D01*
X13914468Y-12145412D02*
X13914468Y-11973984D01*
X14095420Y-12164460D02*
X14076373Y-12173984D01*
X14076373Y-12173984D02*
X14038277Y-12173984D01*
X14038277Y-12173984D02*
X14019230Y-12164460D01*
X14019230Y-12164460D02*
X14009706Y-12145412D01*
X14009706Y-12145412D02*
X14009706Y-12069222D01*
X14009706Y-12069222D02*
X14019230Y-12050174D01*
X14019230Y-12050174D02*
X14038277Y-12040650D01*
X14038277Y-12040650D02*
X14076373Y-12040650D01*
X14076373Y-12040650D02*
X14095420Y-12050174D01*
X14095420Y-12050174D02*
X14104944Y-12069222D01*
X14104944Y-12069222D02*
X14104944Y-12088269D01*
X14104944Y-12088269D02*
X14009706Y-12107317D01*
X14181134Y-12164460D02*
X14200182Y-12173984D01*
X14200182Y-12173984D02*
X14238277Y-12173984D01*
X14238277Y-12173984D02*
X14257325Y-12164460D01*
X14257325Y-12164460D02*
X14266849Y-12145412D01*
X14266849Y-12145412D02*
X14266849Y-12135888D01*
X14266849Y-12135888D02*
X14257325Y-12116841D01*
X14257325Y-12116841D02*
X14238277Y-12107317D01*
X14238277Y-12107317D02*
X14209706Y-12107317D01*
X14209706Y-12107317D02*
X14190658Y-12097793D01*
X14190658Y-12097793D02*
X14181134Y-12078746D01*
X14181134Y-12078746D02*
X14181134Y-12069222D01*
X14181134Y-12069222D02*
X14190658Y-12050174D01*
X14190658Y-12050174D02*
X14209706Y-12040650D01*
X14209706Y-12040650D02*
X14238277Y-12040650D01*
X14238277Y-12040650D02*
X14257325Y-12050174D01*
X14333515Y-12250174D02*
X14343039Y-12240650D01*
X14343039Y-12240650D02*
X14362087Y-12212079D01*
X14362087Y-12212079D02*
X14371611Y-12193031D01*
X14371611Y-12193031D02*
X14381134Y-12164460D01*
X14381134Y-12164460D02*
X14390658Y-12116841D01*
X14390658Y-12116841D02*
X14390658Y-12078746D01*
X14390658Y-12078746D02*
X14381134Y-12031127D01*
X14381134Y-12031127D02*
X14371611Y-12002555D01*
X14371611Y-12002555D02*
X14362087Y-11983508D01*
X14362087Y-11983508D02*
X14343039Y-11954936D01*
X14343039Y-11954936D02*
X14333515Y-11945412D01*
D12*
X9177500Y-12346500D02*
G75*
G02*
X9127500Y-12346500I-25000J0D01*
G01*
X9127500Y-12346500D02*
G75*
G02*
X9177500Y-12346500I25000J0D01*
G01*
D11*
X9476372Y-12237984D02*
X9495420Y-12237984D01*
X9495420Y-12237984D02*
X9514467Y-12247508D01*
X9514467Y-12247508D02*
X9523991Y-12257031D01*
X9523991Y-12257031D02*
X9533515Y-12276079D01*
X9533515Y-12276079D02*
X9543039Y-12314174D01*
X9543039Y-12314174D02*
X9543039Y-12361793D01*
X9543039Y-12361793D02*
X9533515Y-12399888D01*
X9533515Y-12399888D02*
X9523991Y-12418936D01*
X9523991Y-12418936D02*
X9514467Y-12428460D01*
X9514467Y-12428460D02*
X9495420Y-12437984D01*
X9495420Y-12437984D02*
X9476372Y-12437984D01*
X9476372Y-12437984D02*
X9457325Y-12428460D01*
X9457325Y-12428460D02*
X9447801Y-12418936D01*
X9447801Y-12418936D02*
X9438277Y-12399888D01*
X9438277Y-12399888D02*
X9428753Y-12361793D01*
X9428753Y-12361793D02*
X9428753Y-12314174D01*
X9428753Y-12314174D02*
X9438277Y-12276079D01*
X9438277Y-12276079D02*
X9447801Y-12257031D01*
X9447801Y-12257031D02*
X9457325Y-12247508D01*
X9457325Y-12247508D02*
X9476372Y-12237984D01*
X9628753Y-12418936D02*
X9638277Y-12428460D01*
X9638277Y-12428460D02*
X9628753Y-12437984D01*
X9628753Y-12437984D02*
X9619229Y-12428460D01*
X9619229Y-12428460D02*
X9628753Y-12418936D01*
X9628753Y-12418936D02*
X9628753Y-12437984D01*
X9819229Y-12237984D02*
X9723991Y-12237984D01*
X9723991Y-12237984D02*
X9714467Y-12333222D01*
X9714467Y-12333222D02*
X9723991Y-12323698D01*
X9723991Y-12323698D02*
X9743039Y-12314174D01*
X9743039Y-12314174D02*
X9790658Y-12314174D01*
X9790658Y-12314174D02*
X9809706Y-12323698D01*
X9809706Y-12323698D02*
X9819229Y-12333222D01*
X9819229Y-12333222D02*
X9828753Y-12352269D01*
X9828753Y-12352269D02*
X9828753Y-12399888D01*
X9828753Y-12399888D02*
X9819229Y-12418936D01*
X9819229Y-12418936D02*
X9809706Y-12428460D01*
X9809706Y-12428460D02*
X9790658Y-12437984D01*
X9790658Y-12437984D02*
X9743039Y-12437984D01*
X9743039Y-12437984D02*
X9723991Y-12428460D01*
X9723991Y-12428460D02*
X9714467Y-12418936D01*
X9952563Y-12237984D02*
X9971610Y-12237984D01*
X9971610Y-12237984D02*
X9990658Y-12247508D01*
X9990658Y-12247508D02*
X10000182Y-12257031D01*
X10000182Y-12257031D02*
X10009706Y-12276079D01*
X10009706Y-12276079D02*
X10019229Y-12314174D01*
X10019229Y-12314174D02*
X10019229Y-12361793D01*
X10019229Y-12361793D02*
X10009706Y-12399888D01*
X10009706Y-12399888D02*
X10000182Y-12418936D01*
X10000182Y-12418936D02*
X9990658Y-12428460D01*
X9990658Y-12428460D02*
X9971610Y-12437984D01*
X9971610Y-12437984D02*
X9952563Y-12437984D01*
X9952563Y-12437984D02*
X9933515Y-12428460D01*
X9933515Y-12428460D02*
X9923991Y-12418936D01*
X9923991Y-12418936D02*
X9914467Y-12399888D01*
X9914467Y-12399888D02*
X9904944Y-12361793D01*
X9904944Y-12361793D02*
X9904944Y-12314174D01*
X9904944Y-12314174D02*
X9914467Y-12276079D01*
X9914467Y-12276079D02*
X9923991Y-12257031D01*
X9923991Y-12257031D02*
X9933515Y-12247508D01*
X9933515Y-12247508D02*
X9952563Y-12237984D01*
X10143039Y-12237984D02*
X10162087Y-12237984D01*
X10162087Y-12237984D02*
X10181134Y-12247508D01*
X10181134Y-12247508D02*
X10190658Y-12257031D01*
X10190658Y-12257031D02*
X10200182Y-12276079D01*
X10200182Y-12276079D02*
X10209706Y-12314174D01*
X10209706Y-12314174D02*
X10209706Y-12361793D01*
X10209706Y-12361793D02*
X10200182Y-12399888D01*
X10200182Y-12399888D02*
X10190658Y-12418936D01*
X10190658Y-12418936D02*
X10181134Y-12428460D01*
X10181134Y-12428460D02*
X10162087Y-12437984D01*
X10162087Y-12437984D02*
X10143039Y-12437984D01*
X10143039Y-12437984D02*
X10123991Y-12428460D01*
X10123991Y-12428460D02*
X10114467Y-12418936D01*
X10114467Y-12418936D02*
X10104944Y-12399888D01*
X10104944Y-12399888D02*
X10095420Y-12361793D01*
X10095420Y-12361793D02*
X10095420Y-12314174D01*
X10095420Y-12314174D02*
X10104944Y-12276079D01*
X10104944Y-12276079D02*
X10114467Y-12257031D01*
X10114467Y-12257031D02*
X10123991Y-12247508D01*
X10123991Y-12247508D02*
X10143039Y-12237984D01*
X10295420Y-12437984D02*
X10295420Y-12304650D01*
X10295420Y-12323698D02*
X10304944Y-12314174D01*
X10304944Y-12314174D02*
X10323991Y-12304650D01*
X10323991Y-12304650D02*
X10352563Y-12304650D01*
X10352563Y-12304650D02*
X10371610Y-12314174D01*
X10371610Y-12314174D02*
X10381134Y-12333222D01*
X10381134Y-12333222D02*
X10381134Y-12437984D01*
X10381134Y-12333222D02*
X10390658Y-12314174D01*
X10390658Y-12314174D02*
X10409706Y-12304650D01*
X10409706Y-12304650D02*
X10438277Y-12304650D01*
X10438277Y-12304650D02*
X10457325Y-12314174D01*
X10457325Y-12314174D02*
X10466848Y-12333222D01*
X10466848Y-12333222D02*
X10466848Y-12437984D01*
X10562087Y-12437984D02*
X10562087Y-12304650D01*
X10562087Y-12323698D02*
X10571610Y-12314174D01*
X10571610Y-12314174D02*
X10590658Y-12304650D01*
X10590658Y-12304650D02*
X10619229Y-12304650D01*
X10619229Y-12304650D02*
X10638277Y-12314174D01*
X10638277Y-12314174D02*
X10647801Y-12333222D01*
X10647801Y-12333222D02*
X10647801Y-12437984D01*
X10647801Y-12333222D02*
X10657325Y-12314174D01*
X10657325Y-12314174D02*
X10676372Y-12304650D01*
X10676372Y-12304650D02*
X10704944Y-12304650D01*
X10704944Y-12304650D02*
X10723991Y-12314174D01*
X10723991Y-12314174D02*
X10733515Y-12333222D01*
X10733515Y-12333222D02*
X10733515Y-12437984D01*
X11123991Y-12228460D02*
X10952563Y-12485603D01*
X11381134Y-12237984D02*
X11400182Y-12237984D01*
X11400182Y-12237984D02*
X11419229Y-12247508D01*
X11419229Y-12247508D02*
X11428753Y-12257031D01*
X11428753Y-12257031D02*
X11438277Y-12276079D01*
X11438277Y-12276079D02*
X11447801Y-12314174D01*
X11447801Y-12314174D02*
X11447801Y-12361793D01*
X11447801Y-12361793D02*
X11438277Y-12399888D01*
X11438277Y-12399888D02*
X11428753Y-12418936D01*
X11428753Y-12418936D02*
X11419229Y-12428460D01*
X11419229Y-12428460D02*
X11400182Y-12437984D01*
X11400182Y-12437984D02*
X11381134Y-12437984D01*
X11381134Y-12437984D02*
X11362087Y-12428460D01*
X11362087Y-12428460D02*
X11352563Y-12418936D01*
X11352563Y-12418936D02*
X11343039Y-12399888D01*
X11343039Y-12399888D02*
X11333515Y-12361793D01*
X11333515Y-12361793D02*
X11333515Y-12314174D01*
X11333515Y-12314174D02*
X11343039Y-12276079D01*
X11343039Y-12276079D02*
X11352563Y-12257031D01*
X11352563Y-12257031D02*
X11362087Y-12247508D01*
X11362087Y-12247508D02*
X11381134Y-12237984D01*
X11533515Y-12418936D02*
X11543039Y-12428460D01*
X11543039Y-12428460D02*
X11533515Y-12437984D01*
X11533515Y-12437984D02*
X11523991Y-12428460D01*
X11523991Y-12428460D02*
X11533515Y-12418936D01*
X11533515Y-12418936D02*
X11533515Y-12437984D01*
X11666848Y-12237984D02*
X11685896Y-12237984D01*
X11685896Y-12237984D02*
X11704944Y-12247508D01*
X11704944Y-12247508D02*
X11714468Y-12257031D01*
X11714468Y-12257031D02*
X11723991Y-12276079D01*
X11723991Y-12276079D02*
X11733515Y-12314174D01*
X11733515Y-12314174D02*
X11733515Y-12361793D01*
X11733515Y-12361793D02*
X11723991Y-12399888D01*
X11723991Y-12399888D02*
X11714468Y-12418936D01*
X11714468Y-12418936D02*
X11704944Y-12428460D01*
X11704944Y-12428460D02*
X11685896Y-12437984D01*
X11685896Y-12437984D02*
X11666848Y-12437984D01*
X11666848Y-12437984D02*
X11647801Y-12428460D01*
X11647801Y-12428460D02*
X11638277Y-12418936D01*
X11638277Y-12418936D02*
X11628753Y-12399888D01*
X11628753Y-12399888D02*
X11619229Y-12361793D01*
X11619229Y-12361793D02*
X11619229Y-12314174D01*
X11619229Y-12314174D02*
X11628753Y-12276079D01*
X11628753Y-12276079D02*
X11638277Y-12257031D01*
X11638277Y-12257031D02*
X11647801Y-12247508D01*
X11647801Y-12247508D02*
X11666848Y-12237984D01*
X11923991Y-12437984D02*
X11809706Y-12437984D01*
X11866848Y-12437984D02*
X11866848Y-12237984D01*
X11866848Y-12237984D02*
X11847801Y-12266555D01*
X11847801Y-12266555D02*
X11828753Y-12285603D01*
X11828753Y-12285603D02*
X11809706Y-12295127D01*
X12019229Y-12437984D02*
X12057325Y-12437984D01*
X12057325Y-12437984D02*
X12076372Y-12428460D01*
X12076372Y-12428460D02*
X12085896Y-12418936D01*
X12085896Y-12418936D02*
X12104944Y-12390365D01*
X12104944Y-12390365D02*
X12114468Y-12352269D01*
X12114468Y-12352269D02*
X12114468Y-12276079D01*
X12114468Y-12276079D02*
X12104944Y-12257031D01*
X12104944Y-12257031D02*
X12095420Y-12247508D01*
X12095420Y-12247508D02*
X12076372Y-12237984D01*
X12076372Y-12237984D02*
X12038277Y-12237984D01*
X12038277Y-12237984D02*
X12019229Y-12247508D01*
X12019229Y-12247508D02*
X12009706Y-12257031D01*
X12009706Y-12257031D02*
X12000182Y-12276079D01*
X12000182Y-12276079D02*
X12000182Y-12323698D01*
X12000182Y-12323698D02*
X12009706Y-12342746D01*
X12009706Y-12342746D02*
X12019229Y-12352269D01*
X12019229Y-12352269D02*
X12038277Y-12361793D01*
X12038277Y-12361793D02*
X12076372Y-12361793D01*
X12076372Y-12361793D02*
X12095420Y-12352269D01*
X12095420Y-12352269D02*
X12104944Y-12342746D01*
X12104944Y-12342746D02*
X12114468Y-12323698D01*
X12181134Y-12237984D02*
X12314468Y-12237984D01*
X12314468Y-12237984D02*
X12228753Y-12437984D01*
X12381134Y-12237984D02*
X12381134Y-12276079D01*
X12457325Y-12237984D02*
X12457325Y-12276079D01*
X12752563Y-12514174D02*
X12743039Y-12504650D01*
X12743039Y-12504650D02*
X12723991Y-12476079D01*
X12723991Y-12476079D02*
X12714468Y-12457031D01*
X12714468Y-12457031D02*
X12704944Y-12428460D01*
X12704944Y-12428460D02*
X12695420Y-12380841D01*
X12695420Y-12380841D02*
X12695420Y-12342746D01*
X12695420Y-12342746D02*
X12704944Y-12295127D01*
X12704944Y-12295127D02*
X12714468Y-12266555D01*
X12714468Y-12266555D02*
X12723991Y-12247508D01*
X12723991Y-12247508D02*
X12743039Y-12218936D01*
X12743039Y-12218936D02*
X12752563Y-12209412D01*
X12838277Y-12437984D02*
X12876372Y-12437984D01*
X12876372Y-12437984D02*
X12895420Y-12428460D01*
X12895420Y-12428460D02*
X12904944Y-12418936D01*
X12904944Y-12418936D02*
X12923991Y-12390365D01*
X12923991Y-12390365D02*
X12933515Y-12352269D01*
X12933515Y-12352269D02*
X12933515Y-12276079D01*
X12933515Y-12276079D02*
X12923991Y-12257031D01*
X12923991Y-12257031D02*
X12914468Y-12247508D01*
X12914468Y-12247508D02*
X12895420Y-12237984D01*
X12895420Y-12237984D02*
X12857325Y-12237984D01*
X12857325Y-12237984D02*
X12838277Y-12247508D01*
X12838277Y-12247508D02*
X12828753Y-12257031D01*
X12828753Y-12257031D02*
X12819230Y-12276079D01*
X12819230Y-12276079D02*
X12819230Y-12323698D01*
X12819230Y-12323698D02*
X12828753Y-12342746D01*
X12828753Y-12342746D02*
X12838277Y-12352269D01*
X12838277Y-12352269D02*
X12857325Y-12361793D01*
X12857325Y-12361793D02*
X12895420Y-12361793D01*
X12895420Y-12361793D02*
X12914468Y-12352269D01*
X12914468Y-12352269D02*
X12923991Y-12342746D01*
X12923991Y-12342746D02*
X12933515Y-12323698D01*
X13171611Y-12437984D02*
X13171611Y-12237984D01*
X13257325Y-12437984D02*
X13257325Y-12333222D01*
X13257325Y-12333222D02*
X13247801Y-12314174D01*
X13247801Y-12314174D02*
X13228753Y-12304650D01*
X13228753Y-12304650D02*
X13200182Y-12304650D01*
X13200182Y-12304650D02*
X13181134Y-12314174D01*
X13181134Y-12314174D02*
X13171611Y-12323698D01*
X13381134Y-12437984D02*
X13362087Y-12428460D01*
X13362087Y-12428460D02*
X13352563Y-12418936D01*
X13352563Y-12418936D02*
X13343039Y-12399888D01*
X13343039Y-12399888D02*
X13343039Y-12342746D01*
X13343039Y-12342746D02*
X13352563Y-12323698D01*
X13352563Y-12323698D02*
X13362087Y-12314174D01*
X13362087Y-12314174D02*
X13381134Y-12304650D01*
X13381134Y-12304650D02*
X13409706Y-12304650D01*
X13409706Y-12304650D02*
X13428753Y-12314174D01*
X13428753Y-12314174D02*
X13438277Y-12323698D01*
X13438277Y-12323698D02*
X13447801Y-12342746D01*
X13447801Y-12342746D02*
X13447801Y-12399888D01*
X13447801Y-12399888D02*
X13438277Y-12418936D01*
X13438277Y-12418936D02*
X13428753Y-12428460D01*
X13428753Y-12428460D02*
X13409706Y-12437984D01*
X13409706Y-12437984D02*
X13381134Y-12437984D01*
X13562087Y-12437984D02*
X13543039Y-12428460D01*
X13543039Y-12428460D02*
X13533515Y-12409412D01*
X13533515Y-12409412D02*
X13533515Y-12237984D01*
X13714468Y-12428460D02*
X13695420Y-12437984D01*
X13695420Y-12437984D02*
X13657325Y-12437984D01*
X13657325Y-12437984D02*
X13638277Y-12428460D01*
X13638277Y-12428460D02*
X13628753Y-12409412D01*
X13628753Y-12409412D02*
X13628753Y-12333222D01*
X13628753Y-12333222D02*
X13638277Y-12314174D01*
X13638277Y-12314174D02*
X13657325Y-12304650D01*
X13657325Y-12304650D02*
X13695420Y-12304650D01*
X13695420Y-12304650D02*
X13714468Y-12314174D01*
X13714468Y-12314174D02*
X13723992Y-12333222D01*
X13723992Y-12333222D02*
X13723992Y-12352269D01*
X13723992Y-12352269D02*
X13628753Y-12371317D01*
X13800182Y-12428460D02*
X13819230Y-12437984D01*
X13819230Y-12437984D02*
X13857325Y-12437984D01*
X13857325Y-12437984D02*
X13876373Y-12428460D01*
X13876373Y-12428460D02*
X13885896Y-12409412D01*
X13885896Y-12409412D02*
X13885896Y-12399888D01*
X13885896Y-12399888D02*
X13876373Y-12380841D01*
X13876373Y-12380841D02*
X13857325Y-12371317D01*
X13857325Y-12371317D02*
X13828753Y-12371317D01*
X13828753Y-12371317D02*
X13809706Y-12361793D01*
X13809706Y-12361793D02*
X13800182Y-12342746D01*
X13800182Y-12342746D02*
X13800182Y-12333222D01*
X13800182Y-12333222D02*
X13809706Y-12314174D01*
X13809706Y-12314174D02*
X13828753Y-12304650D01*
X13828753Y-12304650D02*
X13857325Y-12304650D01*
X13857325Y-12304650D02*
X13876373Y-12314174D01*
X13952563Y-12514174D02*
X13962087Y-12504650D01*
X13962087Y-12504650D02*
X13981134Y-12476079D01*
X13981134Y-12476079D02*
X13990658Y-12457031D01*
X13990658Y-12457031D02*
X14000182Y-12428460D01*
X14000182Y-12428460D02*
X14009706Y-12380841D01*
X14009706Y-12380841D02*
X14009706Y-12342746D01*
X14009706Y-12342746D02*
X14000182Y-12295127D01*
X14000182Y-12295127D02*
X13990658Y-12266555D01*
X13990658Y-12266555D02*
X13981134Y-12247508D01*
X13981134Y-12247508D02*
X13962087Y-12218936D01*
X13962087Y-12218936D02*
X13952563Y-12209412D01*
D12*
X9147500Y-12580500D02*
X9147500Y-12640500D01*
X9117500Y-12610500D02*
X9177500Y-12610500D01*
D11*
X9476372Y-12501984D02*
X9495420Y-12501984D01*
X9495420Y-12501984D02*
X9514467Y-12511508D01*
X9514467Y-12511508D02*
X9523991Y-12521031D01*
X9523991Y-12521031D02*
X9533515Y-12540079D01*
X9533515Y-12540079D02*
X9543039Y-12578174D01*
X9543039Y-12578174D02*
X9543039Y-12625793D01*
X9543039Y-12625793D02*
X9533515Y-12663888D01*
X9533515Y-12663888D02*
X9523991Y-12682936D01*
X9523991Y-12682936D02*
X9514467Y-12692460D01*
X9514467Y-12692460D02*
X9495420Y-12701984D01*
X9495420Y-12701984D02*
X9476372Y-12701984D01*
X9476372Y-12701984D02*
X9457325Y-12692460D01*
X9457325Y-12692460D02*
X9447801Y-12682936D01*
X9447801Y-12682936D02*
X9438277Y-12663888D01*
X9438277Y-12663888D02*
X9428753Y-12625793D01*
X9428753Y-12625793D02*
X9428753Y-12578174D01*
X9428753Y-12578174D02*
X9438277Y-12540079D01*
X9438277Y-12540079D02*
X9447801Y-12521031D01*
X9447801Y-12521031D02*
X9457325Y-12511508D01*
X9457325Y-12511508D02*
X9476372Y-12501984D01*
X9628753Y-12682936D02*
X9638277Y-12692460D01*
X9638277Y-12692460D02*
X9628753Y-12701984D01*
X9628753Y-12701984D02*
X9619229Y-12692460D01*
X9619229Y-12692460D02*
X9628753Y-12682936D01*
X9628753Y-12682936D02*
X9628753Y-12701984D01*
X9809706Y-12501984D02*
X9771610Y-12501984D01*
X9771610Y-12501984D02*
X9752563Y-12511508D01*
X9752563Y-12511508D02*
X9743039Y-12521031D01*
X9743039Y-12521031D02*
X9723991Y-12549603D01*
X9723991Y-12549603D02*
X9714467Y-12587698D01*
X9714467Y-12587698D02*
X9714467Y-12663888D01*
X9714467Y-12663888D02*
X9723991Y-12682936D01*
X9723991Y-12682936D02*
X9733515Y-12692460D01*
X9733515Y-12692460D02*
X9752563Y-12701984D01*
X9752563Y-12701984D02*
X9790658Y-12701984D01*
X9790658Y-12701984D02*
X9809706Y-12692460D01*
X9809706Y-12692460D02*
X9819229Y-12682936D01*
X9819229Y-12682936D02*
X9828753Y-12663888D01*
X9828753Y-12663888D02*
X9828753Y-12616269D01*
X9828753Y-12616269D02*
X9819229Y-12597222D01*
X9819229Y-12597222D02*
X9809706Y-12587698D01*
X9809706Y-12587698D02*
X9790658Y-12578174D01*
X9790658Y-12578174D02*
X9752563Y-12578174D01*
X9752563Y-12578174D02*
X9733515Y-12587698D01*
X9733515Y-12587698D02*
X9723991Y-12597222D01*
X9723991Y-12597222D02*
X9714467Y-12616269D01*
X9952563Y-12501984D02*
X9971610Y-12501984D01*
X9971610Y-12501984D02*
X9990658Y-12511508D01*
X9990658Y-12511508D02*
X10000182Y-12521031D01*
X10000182Y-12521031D02*
X10009706Y-12540079D01*
X10009706Y-12540079D02*
X10019229Y-12578174D01*
X10019229Y-12578174D02*
X10019229Y-12625793D01*
X10019229Y-12625793D02*
X10009706Y-12663888D01*
X10009706Y-12663888D02*
X10000182Y-12682936D01*
X10000182Y-12682936D02*
X9990658Y-12692460D01*
X9990658Y-12692460D02*
X9971610Y-12701984D01*
X9971610Y-12701984D02*
X9952563Y-12701984D01*
X9952563Y-12701984D02*
X9933515Y-12692460D01*
X9933515Y-12692460D02*
X9923991Y-12682936D01*
X9923991Y-12682936D02*
X9914467Y-12663888D01*
X9914467Y-12663888D02*
X9904944Y-12625793D01*
X9904944Y-12625793D02*
X9904944Y-12578174D01*
X9904944Y-12578174D02*
X9914467Y-12540079D01*
X9914467Y-12540079D02*
X9923991Y-12521031D01*
X9923991Y-12521031D02*
X9933515Y-12511508D01*
X9933515Y-12511508D02*
X9952563Y-12501984D01*
X10143039Y-12501984D02*
X10162087Y-12501984D01*
X10162087Y-12501984D02*
X10181134Y-12511508D01*
X10181134Y-12511508D02*
X10190658Y-12521031D01*
X10190658Y-12521031D02*
X10200182Y-12540079D01*
X10200182Y-12540079D02*
X10209706Y-12578174D01*
X10209706Y-12578174D02*
X10209706Y-12625793D01*
X10209706Y-12625793D02*
X10200182Y-12663888D01*
X10200182Y-12663888D02*
X10190658Y-12682936D01*
X10190658Y-12682936D02*
X10181134Y-12692460D01*
X10181134Y-12692460D02*
X10162087Y-12701984D01*
X10162087Y-12701984D02*
X10143039Y-12701984D01*
X10143039Y-12701984D02*
X10123991Y-12692460D01*
X10123991Y-12692460D02*
X10114467Y-12682936D01*
X10114467Y-12682936D02*
X10104944Y-12663888D01*
X10104944Y-12663888D02*
X10095420Y-12625793D01*
X10095420Y-12625793D02*
X10095420Y-12578174D01*
X10095420Y-12578174D02*
X10104944Y-12540079D01*
X10104944Y-12540079D02*
X10114467Y-12521031D01*
X10114467Y-12521031D02*
X10123991Y-12511508D01*
X10123991Y-12511508D02*
X10143039Y-12501984D01*
X10295420Y-12701984D02*
X10295420Y-12568650D01*
X10295420Y-12587698D02*
X10304944Y-12578174D01*
X10304944Y-12578174D02*
X10323991Y-12568650D01*
X10323991Y-12568650D02*
X10352563Y-12568650D01*
X10352563Y-12568650D02*
X10371610Y-12578174D01*
X10371610Y-12578174D02*
X10381134Y-12597222D01*
X10381134Y-12597222D02*
X10381134Y-12701984D01*
X10381134Y-12597222D02*
X10390658Y-12578174D01*
X10390658Y-12578174D02*
X10409706Y-12568650D01*
X10409706Y-12568650D02*
X10438277Y-12568650D01*
X10438277Y-12568650D02*
X10457325Y-12578174D01*
X10457325Y-12578174D02*
X10466848Y-12597222D01*
X10466848Y-12597222D02*
X10466848Y-12701984D01*
X10562087Y-12701984D02*
X10562087Y-12568650D01*
X10562087Y-12587698D02*
X10571610Y-12578174D01*
X10571610Y-12578174D02*
X10590658Y-12568650D01*
X10590658Y-12568650D02*
X10619229Y-12568650D01*
X10619229Y-12568650D02*
X10638277Y-12578174D01*
X10638277Y-12578174D02*
X10647801Y-12597222D01*
X10647801Y-12597222D02*
X10647801Y-12701984D01*
X10647801Y-12597222D02*
X10657325Y-12578174D01*
X10657325Y-12578174D02*
X10676372Y-12568650D01*
X10676372Y-12568650D02*
X10704944Y-12568650D01*
X10704944Y-12568650D02*
X10723991Y-12578174D01*
X10723991Y-12578174D02*
X10733515Y-12597222D01*
X10733515Y-12597222D02*
X10733515Y-12701984D01*
X11123991Y-12492460D02*
X10952563Y-12749603D01*
X11381134Y-12501984D02*
X11400182Y-12501984D01*
X11400182Y-12501984D02*
X11419229Y-12511508D01*
X11419229Y-12511508D02*
X11428753Y-12521031D01*
X11428753Y-12521031D02*
X11438277Y-12540079D01*
X11438277Y-12540079D02*
X11447801Y-12578174D01*
X11447801Y-12578174D02*
X11447801Y-12625793D01*
X11447801Y-12625793D02*
X11438277Y-12663888D01*
X11438277Y-12663888D02*
X11428753Y-12682936D01*
X11428753Y-12682936D02*
X11419229Y-12692460D01*
X11419229Y-12692460D02*
X11400182Y-12701984D01*
X11400182Y-12701984D02*
X11381134Y-12701984D01*
X11381134Y-12701984D02*
X11362087Y-12692460D01*
X11362087Y-12692460D02*
X11352563Y-12682936D01*
X11352563Y-12682936D02*
X11343039Y-12663888D01*
X11343039Y-12663888D02*
X11333515Y-12625793D01*
X11333515Y-12625793D02*
X11333515Y-12578174D01*
X11333515Y-12578174D02*
X11343039Y-12540079D01*
X11343039Y-12540079D02*
X11352563Y-12521031D01*
X11352563Y-12521031D02*
X11362087Y-12511508D01*
X11362087Y-12511508D02*
X11381134Y-12501984D01*
X11533515Y-12682936D02*
X11543039Y-12692460D01*
X11543039Y-12692460D02*
X11533515Y-12701984D01*
X11533515Y-12701984D02*
X11523991Y-12692460D01*
X11523991Y-12692460D02*
X11533515Y-12682936D01*
X11533515Y-12682936D02*
X11533515Y-12701984D01*
X11666848Y-12501984D02*
X11685896Y-12501984D01*
X11685896Y-12501984D02*
X11704944Y-12511508D01*
X11704944Y-12511508D02*
X11714468Y-12521031D01*
X11714468Y-12521031D02*
X11723991Y-12540079D01*
X11723991Y-12540079D02*
X11733515Y-12578174D01*
X11733515Y-12578174D02*
X11733515Y-12625793D01*
X11733515Y-12625793D02*
X11723991Y-12663888D01*
X11723991Y-12663888D02*
X11714468Y-12682936D01*
X11714468Y-12682936D02*
X11704944Y-12692460D01*
X11704944Y-12692460D02*
X11685896Y-12701984D01*
X11685896Y-12701984D02*
X11666848Y-12701984D01*
X11666848Y-12701984D02*
X11647801Y-12692460D01*
X11647801Y-12692460D02*
X11638277Y-12682936D01*
X11638277Y-12682936D02*
X11628753Y-12663888D01*
X11628753Y-12663888D02*
X11619229Y-12625793D01*
X11619229Y-12625793D02*
X11619229Y-12578174D01*
X11619229Y-12578174D02*
X11628753Y-12540079D01*
X11628753Y-12540079D02*
X11638277Y-12521031D01*
X11638277Y-12521031D02*
X11647801Y-12511508D01*
X11647801Y-12511508D02*
X11666848Y-12501984D01*
X11809706Y-12521031D02*
X11819229Y-12511508D01*
X11819229Y-12511508D02*
X11838277Y-12501984D01*
X11838277Y-12501984D02*
X11885896Y-12501984D01*
X11885896Y-12501984D02*
X11904944Y-12511508D01*
X11904944Y-12511508D02*
X11914468Y-12521031D01*
X11914468Y-12521031D02*
X11923991Y-12540079D01*
X11923991Y-12540079D02*
X11923991Y-12559127D01*
X11923991Y-12559127D02*
X11914468Y-12587698D01*
X11914468Y-12587698D02*
X11800182Y-12701984D01*
X11800182Y-12701984D02*
X11923991Y-12701984D01*
X11990658Y-12501984D02*
X12114468Y-12501984D01*
X12114468Y-12501984D02*
X12047801Y-12578174D01*
X12047801Y-12578174D02*
X12076372Y-12578174D01*
X12076372Y-12578174D02*
X12095420Y-12587698D01*
X12095420Y-12587698D02*
X12104944Y-12597222D01*
X12104944Y-12597222D02*
X12114468Y-12616269D01*
X12114468Y-12616269D02*
X12114468Y-12663888D01*
X12114468Y-12663888D02*
X12104944Y-12682936D01*
X12104944Y-12682936D02*
X12095420Y-12692460D01*
X12095420Y-12692460D02*
X12076372Y-12701984D01*
X12076372Y-12701984D02*
X12019229Y-12701984D01*
X12019229Y-12701984D02*
X12000182Y-12692460D01*
X12000182Y-12692460D02*
X11990658Y-12682936D01*
X12285896Y-12501984D02*
X12247801Y-12501984D01*
X12247801Y-12501984D02*
X12228753Y-12511508D01*
X12228753Y-12511508D02*
X12219229Y-12521031D01*
X12219229Y-12521031D02*
X12200182Y-12549603D01*
X12200182Y-12549603D02*
X12190658Y-12587698D01*
X12190658Y-12587698D02*
X12190658Y-12663888D01*
X12190658Y-12663888D02*
X12200182Y-12682936D01*
X12200182Y-12682936D02*
X12209706Y-12692460D01*
X12209706Y-12692460D02*
X12228753Y-12701984D01*
X12228753Y-12701984D02*
X12266849Y-12701984D01*
X12266849Y-12701984D02*
X12285896Y-12692460D01*
X12285896Y-12692460D02*
X12295420Y-12682936D01*
X12295420Y-12682936D02*
X12304944Y-12663888D01*
X12304944Y-12663888D02*
X12304944Y-12616269D01*
X12304944Y-12616269D02*
X12295420Y-12597222D01*
X12295420Y-12597222D02*
X12285896Y-12587698D01*
X12285896Y-12587698D02*
X12266849Y-12578174D01*
X12266849Y-12578174D02*
X12228753Y-12578174D01*
X12228753Y-12578174D02*
X12209706Y-12587698D01*
X12209706Y-12587698D02*
X12200182Y-12597222D01*
X12200182Y-12597222D02*
X12190658Y-12616269D01*
X12381134Y-12501984D02*
X12381134Y-12540079D01*
X12457325Y-12501984D02*
X12457325Y-12540079D01*
X12752563Y-12778174D02*
X12743039Y-12768650D01*
X12743039Y-12768650D02*
X12723991Y-12740079D01*
X12723991Y-12740079D02*
X12714468Y-12721031D01*
X12714468Y-12721031D02*
X12704944Y-12692460D01*
X12704944Y-12692460D02*
X12695420Y-12644841D01*
X12695420Y-12644841D02*
X12695420Y-12606746D01*
X12695420Y-12606746D02*
X12704944Y-12559127D01*
X12704944Y-12559127D02*
X12714468Y-12530555D01*
X12714468Y-12530555D02*
X12723991Y-12511508D01*
X12723991Y-12511508D02*
X12743039Y-12482936D01*
X12743039Y-12482936D02*
X12752563Y-12473412D01*
X12866849Y-12501984D02*
X12885896Y-12501984D01*
X12885896Y-12501984D02*
X12904944Y-12511508D01*
X12904944Y-12511508D02*
X12914468Y-12521031D01*
X12914468Y-12521031D02*
X12923991Y-12540079D01*
X12923991Y-12540079D02*
X12933515Y-12578174D01*
X12933515Y-12578174D02*
X12933515Y-12625793D01*
X12933515Y-12625793D02*
X12923991Y-12663888D01*
X12923991Y-12663888D02*
X12914468Y-12682936D01*
X12914468Y-12682936D02*
X12904944Y-12692460D01*
X12904944Y-12692460D02*
X12885896Y-12701984D01*
X12885896Y-12701984D02*
X12866849Y-12701984D01*
X12866849Y-12701984D02*
X12847801Y-12692460D01*
X12847801Y-12692460D02*
X12838277Y-12682936D01*
X12838277Y-12682936D02*
X12828753Y-12663888D01*
X12828753Y-12663888D02*
X12819230Y-12625793D01*
X12819230Y-12625793D02*
X12819230Y-12578174D01*
X12819230Y-12578174D02*
X12828753Y-12540079D01*
X12828753Y-12540079D02*
X12838277Y-12521031D01*
X12838277Y-12521031D02*
X12847801Y-12511508D01*
X12847801Y-12511508D02*
X12866849Y-12501984D01*
X13171611Y-12701984D02*
X13171611Y-12501984D01*
X13257325Y-12701984D02*
X13257325Y-12597222D01*
X13257325Y-12597222D02*
X13247801Y-12578174D01*
X13247801Y-12578174D02*
X13228753Y-12568650D01*
X13228753Y-12568650D02*
X13200182Y-12568650D01*
X13200182Y-12568650D02*
X13181134Y-12578174D01*
X13181134Y-12578174D02*
X13171611Y-12587698D01*
X13381134Y-12701984D02*
X13362087Y-12692460D01*
X13362087Y-12692460D02*
X13352563Y-12682936D01*
X13352563Y-12682936D02*
X13343039Y-12663888D01*
X13343039Y-12663888D02*
X13343039Y-12606746D01*
X13343039Y-12606746D02*
X13352563Y-12587698D01*
X13352563Y-12587698D02*
X13362087Y-12578174D01*
X13362087Y-12578174D02*
X13381134Y-12568650D01*
X13381134Y-12568650D02*
X13409706Y-12568650D01*
X13409706Y-12568650D02*
X13428753Y-12578174D01*
X13428753Y-12578174D02*
X13438277Y-12587698D01*
X13438277Y-12587698D02*
X13447801Y-12606746D01*
X13447801Y-12606746D02*
X13447801Y-12663888D01*
X13447801Y-12663888D02*
X13438277Y-12682936D01*
X13438277Y-12682936D02*
X13428753Y-12692460D01*
X13428753Y-12692460D02*
X13409706Y-12701984D01*
X13409706Y-12701984D02*
X13381134Y-12701984D01*
X13562087Y-12701984D02*
X13543039Y-12692460D01*
X13543039Y-12692460D02*
X13533515Y-12673412D01*
X13533515Y-12673412D02*
X13533515Y-12501984D01*
X13714468Y-12692460D02*
X13695420Y-12701984D01*
X13695420Y-12701984D02*
X13657325Y-12701984D01*
X13657325Y-12701984D02*
X13638277Y-12692460D01*
X13638277Y-12692460D02*
X13628753Y-12673412D01*
X13628753Y-12673412D02*
X13628753Y-12597222D01*
X13628753Y-12597222D02*
X13638277Y-12578174D01*
X13638277Y-12578174D02*
X13657325Y-12568650D01*
X13657325Y-12568650D02*
X13695420Y-12568650D01*
X13695420Y-12568650D02*
X13714468Y-12578174D01*
X13714468Y-12578174D02*
X13723992Y-12597222D01*
X13723992Y-12597222D02*
X13723992Y-12616269D01*
X13723992Y-12616269D02*
X13628753Y-12635317D01*
X13800182Y-12692460D02*
X13819230Y-12701984D01*
X13819230Y-12701984D02*
X13857325Y-12701984D01*
X13857325Y-12701984D02*
X13876373Y-12692460D01*
X13876373Y-12692460D02*
X13885896Y-12673412D01*
X13885896Y-12673412D02*
X13885896Y-12663888D01*
X13885896Y-12663888D02*
X13876373Y-12644841D01*
X13876373Y-12644841D02*
X13857325Y-12635317D01*
X13857325Y-12635317D02*
X13828753Y-12635317D01*
X13828753Y-12635317D02*
X13809706Y-12625793D01*
X13809706Y-12625793D02*
X13800182Y-12606746D01*
X13800182Y-12606746D02*
X13800182Y-12597222D01*
X13800182Y-12597222D02*
X13809706Y-12578174D01*
X13809706Y-12578174D02*
X13828753Y-12568650D01*
X13828753Y-12568650D02*
X13857325Y-12568650D01*
X13857325Y-12568650D02*
X13876373Y-12578174D01*
X14123992Y-12625793D02*
X14276373Y-12625793D01*
X14200182Y-12701984D02*
X14200182Y-12549603D01*
X14609706Y-12568650D02*
X14609706Y-12701984D01*
X14562087Y-12492460D02*
X14514468Y-12635317D01*
X14514468Y-12635317D02*
X14638277Y-12635317D01*
X14857325Y-12692460D02*
X14876373Y-12701984D01*
X14876373Y-12701984D02*
X14914468Y-12701984D01*
X14914468Y-12701984D02*
X14933516Y-12692460D01*
X14933516Y-12692460D02*
X14943039Y-12673412D01*
X14943039Y-12673412D02*
X14943039Y-12663888D01*
X14943039Y-12663888D02*
X14933516Y-12644841D01*
X14933516Y-12644841D02*
X14914468Y-12635317D01*
X14914468Y-12635317D02*
X14885896Y-12635317D01*
X14885896Y-12635317D02*
X14866849Y-12625793D01*
X14866849Y-12625793D02*
X14857325Y-12606746D01*
X14857325Y-12606746D02*
X14857325Y-12597222D01*
X14857325Y-12597222D02*
X14866849Y-12578174D01*
X14866849Y-12578174D02*
X14885896Y-12568650D01*
X14885896Y-12568650D02*
X14914468Y-12568650D01*
X14914468Y-12568650D02*
X14933516Y-12578174D01*
X15057325Y-12701984D02*
X15038277Y-12692460D01*
X15038277Y-12692460D02*
X15028754Y-12673412D01*
X15028754Y-12673412D02*
X15028754Y-12501984D01*
X15162087Y-12701984D02*
X15143039Y-12692460D01*
X15143039Y-12692460D02*
X15133516Y-12682936D01*
X15133516Y-12682936D02*
X15123992Y-12663888D01*
X15123992Y-12663888D02*
X15123992Y-12606746D01*
X15123992Y-12606746D02*
X15133516Y-12587698D01*
X15133516Y-12587698D02*
X15143039Y-12578174D01*
X15143039Y-12578174D02*
X15162087Y-12568650D01*
X15162087Y-12568650D02*
X15190658Y-12568650D01*
X15190658Y-12568650D02*
X15209706Y-12578174D01*
X15209706Y-12578174D02*
X15219230Y-12587698D01*
X15219230Y-12587698D02*
X15228754Y-12606746D01*
X15228754Y-12606746D02*
X15228754Y-12663888D01*
X15228754Y-12663888D02*
X15219230Y-12682936D01*
X15219230Y-12682936D02*
X15209706Y-12692460D01*
X15209706Y-12692460D02*
X15190658Y-12701984D01*
X15190658Y-12701984D02*
X15162087Y-12701984D01*
X15285897Y-12568650D02*
X15362087Y-12568650D01*
X15314468Y-12501984D02*
X15314468Y-12673412D01*
X15314468Y-12673412D02*
X15323992Y-12692460D01*
X15323992Y-12692460D02*
X15343039Y-12701984D01*
X15343039Y-12701984D02*
X15362087Y-12701984D01*
X15419230Y-12692460D02*
X15438277Y-12701984D01*
X15438277Y-12701984D02*
X15476373Y-12701984D01*
X15476373Y-12701984D02*
X15495420Y-12692460D01*
X15495420Y-12692460D02*
X15504944Y-12673412D01*
X15504944Y-12673412D02*
X15504944Y-12663888D01*
X15504944Y-12663888D02*
X15495420Y-12644841D01*
X15495420Y-12644841D02*
X15476373Y-12635317D01*
X15476373Y-12635317D02*
X15447801Y-12635317D01*
X15447801Y-12635317D02*
X15428754Y-12625793D01*
X15428754Y-12625793D02*
X15419230Y-12606746D01*
X15419230Y-12606746D02*
X15419230Y-12597222D01*
X15419230Y-12597222D02*
X15428754Y-12578174D01*
X15428754Y-12578174D02*
X15447801Y-12568650D01*
X15447801Y-12568650D02*
X15476373Y-12568650D01*
X15476373Y-12568650D02*
X15495420Y-12578174D01*
X15571611Y-12778174D02*
X15581135Y-12768650D01*
X15581135Y-12768650D02*
X15600182Y-12740079D01*
X15600182Y-12740079D02*
X15609706Y-12721031D01*
X15609706Y-12721031D02*
X15619230Y-12692460D01*
X15619230Y-12692460D02*
X15628754Y-12644841D01*
X15628754Y-12644841D02*
X15628754Y-12606746D01*
X15628754Y-12606746D02*
X15619230Y-12559127D01*
X15619230Y-12559127D02*
X15609706Y-12530555D01*
X15609706Y-12530555D02*
X15600182Y-12511508D01*
X15600182Y-12511508D02*
X15581135Y-12482936D01*
X15581135Y-12482936D02*
X15571611Y-12473412D01*
D12*
X9165785Y-12902784D02*
X9165785Y-12846215D01*
X9109216Y-12846215D01*
X9109216Y-12902784D01*
X9165785Y-12902784D01*
D11*
X9476372Y-12765984D02*
X9495420Y-12765984D01*
X9495420Y-12765984D02*
X9514467Y-12775508D01*
X9514467Y-12775508D02*
X9523991Y-12785031D01*
X9523991Y-12785031D02*
X9533515Y-12804079D01*
X9533515Y-12804079D02*
X9543039Y-12842174D01*
X9543039Y-12842174D02*
X9543039Y-12889793D01*
X9543039Y-12889793D02*
X9533515Y-12927888D01*
X9533515Y-12927888D02*
X9523991Y-12946936D01*
X9523991Y-12946936D02*
X9514467Y-12956460D01*
X9514467Y-12956460D02*
X9495420Y-12965984D01*
X9495420Y-12965984D02*
X9476372Y-12965984D01*
X9476372Y-12965984D02*
X9457325Y-12956460D01*
X9457325Y-12956460D02*
X9447801Y-12946936D01*
X9447801Y-12946936D02*
X9438277Y-12927888D01*
X9438277Y-12927888D02*
X9428753Y-12889793D01*
X9428753Y-12889793D02*
X9428753Y-12842174D01*
X9428753Y-12842174D02*
X9438277Y-12804079D01*
X9438277Y-12804079D02*
X9447801Y-12785031D01*
X9447801Y-12785031D02*
X9457325Y-12775508D01*
X9457325Y-12775508D02*
X9476372Y-12765984D01*
X9628753Y-12946936D02*
X9638277Y-12956460D01*
X9638277Y-12956460D02*
X9628753Y-12965984D01*
X9628753Y-12965984D02*
X9619229Y-12956460D01*
X9619229Y-12956460D02*
X9628753Y-12946936D01*
X9628753Y-12946936D02*
X9628753Y-12965984D01*
X9752563Y-12851698D02*
X9733515Y-12842174D01*
X9733515Y-12842174D02*
X9723991Y-12832650D01*
X9723991Y-12832650D02*
X9714467Y-12813603D01*
X9714467Y-12813603D02*
X9714467Y-12804079D01*
X9714467Y-12804079D02*
X9723991Y-12785031D01*
X9723991Y-12785031D02*
X9733515Y-12775508D01*
X9733515Y-12775508D02*
X9752563Y-12765984D01*
X9752563Y-12765984D02*
X9790658Y-12765984D01*
X9790658Y-12765984D02*
X9809706Y-12775508D01*
X9809706Y-12775508D02*
X9819229Y-12785031D01*
X9819229Y-12785031D02*
X9828753Y-12804079D01*
X9828753Y-12804079D02*
X9828753Y-12813603D01*
X9828753Y-12813603D02*
X9819229Y-12832650D01*
X9819229Y-12832650D02*
X9809706Y-12842174D01*
X9809706Y-12842174D02*
X9790658Y-12851698D01*
X9790658Y-12851698D02*
X9752563Y-12851698D01*
X9752563Y-12851698D02*
X9733515Y-12861222D01*
X9733515Y-12861222D02*
X9723991Y-12870746D01*
X9723991Y-12870746D02*
X9714467Y-12889793D01*
X9714467Y-12889793D02*
X9714467Y-12927888D01*
X9714467Y-12927888D02*
X9723991Y-12946936D01*
X9723991Y-12946936D02*
X9733515Y-12956460D01*
X9733515Y-12956460D02*
X9752563Y-12965984D01*
X9752563Y-12965984D02*
X9790658Y-12965984D01*
X9790658Y-12965984D02*
X9809706Y-12956460D01*
X9809706Y-12956460D02*
X9819229Y-12946936D01*
X9819229Y-12946936D02*
X9828753Y-12927888D01*
X9828753Y-12927888D02*
X9828753Y-12889793D01*
X9828753Y-12889793D02*
X9819229Y-12870746D01*
X9819229Y-12870746D02*
X9809706Y-12861222D01*
X9809706Y-12861222D02*
X9790658Y-12851698D01*
X9952563Y-12765984D02*
X9971610Y-12765984D01*
X9971610Y-12765984D02*
X9990658Y-12775508D01*
X9990658Y-12775508D02*
X10000182Y-12785031D01*
X10000182Y-12785031D02*
X10009706Y-12804079D01*
X10009706Y-12804079D02*
X10019229Y-12842174D01*
X10019229Y-12842174D02*
X10019229Y-12889793D01*
X10019229Y-12889793D02*
X10009706Y-12927888D01*
X10009706Y-12927888D02*
X10000182Y-12946936D01*
X10000182Y-12946936D02*
X9990658Y-12956460D01*
X9990658Y-12956460D02*
X9971610Y-12965984D01*
X9971610Y-12965984D02*
X9952563Y-12965984D01*
X9952563Y-12965984D02*
X9933515Y-12956460D01*
X9933515Y-12956460D02*
X9923991Y-12946936D01*
X9923991Y-12946936D02*
X9914467Y-12927888D01*
X9914467Y-12927888D02*
X9904944Y-12889793D01*
X9904944Y-12889793D02*
X9904944Y-12842174D01*
X9904944Y-12842174D02*
X9914467Y-12804079D01*
X9914467Y-12804079D02*
X9923991Y-12785031D01*
X9923991Y-12785031D02*
X9933515Y-12775508D01*
X9933515Y-12775508D02*
X9952563Y-12765984D01*
X10143039Y-12765984D02*
X10162087Y-12765984D01*
X10162087Y-12765984D02*
X10181134Y-12775508D01*
X10181134Y-12775508D02*
X10190658Y-12785031D01*
X10190658Y-12785031D02*
X10200182Y-12804079D01*
X10200182Y-12804079D02*
X10209706Y-12842174D01*
X10209706Y-12842174D02*
X10209706Y-12889793D01*
X10209706Y-12889793D02*
X10200182Y-12927888D01*
X10200182Y-12927888D02*
X10190658Y-12946936D01*
X10190658Y-12946936D02*
X10181134Y-12956460D01*
X10181134Y-12956460D02*
X10162087Y-12965984D01*
X10162087Y-12965984D02*
X10143039Y-12965984D01*
X10143039Y-12965984D02*
X10123991Y-12956460D01*
X10123991Y-12956460D02*
X10114467Y-12946936D01*
X10114467Y-12946936D02*
X10104944Y-12927888D01*
X10104944Y-12927888D02*
X10095420Y-12889793D01*
X10095420Y-12889793D02*
X10095420Y-12842174D01*
X10095420Y-12842174D02*
X10104944Y-12804079D01*
X10104944Y-12804079D02*
X10114467Y-12785031D01*
X10114467Y-12785031D02*
X10123991Y-12775508D01*
X10123991Y-12775508D02*
X10143039Y-12765984D01*
X10295420Y-12965984D02*
X10295420Y-12832650D01*
X10295420Y-12851698D02*
X10304944Y-12842174D01*
X10304944Y-12842174D02*
X10323991Y-12832650D01*
X10323991Y-12832650D02*
X10352563Y-12832650D01*
X10352563Y-12832650D02*
X10371610Y-12842174D01*
X10371610Y-12842174D02*
X10381134Y-12861222D01*
X10381134Y-12861222D02*
X10381134Y-12965984D01*
X10381134Y-12861222D02*
X10390658Y-12842174D01*
X10390658Y-12842174D02*
X10409706Y-12832650D01*
X10409706Y-12832650D02*
X10438277Y-12832650D01*
X10438277Y-12832650D02*
X10457325Y-12842174D01*
X10457325Y-12842174D02*
X10466848Y-12861222D01*
X10466848Y-12861222D02*
X10466848Y-12965984D01*
X10562087Y-12965984D02*
X10562087Y-12832650D01*
X10562087Y-12851698D02*
X10571610Y-12842174D01*
X10571610Y-12842174D02*
X10590658Y-12832650D01*
X10590658Y-12832650D02*
X10619229Y-12832650D01*
X10619229Y-12832650D02*
X10638277Y-12842174D01*
X10638277Y-12842174D02*
X10647801Y-12861222D01*
X10647801Y-12861222D02*
X10647801Y-12965984D01*
X10647801Y-12861222D02*
X10657325Y-12842174D01*
X10657325Y-12842174D02*
X10676372Y-12832650D01*
X10676372Y-12832650D02*
X10704944Y-12832650D01*
X10704944Y-12832650D02*
X10723991Y-12842174D01*
X10723991Y-12842174D02*
X10733515Y-12861222D01*
X10733515Y-12861222D02*
X10733515Y-12965984D01*
X11123991Y-12756460D02*
X10952563Y-13013603D01*
X11381134Y-12765984D02*
X11400182Y-12765984D01*
X11400182Y-12765984D02*
X11419229Y-12775508D01*
X11419229Y-12775508D02*
X11428753Y-12785031D01*
X11428753Y-12785031D02*
X11438277Y-12804079D01*
X11438277Y-12804079D02*
X11447801Y-12842174D01*
X11447801Y-12842174D02*
X11447801Y-12889793D01*
X11447801Y-12889793D02*
X11438277Y-12927888D01*
X11438277Y-12927888D02*
X11428753Y-12946936D01*
X11428753Y-12946936D02*
X11419229Y-12956460D01*
X11419229Y-12956460D02*
X11400182Y-12965984D01*
X11400182Y-12965984D02*
X11381134Y-12965984D01*
X11381134Y-12965984D02*
X11362087Y-12956460D01*
X11362087Y-12956460D02*
X11352563Y-12946936D01*
X11352563Y-12946936D02*
X11343039Y-12927888D01*
X11343039Y-12927888D02*
X11333515Y-12889793D01*
X11333515Y-12889793D02*
X11333515Y-12842174D01*
X11333515Y-12842174D02*
X11343039Y-12804079D01*
X11343039Y-12804079D02*
X11352563Y-12785031D01*
X11352563Y-12785031D02*
X11362087Y-12775508D01*
X11362087Y-12775508D02*
X11381134Y-12765984D01*
X11533515Y-12946936D02*
X11543039Y-12956460D01*
X11543039Y-12956460D02*
X11533515Y-12965984D01*
X11533515Y-12965984D02*
X11523991Y-12956460D01*
X11523991Y-12956460D02*
X11533515Y-12946936D01*
X11533515Y-12946936D02*
X11533515Y-12965984D01*
X11666848Y-12765984D02*
X11685896Y-12765984D01*
X11685896Y-12765984D02*
X11704944Y-12775508D01*
X11704944Y-12775508D02*
X11714468Y-12785031D01*
X11714468Y-12785031D02*
X11723991Y-12804079D01*
X11723991Y-12804079D02*
X11733515Y-12842174D01*
X11733515Y-12842174D02*
X11733515Y-12889793D01*
X11733515Y-12889793D02*
X11723991Y-12927888D01*
X11723991Y-12927888D02*
X11714468Y-12946936D01*
X11714468Y-12946936D02*
X11704944Y-12956460D01*
X11704944Y-12956460D02*
X11685896Y-12965984D01*
X11685896Y-12965984D02*
X11666848Y-12965984D01*
X11666848Y-12965984D02*
X11647801Y-12956460D01*
X11647801Y-12956460D02*
X11638277Y-12946936D01*
X11638277Y-12946936D02*
X11628753Y-12927888D01*
X11628753Y-12927888D02*
X11619229Y-12889793D01*
X11619229Y-12889793D02*
X11619229Y-12842174D01*
X11619229Y-12842174D02*
X11628753Y-12804079D01*
X11628753Y-12804079D02*
X11638277Y-12785031D01*
X11638277Y-12785031D02*
X11647801Y-12775508D01*
X11647801Y-12775508D02*
X11666848Y-12765984D01*
X11800182Y-12765984D02*
X11923991Y-12765984D01*
X11923991Y-12765984D02*
X11857325Y-12842174D01*
X11857325Y-12842174D02*
X11885896Y-12842174D01*
X11885896Y-12842174D02*
X11904944Y-12851698D01*
X11904944Y-12851698D02*
X11914468Y-12861222D01*
X11914468Y-12861222D02*
X11923991Y-12880269D01*
X11923991Y-12880269D02*
X11923991Y-12927888D01*
X11923991Y-12927888D02*
X11914468Y-12946936D01*
X11914468Y-12946936D02*
X11904944Y-12956460D01*
X11904944Y-12956460D02*
X11885896Y-12965984D01*
X11885896Y-12965984D02*
X11828753Y-12965984D01*
X11828753Y-12965984D02*
X11809706Y-12956460D01*
X11809706Y-12956460D02*
X11800182Y-12946936D01*
X12114468Y-12965984D02*
X12000182Y-12965984D01*
X12057325Y-12965984D02*
X12057325Y-12765984D01*
X12057325Y-12765984D02*
X12038277Y-12794555D01*
X12038277Y-12794555D02*
X12019229Y-12813603D01*
X12019229Y-12813603D02*
X12000182Y-12823127D01*
X12295420Y-12765984D02*
X12200182Y-12765984D01*
X12200182Y-12765984D02*
X12190658Y-12861222D01*
X12190658Y-12861222D02*
X12200182Y-12851698D01*
X12200182Y-12851698D02*
X12219229Y-12842174D01*
X12219229Y-12842174D02*
X12266849Y-12842174D01*
X12266849Y-12842174D02*
X12285896Y-12851698D01*
X12285896Y-12851698D02*
X12295420Y-12861222D01*
X12295420Y-12861222D02*
X12304944Y-12880269D01*
X12304944Y-12880269D02*
X12304944Y-12927888D01*
X12304944Y-12927888D02*
X12295420Y-12946936D01*
X12295420Y-12946936D02*
X12285896Y-12956460D01*
X12285896Y-12956460D02*
X12266849Y-12965984D01*
X12266849Y-12965984D02*
X12219229Y-12965984D01*
X12219229Y-12965984D02*
X12200182Y-12956460D01*
X12200182Y-12956460D02*
X12190658Y-12946936D01*
X12381134Y-12765984D02*
X12381134Y-12804079D01*
X12457325Y-12765984D02*
X12457325Y-12804079D01*
X12752563Y-13042174D02*
X12743039Y-13032650D01*
X12743039Y-13032650D02*
X12723991Y-13004079D01*
X12723991Y-13004079D02*
X12714468Y-12985031D01*
X12714468Y-12985031D02*
X12704944Y-12956460D01*
X12704944Y-12956460D02*
X12695420Y-12908841D01*
X12695420Y-12908841D02*
X12695420Y-12870746D01*
X12695420Y-12870746D02*
X12704944Y-12823127D01*
X12704944Y-12823127D02*
X12714468Y-12794555D01*
X12714468Y-12794555D02*
X12723991Y-12775508D01*
X12723991Y-12775508D02*
X12743039Y-12746936D01*
X12743039Y-12746936D02*
X12752563Y-12737412D01*
X12933515Y-12965984D02*
X12819230Y-12965984D01*
X12876372Y-12965984D02*
X12876372Y-12765984D01*
X12876372Y-12765984D02*
X12857325Y-12794555D01*
X12857325Y-12794555D02*
X12838277Y-12813603D01*
X12838277Y-12813603D02*
X12819230Y-12823127D01*
X13047801Y-12851698D02*
X13028753Y-12842174D01*
X13028753Y-12842174D02*
X13019230Y-12832650D01*
X13019230Y-12832650D02*
X13009706Y-12813603D01*
X13009706Y-12813603D02*
X13009706Y-12804079D01*
X13009706Y-12804079D02*
X13019230Y-12785031D01*
X13019230Y-12785031D02*
X13028753Y-12775508D01*
X13028753Y-12775508D02*
X13047801Y-12765984D01*
X13047801Y-12765984D02*
X13085896Y-12765984D01*
X13085896Y-12765984D02*
X13104944Y-12775508D01*
X13104944Y-12775508D02*
X13114468Y-12785031D01*
X13114468Y-12785031D02*
X13123991Y-12804079D01*
X13123991Y-12804079D02*
X13123991Y-12813603D01*
X13123991Y-12813603D02*
X13114468Y-12832650D01*
X13114468Y-12832650D02*
X13104944Y-12842174D01*
X13104944Y-12842174D02*
X13085896Y-12851698D01*
X13085896Y-12851698D02*
X13047801Y-12851698D01*
X13047801Y-12851698D02*
X13028753Y-12861222D01*
X13028753Y-12861222D02*
X13019230Y-12870746D01*
X13019230Y-12870746D02*
X13009706Y-12889793D01*
X13009706Y-12889793D02*
X13009706Y-12927888D01*
X13009706Y-12927888D02*
X13019230Y-12946936D01*
X13019230Y-12946936D02*
X13028753Y-12956460D01*
X13028753Y-12956460D02*
X13047801Y-12965984D01*
X13047801Y-12965984D02*
X13085896Y-12965984D01*
X13085896Y-12965984D02*
X13104944Y-12956460D01*
X13104944Y-12956460D02*
X13114468Y-12946936D01*
X13114468Y-12946936D02*
X13123991Y-12927888D01*
X13123991Y-12927888D02*
X13123991Y-12889793D01*
X13123991Y-12889793D02*
X13114468Y-12870746D01*
X13114468Y-12870746D02*
X13104944Y-12861222D01*
X13104944Y-12861222D02*
X13085896Y-12851698D01*
X13362087Y-12965984D02*
X13362087Y-12765984D01*
X13447801Y-12965984D02*
X13447801Y-12861222D01*
X13447801Y-12861222D02*
X13438277Y-12842174D01*
X13438277Y-12842174D02*
X13419230Y-12832650D01*
X13419230Y-12832650D02*
X13390658Y-12832650D01*
X13390658Y-12832650D02*
X13371611Y-12842174D01*
X13371611Y-12842174D02*
X13362087Y-12851698D01*
X13571611Y-12965984D02*
X13552563Y-12956460D01*
X13552563Y-12956460D02*
X13543039Y-12946936D01*
X13543039Y-12946936D02*
X13533515Y-12927888D01*
X13533515Y-12927888D02*
X13533515Y-12870746D01*
X13533515Y-12870746D02*
X13543039Y-12851698D01*
X13543039Y-12851698D02*
X13552563Y-12842174D01*
X13552563Y-12842174D02*
X13571611Y-12832650D01*
X13571611Y-12832650D02*
X13600182Y-12832650D01*
X13600182Y-12832650D02*
X13619230Y-12842174D01*
X13619230Y-12842174D02*
X13628753Y-12851698D01*
X13628753Y-12851698D02*
X13638277Y-12870746D01*
X13638277Y-12870746D02*
X13638277Y-12927888D01*
X13638277Y-12927888D02*
X13628753Y-12946936D01*
X13628753Y-12946936D02*
X13619230Y-12956460D01*
X13619230Y-12956460D02*
X13600182Y-12965984D01*
X13600182Y-12965984D02*
X13571611Y-12965984D01*
X13752563Y-12965984D02*
X13733515Y-12956460D01*
X13733515Y-12956460D02*
X13723992Y-12937412D01*
X13723992Y-12937412D02*
X13723992Y-12765984D01*
X13904944Y-12956460D02*
X13885896Y-12965984D01*
X13885896Y-12965984D02*
X13847801Y-12965984D01*
X13847801Y-12965984D02*
X13828753Y-12956460D01*
X13828753Y-12956460D02*
X13819230Y-12937412D01*
X13819230Y-12937412D02*
X13819230Y-12861222D01*
X13819230Y-12861222D02*
X13828753Y-12842174D01*
X13828753Y-12842174D02*
X13847801Y-12832650D01*
X13847801Y-12832650D02*
X13885896Y-12832650D01*
X13885896Y-12832650D02*
X13904944Y-12842174D01*
X13904944Y-12842174D02*
X13914468Y-12861222D01*
X13914468Y-12861222D02*
X13914468Y-12880269D01*
X13914468Y-12880269D02*
X13819230Y-12899317D01*
X13990658Y-12956460D02*
X14009706Y-12965984D01*
X14009706Y-12965984D02*
X14047801Y-12965984D01*
X14047801Y-12965984D02*
X14066849Y-12956460D01*
X14066849Y-12956460D02*
X14076373Y-12937412D01*
X14076373Y-12937412D02*
X14076373Y-12927888D01*
X14076373Y-12927888D02*
X14066849Y-12908841D01*
X14066849Y-12908841D02*
X14047801Y-12899317D01*
X14047801Y-12899317D02*
X14019230Y-12899317D01*
X14019230Y-12899317D02*
X14000182Y-12889793D01*
X14000182Y-12889793D02*
X13990658Y-12870746D01*
X13990658Y-12870746D02*
X13990658Y-12861222D01*
X13990658Y-12861222D02*
X14000182Y-12842174D01*
X14000182Y-12842174D02*
X14019230Y-12832650D01*
X14019230Y-12832650D02*
X14047801Y-12832650D01*
X14047801Y-12832650D02*
X14066849Y-12842174D01*
X14143039Y-13042174D02*
X14152563Y-13032650D01*
X14152563Y-13032650D02*
X14171611Y-13004079D01*
X14171611Y-13004079D02*
X14181134Y-12985031D01*
X14181134Y-12985031D02*
X14190658Y-12956460D01*
X14190658Y-12956460D02*
X14200182Y-12908841D01*
X14200182Y-12908841D02*
X14200182Y-12870746D01*
X14200182Y-12870746D02*
X14190658Y-12823127D01*
X14190658Y-12823127D02*
X14181134Y-12794555D01*
X14181134Y-12794555D02*
X14171611Y-12775508D01*
X14171611Y-12775508D02*
X14152563Y-12746936D01*
X14152563Y-12746936D02*
X14143039Y-12737412D01*
M02*
