G04 #@! TF.GenerationSoftware,KiCad,Pcbnew,8.0.8-8.0.8-0~ubuntu24.04.1*
G04 #@! TF.CreationDate,2025-01-27T21:39:09+01:00*
G04 #@! TF.ProjectId,KICad_Files,4b494361-645f-4466-996c-65732e6b6963,1*
G04 #@! TF.SameCoordinates,Original*
G04 #@! TF.FileFunction,Copper,L2,Bot*
G04 #@! TF.FilePolarity,Positive*
%FSLAX46Y46*%
G04 Gerber Fmt 4.6, Leading zero omitted, Abs format (unit mm)*
G04 Created by KiCad (PCBNEW 8.0.8-8.0.8-0~ubuntu24.04.1) date 2025-01-27 21:39:09*
%MOMM*%
%LPD*%
G01*
G04 APERTURE LIST*
G04 Aperture macros list*
%AMRoundRect*
0 Rectangle with rounded corners*
0 $1 Rounding radius*
0 $2 $3 $4 $5 $6 $7 $8 $9 X,Y pos of 4 corners*
0 Add a 4 corners polygon primitive as box body*
4,1,4,$2,$3,$4,$5,$6,$7,$8,$9,$2,$3,0*
0 Add four circle primitives for the rounded corners*
1,1,$1+$1,$2,$3*
1,1,$1+$1,$4,$5*
1,1,$1+$1,$6,$7*
1,1,$1+$1,$8,$9*
0 Add four rect primitives between the rounded corners*
20,1,$1+$1,$2,$3,$4,$5,0*
20,1,$1+$1,$4,$5,$6,$7,0*
20,1,$1+$1,$6,$7,$8,$9,0*
20,1,$1+$1,$8,$9,$2,$3,0*%
G04 Aperture macros list end*
G04 #@! TA.AperFunction,ComponentPad*
%ADD10R,1.350000X1.350000*%
G04 #@! TD*
G04 #@! TA.AperFunction,ComponentPad*
%ADD11O,1.350000X1.350000*%
G04 #@! TD*
G04 #@! TA.AperFunction,ComponentPad*
%ADD12RoundRect,0.200000X0.450000X-0.200000X0.450000X0.200000X-0.450000X0.200000X-0.450000X-0.200000X0*%
G04 #@! TD*
G04 #@! TA.AperFunction,ComponentPad*
%ADD13O,1.300000X0.800000*%
G04 #@! TD*
G04 #@! TA.AperFunction,ComponentPad*
%ADD14O,0.900000X2.000000*%
G04 #@! TD*
G04 #@! TA.AperFunction,ComponentPad*
%ADD15O,0.900000X1.700000*%
G04 #@! TD*
G04 #@! TA.AperFunction,SMDPad,CuDef*
%ADD16RoundRect,0.237500X-0.237500X0.250000X-0.237500X-0.250000X0.237500X-0.250000X0.237500X0.250000X0*%
G04 #@! TD*
G04 #@! TA.AperFunction,ViaPad*
%ADD17C,0.600000*%
G04 #@! TD*
G04 #@! TA.AperFunction,Conductor*
%ADD18C,0.200000*%
G04 #@! TD*
G04 #@! TA.AperFunction,Conductor*
%ADD19C,0.500000*%
G04 #@! TD*
G04 APERTURE END LIST*
D10*
X120300001Y-88900001D03*
D11*
X120300001Y-90900001D03*
X120300001Y-92900001D03*
X120300001Y-94900001D03*
X120300001Y-96900001D03*
X120300001Y-98900001D03*
D12*
X97950001Y-105750001D03*
D13*
X97950001Y-104500001D03*
X97950001Y-103250001D03*
D10*
X95300001Y-85900001D03*
D11*
X97300001Y-85900001D03*
X99300001Y-85900001D03*
D14*
X102480001Y-108170001D03*
D15*
X102480001Y-112340001D03*
D14*
X111120001Y-108170001D03*
D15*
X111120001Y-112340001D03*
D10*
X118300001Y-85900001D03*
D11*
X116300001Y-85900001D03*
X114300001Y-85900001D03*
D12*
X97950001Y-99250001D03*
D13*
X97950001Y-98000001D03*
X97950001Y-96750001D03*
D10*
X93300001Y-88900001D03*
D11*
X93300001Y-90900001D03*
X93300001Y-92900001D03*
X93300001Y-94900001D03*
X93300001Y-96900001D03*
X93300001Y-98900001D03*
D12*
X97950001Y-92750001D03*
D13*
X97950001Y-91500001D03*
X97950001Y-90250001D03*
D16*
X105575001Y-103475001D03*
X105575001Y-105300001D03*
X108550001Y-103487501D03*
X108550001Y-105312501D03*
D17*
X96171620Y-94879852D03*
X106800001Y-105525001D03*
X105000001Y-108670003D03*
X111400001Y-105800001D03*
X96174266Y-96574266D03*
X115075001Y-104725001D03*
X100400001Y-88300001D03*
X112000001Y-97000001D03*
X118200001Y-88200001D03*
X99800001Y-90400001D03*
X104100001Y-88900001D03*
X111000001Y-85000001D03*
X109900001Y-86700001D03*
X109075001Y-109825001D03*
X100000001Y-106000001D03*
X95600001Y-100700001D03*
X105075001Y-109925001D03*
X100100001Y-102200001D03*
X96800001Y-88300001D03*
X105400001Y-90200001D03*
X104100001Y-87000001D03*
X93400001Y-107700001D03*
X104500001Y-89800001D03*
X100100001Y-100700001D03*
X110000001Y-100300001D03*
X101400001Y-85100001D03*
X108900001Y-87100001D03*
X108200001Y-90000001D03*
X112700001Y-85300001D03*
X106338967Y-94438976D03*
X119800001Y-100300001D03*
X106825001Y-101025001D03*
X110071187Y-90008193D03*
X112425001Y-108450001D03*
X107800001Y-87100001D03*
X117000001Y-101000001D03*
X108775001Y-102350001D03*
X113400001Y-87400001D03*
X106774601Y-92846001D03*
X93800001Y-87200001D03*
X106775001Y-103025001D03*
X113600001Y-99700001D03*
X106700001Y-87100001D03*
X114000001Y-96100001D03*
X101200001Y-106000001D03*
X93800001Y-85300001D03*
X111900001Y-85000001D03*
X95800001Y-98100001D03*
X101300001Y-93562501D03*
X102400001Y-86300001D03*
X100800001Y-85600001D03*
X95500001Y-107700001D03*
X115400001Y-96000001D03*
X112000001Y-98500001D03*
X98400001Y-101300001D03*
X104300001Y-106000001D03*
X104800001Y-101900001D03*
X112150001Y-106425001D03*
X112000001Y-90900001D03*
X99800001Y-92500001D03*
X95600001Y-103000001D03*
X113950001Y-111675001D03*
X110600001Y-86000001D03*
X111500001Y-101700001D03*
X104400001Y-88000001D03*
X100000001Y-107700001D03*
X107281587Y-96324787D03*
X103100001Y-86900001D03*
X115400001Y-105800001D03*
X109948600Y-103425001D03*
X112000001Y-100000001D03*
X97200001Y-101300001D03*
X109600001Y-87700001D03*
X119300001Y-87300001D03*
X115300001Y-93500001D03*
X109687881Y-105473594D03*
X92700001Y-100500001D03*
X105300001Y-94500001D03*
X114500001Y-93500001D03*
X102400001Y-85200001D03*
X103000001Y-84600001D03*
X101200001Y-107700001D03*
X120900001Y-105700001D03*
X115668751Y-90568751D03*
X110100001Y-88400001D03*
X92600001Y-87200001D03*
X120900001Y-100300001D03*
X116000001Y-101000001D03*
X117300001Y-90500001D03*
X121000001Y-87500001D03*
X119275001Y-103450002D03*
X113825001Y-104047401D03*
X94500001Y-104000001D03*
X112115121Y-89434881D03*
X101379766Y-98650001D03*
X104273332Y-90619226D03*
X109164667Y-97943838D03*
X104460505Y-92333699D03*
X109844395Y-97521968D03*
X108550001Y-106550001D03*
X105575001Y-106550001D03*
X94875001Y-91023528D03*
X99935050Y-96289952D03*
X103250001Y-96100001D03*
X96901231Y-90945827D03*
X112840643Y-95793762D03*
X112105446Y-92239654D03*
X102902674Y-93432683D03*
X112899266Y-100850736D03*
X110786775Y-91775001D03*
X105850001Y-101000001D03*
X111322201Y-92550001D03*
X107775001Y-101025001D03*
X105950001Y-108750001D03*
X107150001Y-108900001D03*
X108323651Y-97951352D03*
X104386517Y-91411181D03*
X109687501Y-96737501D03*
X96611769Y-90200029D03*
X104539542Y-97526491D03*
X111544995Y-95916267D03*
X95814491Y-90265961D03*
X103749710Y-97399332D03*
X112175001Y-95350001D03*
X105325736Y-98625736D03*
X102575001Y-94162501D03*
X106200001Y-98600001D03*
D18*
X106800001Y-105525001D02*
X106800001Y-106875001D01*
X119200001Y-100613601D02*
X117087001Y-102726601D01*
X96725001Y-106800001D02*
X96375001Y-106450001D01*
X105004999Y-108670003D02*
X106800001Y-106875001D01*
X96171620Y-94879852D02*
X95895150Y-94879852D01*
X105000001Y-108670003D02*
X105004999Y-108670003D01*
X96725001Y-104500001D02*
X97950001Y-104500001D01*
X96174266Y-96574266D02*
X97600001Y-98000001D01*
X97600001Y-98000001D02*
X97950001Y-98000001D01*
X97375001Y-98000001D02*
X96375001Y-99000001D01*
X119896142Y-95925001D02*
X119200001Y-96621142D01*
X95875001Y-94900001D02*
X93300001Y-94900001D01*
X117087001Y-102726601D02*
X112948400Y-102726601D01*
X104775001Y-106800001D02*
X96725001Y-106800001D01*
X105000001Y-108670003D02*
X105000001Y-107025001D01*
X112948400Y-102726601D02*
X111400001Y-104275000D01*
X115075001Y-104725001D02*
X114000001Y-105800001D01*
X111400001Y-104275000D02*
X111400001Y-105800001D01*
X105000001Y-107025001D02*
X104775001Y-106800001D01*
X120300001Y-94900001D02*
X120300001Y-95925001D01*
X96375001Y-106450001D02*
X96375001Y-105100001D01*
X114000001Y-105800001D02*
X111400001Y-105800001D01*
X120300001Y-95925001D02*
X119896142Y-95925001D01*
X96375001Y-99000001D02*
X96375001Y-105100001D01*
X119200001Y-96621142D02*
X119200001Y-100613601D01*
X96375001Y-105100001D02*
X96375001Y-104850001D01*
X96375001Y-104850001D02*
X96725001Y-104500001D01*
X97950001Y-98000001D02*
X97375001Y-98000001D01*
X95895150Y-94879852D02*
X95875001Y-94900001D01*
X109948600Y-103425001D02*
X109886100Y-103487501D01*
D19*
X110400001Y-108200001D02*
X110430001Y-108170001D01*
X111975001Y-106600001D02*
X110814288Y-106600001D01*
X112150001Y-106425001D02*
X111975001Y-106600001D01*
X112145001Y-108170001D02*
X112425001Y-108450001D01*
D18*
X107600001Y-96643201D02*
X107281587Y-96324787D01*
X109886100Y-103487501D02*
X108550001Y-103487501D01*
D19*
X111120001Y-108170001D02*
X110430001Y-108170001D01*
D18*
X107600001Y-98421201D02*
X107600001Y-96643201D01*
X108146201Y-98967401D02*
X107600001Y-98421201D01*
X108550001Y-102575001D02*
X108775001Y-102350001D01*
D19*
X110814288Y-106600001D02*
X109687881Y-105473594D01*
D18*
X109478801Y-100300001D02*
X108146201Y-98967401D01*
X110000001Y-100300001D02*
X109478801Y-100300001D01*
X108550001Y-103487501D02*
X108550001Y-102575001D01*
X108200001Y-91420601D02*
X106774601Y-92846001D01*
X108200001Y-90000001D02*
X108200001Y-91420601D01*
D19*
X111120001Y-108170001D02*
X112145001Y-108170001D01*
D18*
X104273332Y-90619226D02*
X104443091Y-90619226D01*
X96825001Y-95075001D02*
X95000001Y-96900001D01*
X104443091Y-90619226D02*
X105060505Y-91236640D01*
X95000001Y-96900001D02*
X93300001Y-96900001D01*
X99349266Y-96689952D02*
X99114952Y-96455637D01*
X101309315Y-98650001D02*
X99349266Y-96689952D01*
X97734315Y-95075001D02*
X96825001Y-95075001D01*
X101379766Y-98650001D02*
X101309315Y-98650001D01*
X105060505Y-91236640D02*
X105060505Y-92311985D01*
X113825001Y-104047401D02*
X114397401Y-103475001D01*
X99114952Y-96455637D02*
X97734315Y-95075001D01*
X105060505Y-92311985D02*
X106514261Y-93765741D01*
X111625907Y-89434881D02*
X112115121Y-89434881D01*
X94700001Y-103800001D02*
X94700001Y-97200001D01*
X94700001Y-97200001D02*
X95000001Y-96900001D01*
X94500001Y-104000001D02*
X94700001Y-103800001D01*
X106514261Y-93765741D02*
X107295047Y-93765741D01*
X107295047Y-93765741D02*
X111625907Y-89434881D01*
X119250002Y-103475001D02*
X119275001Y-103450002D01*
X114397401Y-103475001D02*
X119250002Y-103475001D01*
X108687501Y-96291914D02*
X111429414Y-93550001D01*
X108687501Y-97466672D02*
X108687501Y-96291914D01*
X113105446Y-91685242D02*
X116300001Y-88490687D01*
X112209314Y-93550001D02*
X112443628Y-93315686D01*
X112443628Y-93315686D02*
X113105446Y-92653869D01*
X116300001Y-88490687D02*
X116300001Y-85900001D01*
X111429414Y-93550001D02*
X112209314Y-93550001D01*
X109164667Y-97943838D02*
X108687501Y-97466672D01*
X113105446Y-92653869D02*
X113105446Y-91685242D01*
X95215687Y-89550001D02*
X94275001Y-90490687D01*
X104460505Y-92333699D02*
X101676807Y-89550001D01*
X93625001Y-92900001D02*
X93300001Y-92900001D01*
X94275001Y-92250001D02*
X93625001Y-92900001D01*
X94275001Y-90490687D02*
X94275001Y-92250001D01*
X101676807Y-89550001D02*
X95215687Y-89550001D01*
X118300001Y-87056373D02*
X118300001Y-85900001D01*
X113505446Y-91850928D02*
X118300001Y-87056373D01*
X109844395Y-97337501D02*
X109438972Y-97337501D01*
X111595100Y-93950001D02*
X112374999Y-93950001D01*
X109087501Y-96986030D02*
X109087501Y-96457600D01*
X113505446Y-92819553D02*
X113505446Y-91850928D01*
X112374999Y-93950001D02*
X112609314Y-93715685D01*
X109087501Y-96457600D02*
X111595100Y-93950001D01*
X109438972Y-97337501D02*
X109087501Y-96986030D01*
X109844395Y-97521968D02*
X109844395Y-97337501D01*
X112609314Y-93715685D02*
X113505446Y-92819553D01*
X108550001Y-106550001D02*
X108550001Y-105312501D01*
X105575001Y-106550001D02*
X105575001Y-105300001D01*
X96790298Y-94650001D02*
X95701231Y-93560934D01*
X99935050Y-96289952D02*
X99514952Y-96289952D01*
X95701231Y-93560934D02*
X95701231Y-91849758D01*
X97875001Y-94650001D02*
X96790298Y-94650001D01*
X95701231Y-91849758D02*
X94875001Y-91023528D01*
X99514952Y-96289952D02*
X97875001Y-94650001D01*
X96901231Y-90945827D02*
X96901231Y-93063879D01*
X101725001Y-96100001D02*
X103250001Y-96100001D01*
X99075001Y-93450001D02*
X101725001Y-96100001D01*
X96901231Y-93063879D02*
X97287353Y-93450001D01*
X97287353Y-93450001D02*
X99075001Y-93450001D01*
X112850001Y-100801471D02*
X112850001Y-95803120D01*
X111927506Y-92417594D02*
X112105446Y-92239654D01*
X111907408Y-92417594D02*
X111927506Y-92417594D01*
X112825001Y-95809404D02*
X112840643Y-95793762D01*
X112899266Y-100850736D02*
X112850001Y-100801471D01*
X111907408Y-92047107D02*
X111907408Y-92417594D01*
X111035302Y-91175001D02*
X111907408Y-92047107D01*
X110451472Y-91175001D02*
X111035302Y-91175001D01*
X102902674Y-93432683D02*
X104719992Y-95250001D01*
X112850001Y-95803120D02*
X112840643Y-95793762D01*
X106376472Y-95250001D02*
X110451472Y-91175001D01*
X104719992Y-95250001D02*
X106376472Y-95250001D01*
X110417158Y-91775001D02*
X106542158Y-95650001D01*
X105784001Y-97335472D02*
X106800001Y-98351472D01*
X106542158Y-95650001D02*
X106536001Y-95650001D01*
X110786775Y-91775001D02*
X110417158Y-91775001D01*
X106800001Y-100050001D02*
X105850001Y-101000001D01*
X106800001Y-98351472D02*
X106800001Y-100050001D01*
X106536001Y-95650001D02*
X105784001Y-96402001D01*
X105784001Y-96402001D02*
X105784001Y-97335472D01*
X111322201Y-92550001D02*
X111147201Y-92375001D01*
X106292001Y-97277786D02*
X107200001Y-98185786D01*
X107200001Y-98185786D02*
X107200001Y-99925001D01*
X106701687Y-96050001D02*
X106292001Y-96459687D01*
X110382844Y-92375001D02*
X106707844Y-96050001D01*
X106292001Y-96459687D02*
X106292001Y-97277786D01*
X106707844Y-96050001D02*
X106701687Y-96050001D01*
X111147201Y-92375001D02*
X110382844Y-92375001D01*
X107200001Y-99925001D02*
X107775001Y-100500001D01*
X107775001Y-100500001D02*
X107775001Y-101025001D01*
X107150001Y-108900001D02*
X106850001Y-109200001D01*
X105950001Y-108925001D02*
X105950001Y-108750001D01*
X106225001Y-109200001D02*
X105950001Y-108925001D01*
X106850001Y-109200001D02*
X106225001Y-109200001D01*
X108287501Y-96126228D02*
X111263728Y-93150001D01*
X112043628Y-93150001D02*
X112705446Y-92488183D01*
X108323651Y-97951352D02*
X108287501Y-97915202D01*
X114300001Y-89925001D02*
X114300001Y-85900001D01*
X108287501Y-97915202D02*
X108287501Y-96126228D01*
X111263728Y-93150001D02*
X112043628Y-93150001D01*
X112705446Y-91519556D02*
X114300001Y-89925001D01*
X112705446Y-92488183D02*
X112705446Y-91519556D01*
X95050001Y-89150001D02*
X101842493Y-89150001D01*
X101842493Y-89150001D02*
X104103673Y-91411181D01*
X93300001Y-90900001D02*
X95050001Y-89150001D01*
X104103673Y-91411181D02*
X104386517Y-91411181D01*
X109687501Y-96423286D02*
X111760786Y-94350001D01*
X117718629Y-94350001D02*
X118825001Y-93243629D01*
X111760786Y-94350001D02*
X117718629Y-94350001D01*
X118825001Y-90375001D02*
X120300001Y-88900001D01*
X118825001Y-93243629D02*
X118825001Y-90375001D01*
X109687501Y-96737501D02*
X109687501Y-96423286D01*
X104539542Y-97340635D02*
X104539542Y-97526491D01*
X97121667Y-93850001D02*
X98909315Y-93850001D01*
X96611769Y-90200029D02*
X96599998Y-90211800D01*
X96599998Y-90211800D02*
X96599998Y-90398530D01*
X98909315Y-93850001D02*
X101784315Y-96725001D01*
X101784315Y-96725001D02*
X103923908Y-96725001D01*
X103923908Y-96725001D02*
X104539542Y-97340635D01*
X96301231Y-90697298D02*
X96301231Y-91194356D01*
X96301231Y-91194356D02*
X96501231Y-91394356D01*
X96599998Y-90398530D02*
X96301231Y-90697298D01*
X96735546Y-93463879D02*
X97121667Y-93850001D01*
X96501231Y-93229565D02*
X96735546Y-93463879D01*
X96501231Y-91394356D02*
X96501231Y-93229565D01*
X119225001Y-91975001D02*
X120300001Y-90900001D01*
X111926472Y-94750001D02*
X117884315Y-94750001D01*
X111544995Y-95916267D02*
X111544995Y-95131478D01*
X119225001Y-93409315D02*
X119225001Y-91975001D01*
X117884315Y-94750001D02*
X119225001Y-93409315D01*
X111544995Y-95131478D02*
X111926472Y-94750001D01*
X103725379Y-97375001D02*
X103749710Y-97399332D01*
X98743629Y-94250001D02*
X101868629Y-97375001D01*
X96101231Y-91560041D02*
X96101232Y-93395249D01*
X101868629Y-97375001D02*
X103725379Y-97375001D01*
X95814491Y-91273301D02*
X96101231Y-91560041D01*
X95814491Y-90265961D02*
X95814491Y-91273301D01*
X96101232Y-93395249D02*
X96955984Y-94250001D01*
X96955984Y-94250001D02*
X98743629Y-94250001D01*
X112375001Y-95150001D02*
X118050001Y-95150001D01*
X118050001Y-95150001D02*
X120300001Y-92900001D01*
X112175001Y-95350001D02*
X112375001Y-95150001D01*
X105325736Y-98625736D02*
X104701471Y-99250001D01*
X104701471Y-99250001D02*
X97950001Y-99250001D01*
X98940687Y-92750001D02*
X97950001Y-92750001D01*
X102575001Y-94162501D02*
X100353187Y-94162501D01*
X100353187Y-94162501D02*
X98940687Y-92750001D01*
X106200001Y-98600001D02*
X105925736Y-98600001D01*
X99875001Y-99650001D02*
X99275001Y-100250001D01*
X105150000Y-99650001D02*
X99875001Y-99650001D01*
X99275001Y-105000001D02*
X98525001Y-105750001D01*
X105925736Y-98874265D02*
X105150000Y-99650001D01*
X98525001Y-105750001D02*
X97950001Y-105750001D01*
X105925736Y-98600001D02*
X105925736Y-98874265D01*
X99275001Y-100250001D02*
X99275001Y-105000001D01*
G04 #@! TA.AperFunction,Conductor*
G36*
X119075470Y-95076279D02*
G01*
X119131403Y-95118151D01*
X119151402Y-95158527D01*
X119199181Y-95326455D01*
X119199184Y-95326461D01*
X119296285Y-95521466D01*
X119296287Y-95521470D01*
X119296289Y-95521473D01*
X119297584Y-95523188D01*
X119297948Y-95524151D01*
X119299306Y-95526344D01*
X119298876Y-95526609D01*
X119322276Y-95588548D01*
X119307711Y-95656883D01*
X119286311Y-95685595D01*
X118831287Y-96140620D01*
X118719482Y-96252424D01*
X118719478Y-96252429D01*
X118673663Y-96331785D01*
X118640425Y-96389353D01*
X118640424Y-96389354D01*
X118623605Y-96452125D01*
X118599500Y-96542085D01*
X118599500Y-96542087D01*
X118599500Y-96710188D01*
X118599501Y-96710201D01*
X118599501Y-100313504D01*
X118579816Y-100380543D01*
X118563182Y-100401185D01*
X116874585Y-102089782D01*
X116813262Y-102123267D01*
X116786904Y-102126101D01*
X113035069Y-102126101D01*
X113035053Y-102126100D01*
X113027457Y-102126100D01*
X112869343Y-102126100D01*
X112761987Y-102154866D01*
X112716610Y-102167025D01*
X112716609Y-102167026D01*
X112666496Y-102195960D01*
X112666495Y-102195961D01*
X112623089Y-102221021D01*
X112579685Y-102246080D01*
X112579682Y-102246082D01*
X110919482Y-103906282D01*
X110919480Y-103906285D01*
X110901566Y-103937314D01*
X110883651Y-103968344D01*
X110840424Y-104043215D01*
X110799500Y-104195943D01*
X110799500Y-104195945D01*
X110799500Y-104364046D01*
X110799501Y-104364059D01*
X110799501Y-105217588D01*
X110779816Y-105284627D01*
X110772451Y-105294897D01*
X110770187Y-105297735D01*
X110674212Y-105450477D01*
X110614632Y-105620746D01*
X110614631Y-105620751D01*
X110594436Y-105799997D01*
X110594436Y-105800004D01*
X110614631Y-105979250D01*
X110614632Y-105979255D01*
X110674212Y-106149524D01*
X110770185Y-106302263D01*
X110897739Y-106429817D01*
X110949799Y-106462528D01*
X110955136Y-106465882D01*
X111001427Y-106518217D01*
X111012075Y-106587271D01*
X110983700Y-106651119D01*
X110925310Y-106689491D01*
X110913356Y-106692493D01*
X110842901Y-106706507D01*
X110842895Y-106706509D01*
X110670009Y-106778120D01*
X110670000Y-106778125D01*
X110514411Y-106882087D01*
X110514407Y-106882090D01*
X110382090Y-107014407D01*
X110382087Y-107014411D01*
X110278125Y-107170000D01*
X110278120Y-107170009D01*
X110206509Y-107342895D01*
X110206507Y-107342903D01*
X110170001Y-107526429D01*
X110170001Y-107920001D01*
X110820001Y-107920001D01*
X110820001Y-108420001D01*
X110264464Y-108420001D01*
X110197425Y-108400316D01*
X110157077Y-108358001D01*
X110152648Y-108350330D01*
X110130510Y-108311986D01*
X110028016Y-108209492D01*
X110028014Y-108209491D01*
X110028012Y-108209489D01*
X109902489Y-108137018D01*
X109902490Y-108137018D01*
X109891007Y-108133941D01*
X109762476Y-108099501D01*
X109617526Y-108099501D01*
X109488994Y-108133941D01*
X109477512Y-108137018D01*
X109351989Y-108209489D01*
X109351983Y-108209494D01*
X109249494Y-108311983D01*
X109249489Y-108311989D01*
X109177018Y-108437512D01*
X109177017Y-108437516D01*
X109139501Y-108577526D01*
X109139501Y-108722476D01*
X109169866Y-108835797D01*
X109177018Y-108862489D01*
X109249489Y-108988012D01*
X109249491Y-108988014D01*
X109249492Y-108988016D01*
X109351986Y-109090510D01*
X109351987Y-109090511D01*
X109351989Y-109090512D01*
X109477512Y-109162983D01*
X109477513Y-109162983D01*
X109477516Y-109162985D01*
X109617526Y-109200501D01*
X109617529Y-109200501D01*
X109762473Y-109200501D01*
X109762476Y-109200501D01*
X109902486Y-109162985D01*
X110028016Y-109090510D01*
X110050364Y-109068161D01*
X110111683Y-109034678D01*
X110181374Y-109039661D01*
X110237309Y-109081532D01*
X110252604Y-109108390D01*
X110278122Y-109169995D01*
X110278125Y-109170001D01*
X110382087Y-109325590D01*
X110382090Y-109325594D01*
X110514407Y-109457911D01*
X110514411Y-109457914D01*
X110670000Y-109561876D01*
X110670013Y-109561883D01*
X110842890Y-109633490D01*
X110842897Y-109633492D01*
X110870001Y-109638883D01*
X110870001Y-108886989D01*
X110879941Y-108904206D01*
X110935796Y-108960061D01*
X111004205Y-108999557D01*
X111080505Y-109020001D01*
X111159497Y-109020001D01*
X111235797Y-108999557D01*
X111304206Y-108960061D01*
X111360061Y-108904206D01*
X111370001Y-108886989D01*
X111370001Y-109638882D01*
X111397104Y-109633492D01*
X111397111Y-109633490D01*
X111569988Y-109561883D01*
X111570001Y-109561876D01*
X111725590Y-109457914D01*
X111725594Y-109457911D01*
X111857911Y-109325594D01*
X111857914Y-109325590D01*
X111961876Y-109170001D01*
X111961881Y-109169992D01*
X112033492Y-108997106D01*
X112033494Y-108997098D01*
X112070000Y-108813572D01*
X112070001Y-108813570D01*
X112070001Y-108420001D01*
X111420001Y-108420001D01*
X111420001Y-107920001D01*
X112070001Y-107920001D01*
X112070001Y-107526431D01*
X112070000Y-107526429D01*
X112033494Y-107342903D01*
X112033492Y-107342895D01*
X111961881Y-107170009D01*
X111961876Y-107170000D01*
X111857914Y-107014411D01*
X111857911Y-107014407D01*
X111725594Y-106882090D01*
X111725590Y-106882087D01*
X111590481Y-106791809D01*
X111545676Y-106738196D01*
X111536969Y-106668871D01*
X111567124Y-106605844D01*
X111618416Y-106571666D01*
X111749523Y-106525790D01*
X111902263Y-106429817D01*
X111902268Y-106429811D01*
X111905098Y-106427556D01*
X111907276Y-106426666D01*
X111908159Y-106426112D01*
X111908256Y-106426266D01*
X111969784Y-106401146D01*
X111982413Y-106400501D01*
X113913332Y-106400501D01*
X113913348Y-106400502D01*
X113920944Y-106400502D01*
X114079055Y-106400502D01*
X114079058Y-106400502D01*
X114231786Y-106359578D01*
X114301234Y-106319482D01*
X114368717Y-106280521D01*
X114480521Y-106168717D01*
X114480521Y-106168715D01*
X114490725Y-106158512D01*
X114490729Y-106158507D01*
X115093536Y-105555699D01*
X115154857Y-105522216D01*
X115167312Y-105520164D01*
X115254256Y-105510369D01*
X115424523Y-105450790D01*
X115577263Y-105354817D01*
X115704817Y-105227263D01*
X115800790Y-105074523D01*
X115860369Y-104904256D01*
X115866284Y-104851761D01*
X115880566Y-104725004D01*
X115880566Y-104724997D01*
X115860370Y-104545751D01*
X115860369Y-104545746D01*
X115800789Y-104375476D01*
X115731669Y-104265474D01*
X115712668Y-104198237D01*
X115733035Y-104131402D01*
X115786303Y-104086187D01*
X115836662Y-104075501D01*
X118176001Y-104075501D01*
X118243040Y-104095186D01*
X118288795Y-104147990D01*
X118300001Y-104199501D01*
X118300001Y-105400001D01*
X120800001Y-105400001D01*
X120800001Y-101400001D01*
X119562197Y-101400001D01*
X119495158Y-101380316D01*
X119449403Y-101327512D01*
X119439459Y-101258354D01*
X119468484Y-101194798D01*
X119474497Y-101188338D01*
X119568714Y-101094122D01*
X119568717Y-101094121D01*
X119680521Y-100982317D01*
X119730640Y-100895505D01*
X119759578Y-100845386D01*
X119800501Y-100692659D01*
X119800501Y-100534544D01*
X119800501Y-100147602D01*
X119820186Y-100080563D01*
X119872990Y-100034808D01*
X119942148Y-100024864D01*
X119969300Y-100031977D01*
X119977070Y-100034987D01*
X120050001Y-100048620D01*
X120050001Y-99215687D01*
X120054395Y-99220081D01*
X120145607Y-99272742D01*
X120247340Y-99300001D01*
X120352662Y-99300001D01*
X120454395Y-99272742D01*
X120545607Y-99220081D01*
X120550001Y-99215687D01*
X120550001Y-100048620D01*
X120622940Y-100034985D01*
X120825977Y-99956328D01*
X120825988Y-99956323D01*
X121011131Y-99841686D01*
X121011132Y-99841686D01*
X121091962Y-99768001D01*
X121154766Y-99737384D01*
X121224153Y-99745582D01*
X121278093Y-99789992D01*
X121299461Y-99856514D01*
X121299500Y-99859638D01*
X121299500Y-112395572D01*
X121299184Y-112404419D01*
X121284869Y-112604557D01*
X121282351Y-112622068D01*
X121240646Y-112813787D01*
X121235662Y-112830763D01*
X121167090Y-113014609D01*
X121159740Y-113030701D01*
X121065711Y-113202904D01*
X121056146Y-113217789D01*
X120938558Y-113374867D01*
X120926972Y-113388237D01*
X120788237Y-113526972D01*
X120774867Y-113538558D01*
X120617789Y-113656146D01*
X120602904Y-113665711D01*
X120430701Y-113759740D01*
X120414609Y-113767090D01*
X120230763Y-113835662D01*
X120213787Y-113840646D01*
X120022068Y-113882351D01*
X120004557Y-113884869D01*
X119823779Y-113897799D01*
X119804417Y-113899184D01*
X119795572Y-113899500D01*
X111419339Y-113899500D01*
X111352300Y-113879815D01*
X111306545Y-113827011D01*
X111296601Y-113757853D01*
X111325626Y-113694297D01*
X111384404Y-113656523D01*
X111395147Y-113653883D01*
X111397100Y-113653494D01*
X111397106Y-113653492D01*
X111569992Y-113581881D01*
X111570001Y-113581876D01*
X111725590Y-113477914D01*
X111725594Y-113477911D01*
X111857911Y-113345594D01*
X111857914Y-113345590D01*
X111961876Y-113190001D01*
X111961881Y-113189992D01*
X112033492Y-113017106D01*
X112033494Y-113017098D01*
X112070000Y-112833572D01*
X112070001Y-112833570D01*
X112070001Y-112590001D01*
X111420001Y-112590001D01*
X111420001Y-112090001D01*
X112070001Y-112090001D01*
X112070001Y-111846431D01*
X112070000Y-111846429D01*
X112033494Y-111662903D01*
X112033492Y-111662895D01*
X111961881Y-111490009D01*
X111961876Y-111490000D01*
X111857914Y-111334411D01*
X111857911Y-111334407D01*
X111725594Y-111202090D01*
X111725590Y-111202087D01*
X111570001Y-111098125D01*
X111569992Y-111098120D01*
X111397104Y-111026508D01*
X111397101Y-111026507D01*
X111370001Y-111021116D01*
X111370001Y-111773012D01*
X111360061Y-111755796D01*
X111304206Y-111699941D01*
X111235797Y-111660445D01*
X111159497Y-111640001D01*
X111080505Y-111640001D01*
X111004205Y-111660445D01*
X110935796Y-111699941D01*
X110879941Y-111755796D01*
X110870001Y-111773012D01*
X110870001Y-111021117D01*
X110870000Y-111021116D01*
X110842900Y-111026507D01*
X110842897Y-111026508D01*
X110670009Y-111098120D01*
X110670000Y-111098125D01*
X110514411Y-111202087D01*
X110514407Y-111202090D01*
X110382090Y-111334407D01*
X110382087Y-111334411D01*
X110278125Y-111490000D01*
X110278120Y-111490009D01*
X110206509Y-111662895D01*
X110206507Y-111662903D01*
X110170001Y-111846429D01*
X110170001Y-112090001D01*
X110820001Y-112090001D01*
X110820001Y-112590001D01*
X110170001Y-112590001D01*
X110170001Y-112833572D01*
X110206507Y-113017098D01*
X110206509Y-113017106D01*
X110278120Y-113189992D01*
X110278125Y-113190001D01*
X110382087Y-113345590D01*
X110382090Y-113345594D01*
X110514407Y-113477911D01*
X110514411Y-113477914D01*
X110670000Y-113581876D01*
X110670009Y-113581881D01*
X110842895Y-113653492D01*
X110842901Y-113653494D01*
X110844855Y-113653883D01*
X110845783Y-113654368D01*
X110848728Y-113655262D01*
X110848558Y-113655820D01*
X110906766Y-113686268D01*
X110941340Y-113746984D01*
X110937600Y-113816753D01*
X110896733Y-113873425D01*
X110831715Y-113899007D01*
X110820663Y-113899500D01*
X102779339Y-113899500D01*
X102712300Y-113879815D01*
X102666545Y-113827011D01*
X102656601Y-113757853D01*
X102685626Y-113694297D01*
X102744404Y-113656523D01*
X102755147Y-113653883D01*
X102757100Y-113653494D01*
X102757106Y-113653492D01*
X102929992Y-113581881D01*
X102930001Y-113581876D01*
X103085590Y-113477914D01*
X103085594Y-113477911D01*
X103217911Y-113345594D01*
X103217914Y-113345590D01*
X103321876Y-113190001D01*
X103321881Y-113189992D01*
X103393492Y-113017106D01*
X103393494Y-113017098D01*
X103430000Y-112833572D01*
X103430001Y-112833570D01*
X103430001Y-112590001D01*
X102780001Y-112590001D01*
X102780001Y-112090001D01*
X103430001Y-112090001D01*
X103430001Y-111846431D01*
X103430000Y-111846429D01*
X103393494Y-111662903D01*
X103393492Y-111662895D01*
X103321881Y-111490009D01*
X103321876Y-111490000D01*
X103217914Y-111334411D01*
X103217911Y-111334407D01*
X103085594Y-111202090D01*
X103085590Y-111202087D01*
X102930001Y-111098125D01*
X102929992Y-111098120D01*
X102757104Y-111026508D01*
X102757101Y-111026507D01*
X102730001Y-111021116D01*
X102730001Y-111773012D01*
X102720061Y-111755796D01*
X102664206Y-111699941D01*
X102595797Y-111660445D01*
X102519497Y-111640001D01*
X102440505Y-111640001D01*
X102364205Y-111660445D01*
X102295796Y-111699941D01*
X102239941Y-111755796D01*
X102230001Y-111773012D01*
X102230001Y-111021117D01*
X102230000Y-111021116D01*
X102202900Y-111026507D01*
X102202897Y-111026508D01*
X102030009Y-111098120D01*
X102030000Y-111098125D01*
X101874411Y-111202087D01*
X101874407Y-111202090D01*
X101742090Y-111334407D01*
X101742087Y-111334411D01*
X101638125Y-111490000D01*
X101638120Y-111490009D01*
X101566509Y-111662895D01*
X101566507Y-111662903D01*
X101530001Y-111846429D01*
X101530001Y-112090001D01*
X102180001Y-112090001D01*
X102180001Y-112590001D01*
X101530001Y-112590001D01*
X101530001Y-112833572D01*
X101566507Y-113017098D01*
X101566509Y-113017106D01*
X101638120Y-113189992D01*
X101638125Y-113190001D01*
X101742087Y-113345590D01*
X101742090Y-113345594D01*
X101874407Y-113477911D01*
X101874411Y-113477914D01*
X102030000Y-113581876D01*
X102030009Y-113581881D01*
X102202895Y-113653492D01*
X102202901Y-113653494D01*
X102204855Y-113653883D01*
X102205783Y-113654368D01*
X102208728Y-113655262D01*
X102208558Y-113655820D01*
X102266766Y-113686268D01*
X102301340Y-113746984D01*
X102297600Y-113816753D01*
X102256733Y-113873425D01*
X102191715Y-113899007D01*
X102180663Y-113899500D01*
X93804429Y-113899500D01*
X93795583Y-113899184D01*
X93773623Y-113897613D01*
X93595443Y-113884869D01*
X93577932Y-113882351D01*
X93386210Y-113840645D01*
X93369235Y-113835661D01*
X93185395Y-113767093D01*
X93169301Y-113759743D01*
X92997092Y-113665709D01*
X92982209Y-113656144D01*
X92825136Y-113538561D01*
X92811765Y-113526975D01*
X92673025Y-113388235D01*
X92661439Y-113374864D01*
X92543856Y-113217791D01*
X92534291Y-113202908D01*
X92502816Y-113145266D01*
X92440255Y-113030695D01*
X92432911Y-113014615D01*
X92364334Y-112830755D01*
X92359355Y-112813797D01*
X92317647Y-112622063D01*
X92315130Y-112604556D01*
X92311317Y-112551252D01*
X92300817Y-112404443D01*
X92300501Y-112395597D01*
X92300501Y-99859637D01*
X92320186Y-99792598D01*
X92372990Y-99746843D01*
X92442148Y-99736899D01*
X92505704Y-99765924D01*
X92508039Y-99768000D01*
X92588869Y-99841686D01*
X92774013Y-99956323D01*
X92774024Y-99956328D01*
X92977061Y-100034985D01*
X93050001Y-100048620D01*
X93050001Y-99215687D01*
X93054395Y-99220081D01*
X93145607Y-99272742D01*
X93247340Y-99300001D01*
X93352662Y-99300001D01*
X93454395Y-99272742D01*
X93545607Y-99220081D01*
X93550001Y-99215687D01*
X93550001Y-100048620D01*
X93622940Y-100034985D01*
X93825977Y-99956328D01*
X93825988Y-99956323D01*
X93910223Y-99904167D01*
X93977584Y-99885611D01*
X94044283Y-99906419D01*
X94089145Y-99959984D01*
X94099501Y-100009594D01*
X94099501Y-103237711D01*
X94079816Y-103304750D01*
X94041473Y-103342705D01*
X93997739Y-103370184D01*
X93870185Y-103497738D01*
X93774212Y-103650477D01*
X93714632Y-103820746D01*
X93714631Y-103820751D01*
X93694436Y-103999997D01*
X93694436Y-104000004D01*
X93714631Y-104179250D01*
X93714632Y-104179255D01*
X93774212Y-104349524D01*
X93848129Y-104467161D01*
X93870185Y-104502263D01*
X93997739Y-104629817D01*
X94073174Y-104677216D01*
X94140366Y-104719436D01*
X94150479Y-104725790D01*
X94309783Y-104781533D01*
X94320746Y-104785369D01*
X94320751Y-104785370D01*
X94499997Y-104805566D01*
X94500001Y-104805566D01*
X94500005Y-104805566D01*
X94679250Y-104785370D01*
X94679253Y-104785369D01*
X94679256Y-104785369D01*
X94849523Y-104725790D01*
X95002263Y-104629817D01*
X95129817Y-104502263D01*
X95225790Y-104349523D01*
X95285369Y-104179256D01*
X95294842Y-104095186D01*
X95305566Y-104000003D01*
X95305566Y-104000001D01*
X95301999Y-103968344D01*
X95297100Y-103924870D01*
X95299926Y-103887185D01*
X95299441Y-103887122D01*
X95300502Y-103879062D01*
X95300502Y-103713348D01*
X95300501Y-103713330D01*
X95300501Y-97500098D01*
X95320186Y-97433059D01*
X95336818Y-97412419D01*
X95358503Y-97390733D01*
X95358508Y-97390729D01*
X95368715Y-97380521D01*
X95368717Y-97380521D01*
X95480521Y-97268717D01*
X95480521Y-97268715D01*
X95490725Y-97258512D01*
X95490729Y-97258507D01*
X95524181Y-97225054D01*
X95585502Y-97191571D01*
X95655194Y-97196555D01*
X95677828Y-97207741D01*
X95758613Y-97258502D01*
X95815745Y-97294401D01*
X95824744Y-97300055D01*
X95995011Y-97359634D01*
X96081935Y-97369427D01*
X96146346Y-97396492D01*
X96155731Y-97404966D01*
X96550584Y-97799819D01*
X96584069Y-97861142D01*
X96579085Y-97930834D01*
X96550584Y-97975181D01*
X96006287Y-98519479D01*
X95894482Y-98631283D01*
X95894476Y-98631291D01*
X95855118Y-98699463D01*
X95855118Y-98699465D01*
X95815424Y-98768215D01*
X95801782Y-98819125D01*
X95774500Y-98920944D01*
X95774500Y-98920946D01*
X95774500Y-99089047D01*
X95774501Y-99089060D01*
X95774501Y-104763331D01*
X95774500Y-104763349D01*
X95774500Y-104939047D01*
X95774501Y-104939060D01*
X95774501Y-106363331D01*
X95774500Y-106363349D01*
X95774500Y-106529055D01*
X95774499Y-106529055D01*
X95815424Y-106681786D01*
X95829877Y-106706819D01*
X95894478Y-106818713D01*
X95894480Y-106818716D01*
X95894481Y-106818717D01*
X96006285Y-106930521D01*
X96006286Y-106930522D01*
X96356285Y-107280521D01*
X96356287Y-107280522D01*
X96356291Y-107280525D01*
X96451285Y-107335369D01*
X96493217Y-107359578D01*
X96645944Y-107400502D01*
X96645946Y-107400502D01*
X96811655Y-107400502D01*
X96811671Y-107400501D01*
X101406001Y-107400501D01*
X101473040Y-107420186D01*
X101518795Y-107472990D01*
X101530001Y-107524501D01*
X101530001Y-107920001D01*
X102180001Y-107920001D01*
X102180001Y-108420001D01*
X101530001Y-108420001D01*
X101530001Y-108813572D01*
X101566507Y-108997098D01*
X101566509Y-108997106D01*
X101638120Y-109169992D01*
X101638125Y-109170001D01*
X101742087Y-109325590D01*
X101742090Y-109325594D01*
X101874407Y-109457911D01*
X101874411Y-109457914D01*
X102030000Y-109561876D01*
X102030013Y-109561883D01*
X102202890Y-109633490D01*
X102202897Y-109633492D01*
X102230001Y-109638883D01*
X102230001Y-108886989D01*
X102239941Y-108904206D01*
X102295796Y-108960061D01*
X102364205Y-108999557D01*
X102440505Y-109020001D01*
X102519497Y-109020001D01*
X102595797Y-108999557D01*
X102664206Y-108960061D01*
X102720061Y-108904206D01*
X102730001Y-108886989D01*
X102730001Y-109638882D01*
X102757104Y-109633492D01*
X102757111Y-109633490D01*
X102929988Y-109561883D01*
X102930001Y-109561876D01*
X103085590Y-109457914D01*
X103085594Y-109457911D01*
X103217911Y-109325594D01*
X103217914Y-109325590D01*
X103321876Y-109170001D01*
X103321883Y-109169988D01*
X103347397Y-109108392D01*
X103391237Y-109053988D01*
X103457532Y-109031923D01*
X103525231Y-109049202D01*
X103549639Y-109068163D01*
X103571986Y-109090510D01*
X103571987Y-109090511D01*
X103571989Y-109090512D01*
X103697512Y-109162983D01*
X103697513Y-109162983D01*
X103697516Y-109162985D01*
X103837526Y-109200501D01*
X103837529Y-109200501D01*
X103982473Y-109200501D01*
X103982476Y-109200501D01*
X104122486Y-109162985D01*
X104196524Y-109120238D01*
X104264423Y-109103766D01*
X104330450Y-109126618D01*
X104363517Y-109161653D01*
X104370185Y-109172265D01*
X104497739Y-109299819D01*
X104538760Y-109325594D01*
X104645672Y-109392772D01*
X104650479Y-109395792D01*
X104820746Y-109455371D01*
X104820751Y-109455372D01*
X104999997Y-109475568D01*
X105000001Y-109475568D01*
X105000005Y-109475568D01*
X105179250Y-109455372D01*
X105179253Y-109455371D01*
X105179256Y-109455371D01*
X105349523Y-109395792D01*
X105349524Y-109395790D01*
X105349530Y-109395789D01*
X105355796Y-109392772D01*
X105356937Y-109395143D01*
X105412548Y-109379400D01*
X105477312Y-109398399D01*
X105600479Y-109475790D01*
X105652332Y-109493933D01*
X105699057Y-109523292D01*
X105856285Y-109680521D01*
X105856287Y-109680522D01*
X105856288Y-109680523D01*
X105856291Y-109680525D01*
X105993210Y-109759574D01*
X105993213Y-109759576D01*
X105993217Y-109759578D01*
X106145944Y-109800502D01*
X106145946Y-109800502D01*
X106311655Y-109800502D01*
X106311671Y-109800501D01*
X106763332Y-109800501D01*
X106763348Y-109800502D01*
X106770944Y-109800502D01*
X106929055Y-109800502D01*
X106929058Y-109800502D01*
X107081786Y-109759578D01*
X107159076Y-109714954D01*
X107207192Y-109699122D01*
X107329251Y-109685370D01*
X107329254Y-109685369D01*
X107329256Y-109685369D01*
X107499523Y-109625790D01*
X107652263Y-109529817D01*
X107779817Y-109402263D01*
X107875790Y-109249523D01*
X107935369Y-109079256D01*
X107938216Y-109053988D01*
X107955566Y-108900004D01*
X107955566Y-108899997D01*
X107935370Y-108720751D01*
X107935369Y-108720746D01*
X107875789Y-108550477D01*
X107836583Y-108488081D01*
X107779817Y-108397739D01*
X107652263Y-108270185D01*
X107626699Y-108254122D01*
X107499524Y-108174212D01*
X107329255Y-108114632D01*
X107329250Y-108114631D01*
X107150005Y-108094436D01*
X107149997Y-108094436D01*
X106970751Y-108114631D01*
X106970746Y-108114632D01*
X106800477Y-108174212D01*
X106703540Y-108235122D01*
X106636303Y-108254122D01*
X106569468Y-108233754D01*
X106549887Y-108217809D01*
X106515838Y-108183760D01*
X106482353Y-108122437D01*
X106487337Y-108052745D01*
X106515838Y-108008398D01*
X106604235Y-107920001D01*
X107158507Y-107365729D01*
X107158512Y-107365725D01*
X107168715Y-107355521D01*
X107168717Y-107355521D01*
X107280521Y-107243717D01*
X107284128Y-107237469D01*
X107334339Y-107150502D01*
X107334340Y-107150500D01*
X107359575Y-107106791D01*
X107359574Y-107106791D01*
X107359578Y-107106786D01*
X107400501Y-106954058D01*
X107400501Y-106795944D01*
X107400501Y-106107413D01*
X107420186Y-106040374D01*
X107427556Y-106030098D01*
X107429811Y-106027268D01*
X107429817Y-106027263D01*
X107476377Y-105953162D01*
X107528711Y-105906873D01*
X107597764Y-105896225D01*
X107661612Y-105924600D01*
X107686908Y-105954039D01*
X107729658Y-106023347D01*
X107729661Y-106023351D01*
X107790522Y-106084212D01*
X107824007Y-106145535D01*
X107819883Y-106212847D01*
X107764633Y-106370743D01*
X107764631Y-106370751D01*
X107744436Y-106549997D01*
X107744436Y-106550004D01*
X107764631Y-106729250D01*
X107764632Y-106729255D01*
X107824212Y-106899524D01*
X107896398Y-107014407D01*
X107920185Y-107052263D01*
X108047739Y-107179817D01*
X108200479Y-107275790D01*
X108326827Y-107320001D01*
X108370746Y-107335369D01*
X108370751Y-107335370D01*
X108549997Y-107355566D01*
X108550001Y-107355566D01*
X108550005Y-107355566D01*
X108729250Y-107335370D01*
X108729253Y-107335369D01*
X108729256Y-107335369D01*
X108899523Y-107275790D01*
X109052263Y-107179817D01*
X109179817Y-107052263D01*
X109275790Y-106899523D01*
X109335369Y-106729256D01*
X109339511Y-106692493D01*
X109355566Y-106550004D01*
X109355566Y-106549997D01*
X109335370Y-106370751D01*
X109335369Y-106370746D01*
X109280118Y-106212848D01*
X109276557Y-106143069D01*
X109309476Y-106084215D01*
X109370341Y-106023351D01*
X109460909Y-105876517D01*
X109515175Y-105712754D01*
X109525501Y-105611678D01*
X109525500Y-105013325D01*
X109515175Y-104912248D01*
X109460909Y-104748485D01*
X109370341Y-104601651D01*
X109256018Y-104487328D01*
X109222533Y-104426005D01*
X109227517Y-104356313D01*
X109256018Y-104311965D01*
X109369949Y-104198034D01*
X109460449Y-104051312D01*
X109460454Y-104051301D01*
X109514681Y-103887653D01*
X109525000Y-103786655D01*
X109525001Y-103786642D01*
X109525001Y-103737501D01*
X107575002Y-103737501D01*
X107575002Y-103786655D01*
X107585320Y-103887653D01*
X107639547Y-104051301D01*
X107639552Y-104051312D01*
X107730053Y-104198035D01*
X107730056Y-104198039D01*
X107843983Y-104311966D01*
X107877468Y-104373289D01*
X107872484Y-104442981D01*
X107843984Y-104487328D01*
X107729660Y-104601652D01*
X107639094Y-104748482D01*
X107639092Y-104748487D01*
X107628142Y-104781533D01*
X107587476Y-104904256D01*
X107582698Y-104918674D01*
X107580379Y-104917905D01*
X107552419Y-104969469D01*
X107491193Y-105003132D01*
X107421487Y-104998350D01*
X107376802Y-104969724D01*
X107302263Y-104895185D01*
X107149524Y-104799212D01*
X106979255Y-104739632D01*
X106979250Y-104739631D01*
X106800005Y-104719436D01*
X106799997Y-104719436D01*
X106620751Y-104739631D01*
X106620737Y-104739634D01*
X106605826Y-104744852D01*
X106536047Y-104748411D01*
X106475421Y-104713680D01*
X106459340Y-104692910D01*
X106395341Y-104589151D01*
X106281018Y-104474828D01*
X106247533Y-104413505D01*
X106252517Y-104343813D01*
X106281018Y-104299465D01*
X106394949Y-104185534D01*
X106485449Y-104038812D01*
X106485454Y-104038801D01*
X106539681Y-103875153D01*
X106550000Y-103774155D01*
X106550001Y-103774142D01*
X106550001Y-103725001D01*
X104600002Y-103725001D01*
X104600002Y-103774155D01*
X104610320Y-103875153D01*
X104664547Y-104038801D01*
X104664552Y-104038812D01*
X104755053Y-104185535D01*
X104755056Y-104185539D01*
X104868983Y-104299466D01*
X104902468Y-104360789D01*
X104897484Y-104430481D01*
X104868984Y-104474828D01*
X104754660Y-104589152D01*
X104664094Y-104735982D01*
X104664092Y-104735987D01*
X104641036Y-104805566D01*
X104609827Y-104899748D01*
X104609827Y-104899749D01*
X104609826Y-104899749D01*
X104599501Y-105000816D01*
X104599501Y-105599170D01*
X104599502Y-105599188D01*
X104609826Y-105700253D01*
X104613968Y-105712752D01*
X104664093Y-105864017D01*
X104754386Y-106010406D01*
X104772826Y-106077796D01*
X104751904Y-106144460D01*
X104698262Y-106189230D01*
X104648847Y-106199501D01*
X99224097Y-106199501D01*
X99157058Y-106179816D01*
X99111303Y-106127012D01*
X99101359Y-106057854D01*
X99130384Y-105994298D01*
X99136416Y-105987820D01*
X99324239Y-105799997D01*
X99633507Y-105490729D01*
X99633512Y-105490725D01*
X99643715Y-105480521D01*
X99643717Y-105480521D01*
X99755521Y-105368717D01*
X99811600Y-105271585D01*
X99834578Y-105231786D01*
X99875501Y-105079058D01*
X99875501Y-104920944D01*
X99875501Y-103175846D01*
X104600001Y-103175846D01*
X104600001Y-103225001D01*
X105325001Y-103225001D01*
X105825001Y-103225001D01*
X106550000Y-103225001D01*
X106550000Y-103188346D01*
X107575001Y-103188346D01*
X107575001Y-103237501D01*
X108300001Y-103237501D01*
X108800001Y-103237501D01*
X109525000Y-103237501D01*
X109525000Y-103188361D01*
X109524999Y-103188346D01*
X109514681Y-103087348D01*
X109460454Y-102923700D01*
X109460449Y-102923689D01*
X109369948Y-102776966D01*
X109369945Y-102776962D01*
X109248039Y-102655056D01*
X109248035Y-102655053D01*
X109101312Y-102564552D01*
X109101301Y-102564547D01*
X108937653Y-102510320D01*
X108836655Y-102500001D01*
X108800001Y-102500001D01*
X108800001Y-103237501D01*
X108300001Y-103237501D01*
X108300001Y-102500001D01*
X108263362Y-102500001D01*
X108263344Y-102500002D01*
X108162348Y-102510320D01*
X107998700Y-102564547D01*
X107998689Y-102564552D01*
X107851966Y-102655053D01*
X107851962Y-102655056D01*
X107730056Y-102776962D01*
X107730053Y-102776966D01*
X107639552Y-102923689D01*
X107639547Y-102923700D01*
X107585320Y-103087348D01*
X107575001Y-103188346D01*
X106550000Y-103188346D01*
X106550000Y-103175861D01*
X106549999Y-103175846D01*
X106539681Y-103074848D01*
X106485454Y-102911200D01*
X106485449Y-102911189D01*
X106394948Y-102764466D01*
X106394945Y-102764462D01*
X106273039Y-102642556D01*
X106273035Y-102642553D01*
X106126312Y-102552052D01*
X106126301Y-102552047D01*
X105962653Y-102497820D01*
X105861655Y-102487501D01*
X105825001Y-102487501D01*
X105825001Y-103225001D01*
X105325001Y-103225001D01*
X105325001Y-102487501D01*
X105288362Y-102487501D01*
X105288344Y-102487502D01*
X105187348Y-102497820D01*
X105023700Y-102552047D01*
X105023689Y-102552052D01*
X104876966Y-102642553D01*
X104876962Y-102642556D01*
X104755056Y-102764462D01*
X104755053Y-102764466D01*
X104664552Y-102911189D01*
X104664547Y-102911200D01*
X104610320Y-103074848D01*
X104600001Y-103175846D01*
X99875501Y-103175846D01*
X99875501Y-100550098D01*
X99895186Y-100483059D01*
X99911820Y-100462417D01*
X100087417Y-100286820D01*
X100148740Y-100253335D01*
X100175098Y-100250501D01*
X105063331Y-100250501D01*
X105063347Y-100250502D01*
X105168060Y-100250502D01*
X105235099Y-100270187D01*
X105280854Y-100322991D01*
X105290798Y-100392149D01*
X105261773Y-100455705D01*
X105255741Y-100462183D01*
X105220185Y-100497738D01*
X105124212Y-100650477D01*
X105064632Y-100820746D01*
X105064631Y-100820751D01*
X105044436Y-100999997D01*
X105044436Y-101000004D01*
X105064631Y-101179250D01*
X105064632Y-101179255D01*
X105124212Y-101349524D01*
X105155929Y-101400001D01*
X105220185Y-101502263D01*
X105347739Y-101629817D01*
X105500479Y-101725790D01*
X105571925Y-101750790D01*
X105670746Y-101785369D01*
X105670751Y-101785370D01*
X105849997Y-101805566D01*
X105850001Y-101805566D01*
X105850005Y-101805566D01*
X106029250Y-101785370D01*
X106029253Y-101785369D01*
X106029256Y-101785369D01*
X106199523Y-101725790D01*
X106352263Y-101629817D01*
X106479817Y-101502263D01*
X106575790Y-101349523D01*
X106635369Y-101179256D01*
X106645162Y-101092330D01*
X106672227Y-101027919D01*
X106680682Y-101018553D01*
X106757757Y-100941478D01*
X106819079Y-100907996D01*
X106888770Y-100912981D01*
X106944704Y-100954852D01*
X106968301Y-101018121D01*
X106968656Y-101018082D01*
X106968815Y-101019501D01*
X106969120Y-101020317D01*
X106969218Y-101023074D01*
X106989631Y-101204250D01*
X106989632Y-101204255D01*
X107049212Y-101374524D01*
X107129476Y-101502263D01*
X107145185Y-101527263D01*
X107272739Y-101654817D01*
X107425479Y-101750790D01*
X107524300Y-101785369D01*
X107595746Y-101810369D01*
X107595751Y-101810370D01*
X107774997Y-101830566D01*
X107775001Y-101830566D01*
X107775005Y-101830566D01*
X107954250Y-101810370D01*
X107954253Y-101810369D01*
X107954256Y-101810369D01*
X108124523Y-101750790D01*
X108277263Y-101654817D01*
X108404817Y-101527263D01*
X108500790Y-101374523D01*
X108560369Y-101204256D01*
X108560370Y-101204250D01*
X108580566Y-101025004D01*
X108580566Y-101024997D01*
X108560370Y-100845751D01*
X108560369Y-100845746D01*
X108551621Y-100820746D01*
X108500790Y-100675479D01*
X108485081Y-100650479D01*
X108422008Y-100550098D01*
X108404817Y-100522739D01*
X108404816Y-100522738D01*
X108402556Y-100519904D01*
X108401666Y-100517725D01*
X108401112Y-100516843D01*
X108401266Y-100516745D01*
X108376147Y-100455217D01*
X108375502Y-100442590D01*
X108375502Y-100420946D01*
X108375502Y-100420944D01*
X108334578Y-100268216D01*
X108255521Y-100131285D01*
X107836820Y-99712584D01*
X107803335Y-99651261D01*
X107800501Y-99624903D01*
X107800501Y-98790871D01*
X107820186Y-98723832D01*
X107872990Y-98678077D01*
X107942148Y-98668133D01*
X107967227Y-98675779D01*
X107967556Y-98674841D01*
X108144396Y-98736720D01*
X108144401Y-98736721D01*
X108323647Y-98756917D01*
X108323651Y-98756917D01*
X108323655Y-98756917D01*
X108502900Y-98736721D01*
X108502903Y-98736720D01*
X108502906Y-98736720D01*
X108673173Y-98677141D01*
X108684165Y-98670234D01*
X108751399Y-98651233D01*
X108808238Y-98667922D01*
X108808872Y-98666607D01*
X108815137Y-98669624D01*
X108815144Y-98669626D01*
X108815145Y-98669627D01*
X108900417Y-98699465D01*
X108985412Y-98729206D01*
X108985417Y-98729207D01*
X109164663Y-98749403D01*
X109164667Y-98749403D01*
X109164671Y-98749403D01*
X109343916Y-98729207D01*
X109343919Y-98729206D01*
X109343922Y-98729206D01*
X109514189Y-98669627D01*
X109666929Y-98573654D01*
X109794483Y-98446100D01*
X109839086Y-98375113D01*
X109891420Y-98328822D01*
X109930197Y-98317865D01*
X109955802Y-98314980D01*
X110023644Y-98307337D01*
X110023647Y-98307336D01*
X110023650Y-98307336D01*
X110193917Y-98247757D01*
X110346657Y-98151784D01*
X110474211Y-98024230D01*
X110570184Y-97871490D01*
X110629763Y-97701223D01*
X110640962Y-97601830D01*
X110649960Y-97521971D01*
X110649960Y-97521964D01*
X110629764Y-97342718D01*
X110629763Y-97342713D01*
X110607011Y-97277692D01*
X110570184Y-97172446D01*
X110481979Y-97032069D01*
X110462980Y-96964835D01*
X110469935Y-96925139D01*
X110472869Y-96916756D01*
X110477671Y-96874141D01*
X110493066Y-96737504D01*
X110493066Y-96737497D01*
X110472356Y-96553689D01*
X110484411Y-96484868D01*
X110507892Y-96452128D01*
X110661034Y-96298986D01*
X110722355Y-96265503D01*
X110792047Y-96270487D01*
X110847980Y-96312359D01*
X110853707Y-96320697D01*
X110915179Y-96418529D01*
X111042733Y-96546083D01*
X111195473Y-96642056D01*
X111281340Y-96672102D01*
X111365740Y-96701635D01*
X111365745Y-96701636D01*
X111544991Y-96721832D01*
X111544995Y-96721832D01*
X111544999Y-96721832D01*
X111724244Y-96701636D01*
X111724247Y-96701635D01*
X111724250Y-96701635D01*
X111894517Y-96642056D01*
X112047257Y-96546083D01*
X112047262Y-96546077D01*
X112048185Y-96545342D01*
X112048901Y-96545049D01*
X112053153Y-96542378D01*
X112053620Y-96543122D01*
X112112871Y-96518932D01*
X112181567Y-96531686D01*
X112232462Y-96579555D01*
X112249501Y-96642287D01*
X112249501Y-100344498D01*
X112230495Y-100410470D01*
X112173475Y-100501217D01*
X112113899Y-100671473D01*
X112113896Y-100671486D01*
X112093701Y-100850732D01*
X112093701Y-100850739D01*
X112113896Y-101029985D01*
X112113897Y-101029990D01*
X112173477Y-101200259D01*
X112267267Y-101349524D01*
X112269450Y-101352998D01*
X112397004Y-101480552D01*
X112549744Y-101576525D01*
X112702041Y-101629816D01*
X112720011Y-101636104D01*
X112720016Y-101636105D01*
X112899262Y-101656301D01*
X112899266Y-101656301D01*
X112899270Y-101656301D01*
X113078515Y-101636105D01*
X113078518Y-101636104D01*
X113078521Y-101636104D01*
X113248788Y-101576525D01*
X113401528Y-101480552D01*
X113529082Y-101352998D01*
X113625055Y-101200258D01*
X113684634Y-101029991D01*
X113684635Y-101029985D01*
X113704831Y-100850739D01*
X113704831Y-100850732D01*
X113684635Y-100671486D01*
X113684634Y-100671481D01*
X113642160Y-100550098D01*
X113625055Y-100501214D01*
X113613647Y-100483059D01*
X113568037Y-100410470D01*
X113529082Y-100348474D01*
X113486820Y-100306212D01*
X113453335Y-100244889D01*
X113450501Y-100218531D01*
X113450501Y-96363510D01*
X113469508Y-96297538D01*
X113566430Y-96143288D01*
X113566430Y-96143286D01*
X113566432Y-96143284D01*
X113626011Y-95973017D01*
X113627713Y-95957913D01*
X113638676Y-95860617D01*
X113665742Y-95796203D01*
X113723337Y-95756648D01*
X113761896Y-95750501D01*
X117963332Y-95750501D01*
X117963348Y-95750502D01*
X117970944Y-95750502D01*
X118129055Y-95750502D01*
X118129058Y-95750502D01*
X118281786Y-95709578D01*
X118337769Y-95677256D01*
X118418717Y-95630521D01*
X118530521Y-95518717D01*
X118530521Y-95518715D01*
X118540725Y-95508512D01*
X118540729Y-95508507D01*
X118944457Y-95104778D01*
X119005778Y-95071295D01*
X119075470Y-95076279D01*
G37*
G04 #@! TD.AperFunction*
G04 #@! TA.AperFunction,Conductor*
G36*
X104342540Y-107420186D02*
G01*
X104388295Y-107472990D01*
X104399501Y-107524501D01*
X104399501Y-107944975D01*
X104391979Y-107987506D01*
X104350603Y-108100820D01*
X104309118Y-108157041D01*
X104243824Y-108181909D01*
X104175450Y-108167528D01*
X104172143Y-108165686D01*
X104122486Y-108137017D01*
X103982476Y-108099501D01*
X103837526Y-108099501D01*
X103708994Y-108133941D01*
X103697512Y-108137018D01*
X103571989Y-108209489D01*
X103571983Y-108209494D01*
X103469494Y-108311983D01*
X103469490Y-108311989D01*
X103442925Y-108358001D01*
X103392358Y-108406217D01*
X103335538Y-108420001D01*
X102780001Y-108420001D01*
X102780001Y-107920001D01*
X103430001Y-107920001D01*
X103430001Y-107524501D01*
X103449686Y-107457462D01*
X103502490Y-107411707D01*
X103554001Y-107400501D01*
X104275501Y-107400501D01*
X104342540Y-107420186D01*
G37*
G04 #@! TD.AperFunction*
G04 #@! TA.AperFunction,Conductor*
G36*
X97163649Y-100065219D02*
G01*
X97210395Y-100093479D01*
X97372805Y-100144087D01*
X97443385Y-100150501D01*
X97443388Y-100150501D01*
X98456614Y-100150501D01*
X98456617Y-100150501D01*
X98527197Y-100144087D01*
X98527198Y-100144086D01*
X98533731Y-100143493D01*
X98533862Y-100144941D01*
X98595888Y-100150485D01*
X98651070Y-100193342D01*
X98674322Y-100259229D01*
X98674500Y-100265880D01*
X98674500Y-100339047D01*
X98674501Y-100339060D01*
X98674501Y-102286812D01*
X98654816Y-102353851D01*
X98602012Y-102399606D01*
X98532854Y-102409550D01*
X98503050Y-102401374D01*
X98462521Y-102384587D01*
X98462513Y-102384585D01*
X98288647Y-102350001D01*
X98200001Y-102350001D01*
X98200001Y-103126001D01*
X98187239Y-103169462D01*
X98161941Y-103108387D01*
X98091615Y-103038061D01*
X97999729Y-103000001D01*
X97900273Y-103000001D01*
X97808387Y-103038061D01*
X97738061Y-103108387D01*
X97710594Y-103174697D01*
X97700001Y-103126001D01*
X97700001Y-102350001D01*
X97611354Y-102350001D01*
X97437488Y-102384585D01*
X97437480Y-102384587D01*
X97273693Y-102452429D01*
X97273686Y-102452433D01*
X97168391Y-102522789D01*
X97101714Y-102543666D01*
X97034334Y-102525181D01*
X96987644Y-102473202D01*
X96975501Y-102419686D01*
X96975501Y-100171337D01*
X96995186Y-100104298D01*
X97047990Y-100058543D01*
X97117148Y-100048599D01*
X97163649Y-100065219D01*
G37*
G04 #@! TD.AperFunction*
G04 #@! TA.AperFunction,Conductor*
G36*
X107606335Y-96103258D02*
G01*
X107662268Y-96145130D01*
X107686685Y-96210594D01*
X107687001Y-96219440D01*
X107687001Y-97424241D01*
X107667995Y-97490213D01*
X107629427Y-97551593D01*
X107577092Y-97597884D01*
X107508038Y-97608532D01*
X107444190Y-97580157D01*
X107436752Y-97573302D01*
X106928820Y-97065370D01*
X106895335Y-97004047D01*
X106892501Y-96977689D01*
X106892501Y-96759783D01*
X106912186Y-96692744D01*
X106928811Y-96672111D01*
X107050450Y-96550471D01*
X107076133Y-96530767D01*
X107076560Y-96530521D01*
X107188364Y-96418717D01*
X107188364Y-96418715D01*
X107198568Y-96408512D01*
X107198572Y-96408507D01*
X107475320Y-96131759D01*
X107536643Y-96098274D01*
X107606335Y-96103258D01*
G37*
G04 #@! TD.AperFunction*
G04 #@! TA.AperFunction,Conductor*
G36*
X101443749Y-90170186D02*
G01*
X101464391Y-90186820D01*
X103629803Y-92352232D01*
X103663288Y-92413555D01*
X103665342Y-92426029D01*
X103675135Y-92512948D01*
X103734715Y-92683220D01*
X103765932Y-92732901D01*
X103830689Y-92835961D01*
X103958243Y-92963515D01*
X104019635Y-93002090D01*
X104105530Y-93056062D01*
X104110983Y-93059488D01*
X104275111Y-93116919D01*
X104281250Y-93119067D01*
X104281255Y-93119068D01*
X104460501Y-93139264D01*
X104460505Y-93139264D01*
X104460509Y-93139264D01*
X104639754Y-93119068D01*
X104639757Y-93119067D01*
X104639760Y-93119067D01*
X104810027Y-93059488D01*
X104817638Y-93054705D01*
X104884871Y-93035700D01*
X104951708Y-93056062D01*
X104971298Y-93072013D01*
X106029400Y-94130115D01*
X106029410Y-94130126D01*
X106033740Y-94134456D01*
X106033741Y-94134457D01*
X106145545Y-94246261D01*
X106249949Y-94306538D01*
X106298164Y-94357104D01*
X106311388Y-94425711D01*
X106285420Y-94490576D01*
X106275631Y-94501605D01*
X106164057Y-94613181D01*
X106102734Y-94646667D01*
X106076375Y-94649501D01*
X105020090Y-94649501D01*
X104953051Y-94629816D01*
X104932409Y-94613182D01*
X103733374Y-93414148D01*
X103699889Y-93352825D01*
X103697837Y-93340369D01*
X103688042Y-93253428D01*
X103628463Y-93083161D01*
X103532490Y-92930421D01*
X103404936Y-92802867D01*
X103252197Y-92706894D01*
X103081928Y-92647314D01*
X103081923Y-92647313D01*
X102902678Y-92627118D01*
X102902670Y-92627118D01*
X102723424Y-92647313D01*
X102723419Y-92647314D01*
X102553150Y-92706894D01*
X102400411Y-92802867D01*
X102272858Y-92930420D01*
X102176885Y-93083159D01*
X102117305Y-93253428D01*
X102117304Y-93253433D01*
X102097109Y-93432679D01*
X102097109Y-93438001D01*
X102077424Y-93505040D01*
X102024620Y-93550795D01*
X101973109Y-93562001D01*
X100653285Y-93562001D01*
X100586246Y-93542316D01*
X100565604Y-93525682D01*
X99428277Y-92388356D01*
X99428275Y-92388353D01*
X99309404Y-92269482D01*
X99309396Y-92269476D01*
X99222058Y-92219052D01*
X99222057Y-92219052D01*
X99172472Y-92190424D01*
X99042104Y-92155491D01*
X98982447Y-92119128D01*
X98951918Y-92056281D01*
X98960213Y-91986905D01*
X98971097Y-91966831D01*
X98998014Y-91926548D01*
X99065895Y-91762667D01*
X99100501Y-91588692D01*
X99100501Y-91411310D01*
X99100501Y-91411307D01*
X99100500Y-91411305D01*
X99065897Y-91237342D01*
X99065894Y-91237333D01*
X99056820Y-91215427D01*
X99048924Y-91196364D01*
X98998017Y-91073460D01*
X98998015Y-91073456D01*
X98998014Y-91073454D01*
X98911141Y-90943441D01*
X98890264Y-90876765D01*
X98908748Y-90809385D01*
X98911142Y-90805660D01*
X98997567Y-90676316D01*
X98997572Y-90676307D01*
X99065413Y-90512524D01*
X99065416Y-90512517D01*
X99067905Y-90500001D01*
X98074001Y-90500001D01*
X98030539Y-90487239D01*
X98091615Y-90461941D01*
X98161941Y-90391615D01*
X98200001Y-90299729D01*
X98200001Y-90200273D01*
X98179385Y-90150501D01*
X101376710Y-90150501D01*
X101443749Y-90170186D01*
G37*
G04 #@! TD.AperFunction*
G04 #@! TA.AperFunction,Conductor*
G36*
X119725348Y-84900393D02*
G01*
X119726950Y-84900501D01*
X119734109Y-84900501D01*
X119795579Y-84900501D01*
X119804425Y-84900817D01*
X120004560Y-84915131D01*
X120022065Y-84917648D01*
X120213796Y-84959356D01*
X120230755Y-84964335D01*
X120414615Y-85032912D01*
X120430695Y-85040256D01*
X120602906Y-85134291D01*
X120602908Y-85134292D01*
X120617791Y-85143857D01*
X120774859Y-85261436D01*
X120788231Y-85273022D01*
X120926975Y-85411767D01*
X120938560Y-85425138D01*
X121056145Y-85582213D01*
X121065710Y-85597096D01*
X121159742Y-85769301D01*
X121167092Y-85785395D01*
X121235660Y-85969235D01*
X121240644Y-85986210D01*
X121282350Y-86177932D01*
X121284868Y-86195444D01*
X121299184Y-86395606D01*
X121299500Y-86404452D01*
X121299500Y-87633258D01*
X121279815Y-87700297D01*
X121227011Y-87746052D01*
X121157853Y-87755996D01*
X121132168Y-87749440D01*
X121082486Y-87730910D01*
X121082484Y-87730909D01*
X121022884Y-87724502D01*
X121022882Y-87724501D01*
X121022874Y-87724501D01*
X121022865Y-87724501D01*
X119577130Y-87724501D01*
X119577124Y-87724502D01*
X119517517Y-87730909D01*
X119382672Y-87781203D01*
X119382665Y-87781207D01*
X119267456Y-87867453D01*
X119267453Y-87867456D01*
X119181207Y-87982665D01*
X119181203Y-87982672D01*
X119130909Y-88117518D01*
X119124502Y-88177117D01*
X119124502Y-88177124D01*
X119124501Y-88177136D01*
X119124501Y-89174903D01*
X119104816Y-89241942D01*
X119088182Y-89262584D01*
X118344482Y-90006283D01*
X118344480Y-90006286D01*
X118335583Y-90021697D01*
X118301955Y-90079943D01*
X118265424Y-90143216D01*
X118224500Y-90295944D01*
X118224500Y-90295946D01*
X118224500Y-90464047D01*
X118224501Y-90464060D01*
X118224501Y-92943532D01*
X118204816Y-93010571D01*
X118188182Y-93031213D01*
X117506213Y-93713182D01*
X117444890Y-93746667D01*
X117418532Y-93749501D01*
X113724095Y-93749501D01*
X113657056Y-93729816D01*
X113611301Y-93677012D01*
X113601357Y-93607854D01*
X113630382Y-93544298D01*
X113636405Y-93537827D01*
X113863955Y-93310277D01*
X113863960Y-93310274D01*
X113874160Y-93300073D01*
X113874162Y-93300073D01*
X113985966Y-93188269D01*
X114027160Y-93116919D01*
X114039721Y-93095163D01*
X114039722Y-93095161D01*
X114065020Y-93051343D01*
X114065021Y-93051342D01*
X114065021Y-93051340D01*
X114065023Y-93051338D01*
X114105947Y-92898610D01*
X114105947Y-92740496D01*
X114105947Y-92732901D01*
X114105946Y-92732883D01*
X114105946Y-92151025D01*
X114125631Y-92083986D01*
X114142265Y-92063344D01*
X116421206Y-89784403D01*
X118780521Y-87425089D01*
X118859578Y-87288157D01*
X118891934Y-87167403D01*
X118928298Y-87107746D01*
X118991145Y-87077217D01*
X119011708Y-87075500D01*
X119022872Y-87075500D01*
X119022873Y-87075500D01*
X119082484Y-87069092D01*
X119217332Y-87018797D01*
X119332547Y-86932547D01*
X119418797Y-86817332D01*
X119469092Y-86682484D01*
X119475501Y-86622874D01*
X119475500Y-85177129D01*
X119469092Y-85117518D01*
X119450435Y-85067498D01*
X119445452Y-84997808D01*
X119478937Y-84936485D01*
X119540260Y-84903000D01*
X119566792Y-84900166D01*
X119725348Y-84900393D01*
G37*
G04 #@! TD.AperFunction*
G04 #@! TA.AperFunction,Conductor*
G36*
X111627262Y-84387744D02*
G01*
X111694275Y-84407508D01*
X111720822Y-84430540D01*
X111743398Y-84456594D01*
X111743400Y-84456595D01*
X111743402Y-84456598D01*
X111751632Y-84463729D01*
X111904527Y-84596213D01*
X112083874Y-84711473D01*
X112083891Y-84711482D01*
X112277806Y-84800040D01*
X112277810Y-84800041D01*
X112277812Y-84800042D01*
X112482374Y-84860107D01*
X112693402Y-84890448D01*
X112693405Y-84890448D01*
X112798161Y-84890448D01*
X113341816Y-84891228D01*
X113408826Y-84911009D01*
X113454505Y-84963878D01*
X113464349Y-85033051D01*
X113435233Y-85096565D01*
X113431274Y-85100619D01*
X113427576Y-85104675D01*
X113296289Y-85278528D01*
X113199185Y-85473538D01*
X113139565Y-85683082D01*
X113119465Y-85900000D01*
X113119465Y-85900001D01*
X113139565Y-86116919D01*
X113139565Y-86116921D01*
X113139566Y-86116924D01*
X113199184Y-86326460D01*
X113199185Y-86326463D01*
X113296289Y-86521473D01*
X113427575Y-86695325D01*
X113588565Y-86842086D01*
X113588567Y-86842087D01*
X113588569Y-86842089D01*
X113640779Y-86874415D01*
X113687413Y-86926440D01*
X113699501Y-86979841D01*
X113699501Y-89624903D01*
X113679816Y-89691942D01*
X113663182Y-89712584D01*
X112224927Y-91150838D01*
X112224925Y-91150840D01*
X112221032Y-91157584D01*
X112187639Y-91215424D01*
X112174990Y-91237333D01*
X112172290Y-91242009D01*
X112121721Y-91290223D01*
X112053114Y-91303444D01*
X111988250Y-91277475D01*
X111977223Y-91267687D01*
X111522892Y-90813356D01*
X111522890Y-90813353D01*
X111398271Y-90688734D01*
X111400576Y-90686428D01*
X111368356Y-90642329D01*
X111364182Y-90572585D01*
X111397351Y-90512670D01*
X111698471Y-90211550D01*
X111759792Y-90178067D01*
X111827105Y-90182192D01*
X111935858Y-90220247D01*
X111935864Y-90220248D01*
X111935866Y-90220249D01*
X111935867Y-90220249D01*
X111935871Y-90220250D01*
X112115117Y-90240446D01*
X112115121Y-90240446D01*
X112115125Y-90240446D01*
X112294370Y-90220250D01*
X112294373Y-90220249D01*
X112294376Y-90220249D01*
X112464643Y-90160670D01*
X112617383Y-90064697D01*
X112744937Y-89937143D01*
X112840910Y-89784403D01*
X112900489Y-89614136D01*
X112920686Y-89434881D01*
X112900489Y-89255626D01*
X112840910Y-89085359D01*
X112744937Y-88932619D01*
X112617383Y-88805065D01*
X112579541Y-88781287D01*
X112464644Y-88709092D01*
X112294375Y-88649512D01*
X112294370Y-88649511D01*
X112115125Y-88629316D01*
X112115117Y-88629316D01*
X111935871Y-88649511D01*
X111935866Y-88649512D01*
X111765597Y-88709092D01*
X111612853Y-88805068D01*
X111608833Y-88808275D01*
X111554464Y-88831394D01*
X111554701Y-88832277D01*
X111548451Y-88833951D01*
X111547712Y-88834266D01*
X111546858Y-88834378D01*
X111546851Y-88834380D01*
X111546850Y-88834380D01*
X111501475Y-88846538D01*
X111394117Y-88875305D01*
X111394116Y-88875306D01*
X111358973Y-88895597D01*
X111358971Y-88895598D01*
X111257197Y-88954356D01*
X111257189Y-88954362D01*
X111145385Y-89066167D01*
X107082631Y-93128922D01*
X107021308Y-93162407D01*
X106994950Y-93165241D01*
X106814358Y-93165241D01*
X106747319Y-93145556D01*
X106726677Y-93128922D01*
X105697324Y-92099569D01*
X105663839Y-92038246D01*
X105661005Y-92011888D01*
X105661005Y-91157584D01*
X105661004Y-91157580D01*
X105659198Y-91150838D01*
X105654093Y-91131785D01*
X105620082Y-91004855D01*
X105574535Y-90925966D01*
X105541025Y-90867924D01*
X105429221Y-90756120D01*
X105429220Y-90756119D01*
X105424890Y-90751789D01*
X105424879Y-90751779D01*
X105049447Y-90376347D01*
X105020086Y-90329620D01*
X105008302Y-90295944D01*
X104999121Y-90269704D01*
X104903148Y-90116964D01*
X104775594Y-89989410D01*
X104622855Y-89893437D01*
X104452586Y-89833857D01*
X104452581Y-89833856D01*
X104273336Y-89813661D01*
X104273328Y-89813661D01*
X104094082Y-89833856D01*
X104094077Y-89833857D01*
X103923808Y-89893437D01*
X103771068Y-89989411D01*
X103738781Y-90021697D01*
X103677457Y-90055180D01*
X103607765Y-90050194D01*
X103563421Y-90021694D01*
X102330083Y-88788356D01*
X102330081Y-88788353D01*
X102211210Y-88669482D01*
X102211209Y-88669481D01*
X102124397Y-88619361D01*
X102124397Y-88619360D01*
X102124393Y-88619359D01*
X102074278Y-88590424D01*
X101921550Y-88549500D01*
X101763436Y-88549500D01*
X101755840Y-88549500D01*
X101755824Y-88549501D01*
X95136671Y-88549501D01*
X95136655Y-88549500D01*
X95129059Y-88549500D01*
X94970944Y-88549500D01*
X94894580Y-88569962D01*
X94818215Y-88590424D01*
X94818210Y-88590427D01*
X94681288Y-88669478D01*
X94674986Y-88674314D01*
X94609817Y-88699508D01*
X94541372Y-88685469D01*
X94491382Y-88636655D01*
X94475500Y-88575938D01*
X94475500Y-88177130D01*
X94475499Y-88177124D01*
X94475498Y-88177117D01*
X94469092Y-88117518D01*
X94418797Y-87982670D01*
X94418796Y-87982669D01*
X94418794Y-87982665D01*
X94332548Y-87867456D01*
X94332545Y-87867453D01*
X94217336Y-87781207D01*
X94217329Y-87781203D01*
X94082483Y-87730909D01*
X94082484Y-87730909D01*
X94022884Y-87724502D01*
X94022882Y-87724501D01*
X94022874Y-87724501D01*
X94022865Y-87724501D01*
X92577130Y-87724501D01*
X92577124Y-87724502D01*
X92517515Y-87730910D01*
X92467833Y-87749440D01*
X92398141Y-87754424D01*
X92336818Y-87720938D01*
X92303334Y-87659614D01*
X92300501Y-87633258D01*
X92300501Y-86404427D01*
X92300817Y-86395581D01*
X92305214Y-86334101D01*
X92315131Y-86195437D01*
X92317647Y-86177939D01*
X92359357Y-85986200D01*
X92364334Y-85969249D01*
X92432912Y-85785386D01*
X92440259Y-85769301D01*
X92534295Y-85597084D01*
X92543851Y-85582215D01*
X92661444Y-85425129D01*
X92673018Y-85411772D01*
X92811772Y-85273018D01*
X92825129Y-85261444D01*
X92982215Y-85143851D01*
X92997084Y-85134295D01*
X93169304Y-85040257D01*
X93185386Y-85032912D01*
X93369249Y-84964334D01*
X93386200Y-84959357D01*
X93577939Y-84917647D01*
X93595437Y-84915131D01*
X93795583Y-84900817D01*
X93804429Y-84900501D01*
X93865893Y-84900501D01*
X94033259Y-84900501D01*
X94100298Y-84920186D01*
X94146053Y-84972990D01*
X94155997Y-85042148D01*
X94149441Y-85067835D01*
X94130909Y-85117519D01*
X94128078Y-85143856D01*
X94124502Y-85177124D01*
X94124501Y-85177136D01*
X94124501Y-86622871D01*
X94124502Y-86622877D01*
X94130909Y-86682484D01*
X94181203Y-86817329D01*
X94181207Y-86817336D01*
X94267453Y-86932545D01*
X94267456Y-86932548D01*
X94382665Y-87018794D01*
X94382672Y-87018798D01*
X94517518Y-87069092D01*
X94517517Y-87069092D01*
X94524445Y-87069836D01*
X94577128Y-87075501D01*
X96022873Y-87075500D01*
X96082484Y-87069092D01*
X96217332Y-87018797D01*
X96332547Y-86932547D01*
X96394786Y-86849405D01*
X96450719Y-86807536D01*
X96520411Y-86802552D01*
X96577589Y-86832079D01*
X96588569Y-86842089D01*
X96588571Y-86842090D01*
X96588572Y-86842091D01*
X96773787Y-86956771D01*
X96773793Y-86956774D01*
X96796665Y-86965634D01*
X96976932Y-87035471D01*
X97191075Y-87075501D01*
X97191077Y-87075501D01*
X97408925Y-87075501D01*
X97408927Y-87075501D01*
X97623070Y-87035471D01*
X97826211Y-86956773D01*
X98011433Y-86842089D01*
X98172428Y-86695323D01*
X98201048Y-86657423D01*
X98257154Y-86615788D01*
X98326866Y-86611095D01*
X98388049Y-86644837D01*
X98398947Y-86657415D01*
X98427574Y-86695323D01*
X98588569Y-86842089D01*
X98588576Y-86842093D01*
X98588577Y-86842094D01*
X98773787Y-86956771D01*
X98773793Y-86956774D01*
X98796665Y-86965634D01*
X98976932Y-87035471D01*
X99191075Y-87075501D01*
X99191077Y-87075501D01*
X99408925Y-87075501D01*
X99408927Y-87075501D01*
X99623070Y-87035471D01*
X99826211Y-86956773D01*
X100011433Y-86842089D01*
X100172428Y-86695323D01*
X100303713Y-86521473D01*
X100400818Y-86326460D01*
X100460436Y-86116924D01*
X100480537Y-85900001D01*
X100460436Y-85683078D01*
X100400818Y-85473542D01*
X100303713Y-85278529D01*
X100172428Y-85104679D01*
X100172427Y-85104678D01*
X100168973Y-85100104D01*
X100170914Y-85098637D01*
X100144879Y-85045267D01*
X100153059Y-84975878D01*
X100197454Y-84921926D01*
X100263971Y-84900541D01*
X100267128Y-84900501D01*
X100907318Y-84900501D01*
X100907319Y-84900501D01*
X101077852Y-84875981D01*
X101119765Y-84869956D01*
X101119766Y-84869955D01*
X101119770Y-84869955D01*
X101325712Y-84809485D01*
X101325715Y-84809483D01*
X101325717Y-84809483D01*
X101520939Y-84720328D01*
X101520943Y-84720325D01*
X101520951Y-84720322D01*
X101701514Y-84604281D01*
X101863720Y-84463729D01*
X101863721Y-84463729D01*
X101863722Y-84463726D01*
X101863725Y-84463725D01*
X101902533Y-84418937D01*
X101961308Y-84381163D01*
X101996385Y-84376141D01*
X111627262Y-84387744D01*
G37*
G04 #@! TD.AperFunction*
G04 #@! TA.AperFunction,Conductor*
G36*
X105361300Y-108183769D02*
G01*
X105491153Y-108313622D01*
X105494580Y-108321895D01*
X105493459Y-108326892D01*
X105281910Y-108774761D01*
X105275278Y-108780778D01*
X105266887Y-108780587D01*
X105003816Y-108672566D01*
X104997464Y-108666254D01*
X104997437Y-108666187D01*
X104889471Y-108403250D01*
X104889498Y-108394295D01*
X104895431Y-108388164D01*
X105348168Y-108181398D01*
X105357116Y-108181080D01*
X105361300Y-108183769D01*
G37*
G04 #@! TD.AperFunction*
G04 #@! TA.AperFunction,Conductor*
G36*
X105100091Y-108073430D02*
G01*
X105102808Y-108077690D01*
X105273331Y-108544697D01*
X105272950Y-108553644D01*
X105266852Y-108559506D01*
X105004512Y-108669118D01*
X104995557Y-108669145D01*
X104995490Y-108669118D01*
X104733149Y-108559506D01*
X104726837Y-108553154D01*
X104726670Y-108544700D01*
X104897194Y-108077689D01*
X104903250Y-108071094D01*
X104908184Y-108070003D01*
X105091818Y-108070003D01*
X105100091Y-108073430D01*
G37*
G04 #@! TD.AperFunction*
G04 #@! TA.AperFunction,Conductor*
G36*
X114184340Y-103558213D02*
G01*
X114314188Y-103688061D01*
X114317615Y-103696334D01*
X114316524Y-103701268D01*
X114106878Y-104152071D01*
X114100282Y-104158127D01*
X114091825Y-104157960D01*
X113828816Y-104049964D01*
X113822464Y-104043652D01*
X113822437Y-104043585D01*
X113714441Y-103780576D01*
X113714468Y-103771621D01*
X113720327Y-103765525D01*
X114171135Y-103555876D01*
X114180080Y-103555496D01*
X114184340Y-103558213D01*
G37*
G04 #@! TD.AperFunction*
M02*
